<?xml version="1.0" encoding="UTF-8"?>
<svg id="Layer_2" xmlns="http://www.w3.org/2000/svg" version="1.1" viewBox="0 0 433.3 229.4">
  <!-- Generator: Adobe Illustrator 30.2.1, SVG Export Plug-In . SVG Version: 2.1.1 Build 1)  -->
  <defs>
    <style>
      .st0 {
        fill: #d86044;
      }

      .st1 {
        fill: #2b2b2b;
      }
    </style>
  </defs>
  <g id="Layer_1-2">
    <g id="TS_-_Alternate">
      <g>
        <path class="st1" d="M28,20.2H0V0h79.9v20.2h-28.2v75.9h-23.8s0-75.9,0-75.9Z"/>
        <path class="st1" d="M61.5,61.8c0-20.7,14.8-36.4,36.8-36.4s36.7,15.7,36.7,36.4-14.5,36.4-36.7,36.4-36.8-15.7-36.8-36.4ZM112.9,61.8c0-12.5-5.1-21-14.7-21s-14.5,8.5-14.5,21,5,20.8,14.5,20.8,14.7-8.3,14.7-20.8Z"/>
        <path class="st1" d="M135.7,27.3h21v9.8h.4c4.3-7.1,10.9-11.8,20.8-11.8s15.9,4.7,19.4,12.1h.3c5.4-8.3,12.8-12.1,21.6-12.1,15.6,0,23.4,10.6,23.4,26.1v44.7h-21.9v-40.8c0-7.4-3.1-11.7-9.7-11.7s-10.9,5.8-10.9,14v38.6h-21.9v-40.8c0-7.4-3.1-11.7-9.7-11.7s-10.9,5.8-10.9,14v38.6h-21.9V27.3h0Z"/>
        <path class="st1" d="M267,87.3h-.3v8.7h-21V0h21.9v35.1h.4c4.3-5.9,10.2-9.8,19.6-9.8,17.9,0,29.4,15.7,29.4,36.4s-11.6,36.6-29.3,36.6-16.5-3.8-20.8-10.9ZM294.9,61.5c0-11.8-4.7-19.6-13.6-19.6s-14.4,8.5-14.4,19.8,5.6,19.2,14.6,19.2,13.3-7.4,13.3-19.3h0Z"/>
        <path class="st1" d="M314.7,61.8c0-20.7,14.8-36.4,36.8-36.4s36.7,15.7,36.7,36.4-14.5,36.4-36.7,36.4-36.8-15.7-36.8-36.4ZM366,61.8c0-12.5-5.1-21-14.6-21s-14.5,8.5-14.5,21,5,20.8,14.5,20.8,14.6-8.3,14.6-20.8Z"/>
        <path class="st1" d="M388.8,27.3h21v10.7h.4c4.8-8.2,10.5-11.8,18.8-11.8s3.4.1,4.3.5v18.8h-.5c-13.4-1.9-22,4.7-22,19.6v30.9h-21.9V27.3h0Z"/>
      </g>
      <g>
        <path class="st0" d="M24.8,108.7v120.8h385.3v-120.8H24.8ZM158.9,161.7h-12.5v32.2c0,5.4,3,6.7,7.7,6.7s4-.1,4.8-.1v16c-1.9.5-6,1.1-12,1.1-12.8,0-21.9-4.2-21.9-19h0v-37h-9.1v-13.2h-23c-.9-7.4-6.6-11.6-15.4-11.6s-13.8,3.6-13.8,9,7.4,8.3,21.8,11.6c17.9,4.2,34,9.7,34,30.2s-17.2,31.3-39.4,31.3-42.3-11.3-42.9-32.5h0,0s0,0,0,0h23.9c1.1,9.7,7.4,13.7,18.8,13.7s15.5-2.8,15.5-10.1-7.8-9.3-21-12.5c-16.7-3.9-34.3-9-34.3-29.2s16.7-29.6,38.2-29.6,36.7,9.2,37.9,29h8.9v-21.8h21.4v21.8h12.5v13.7ZM225.7,216.8h-21v-8.5h-.4c-5,6.7-11,10.5-20.6,10.5-15.9,0-24.2-10.3-24.2-25.7v-45.1h21.8v40.6c0,7.5,3.4,11.7,10.3,11.7s12.1-5.6,12.1-13.8v-38.4h21.9v68.8ZM297.9,216.8h-21v-9.3h-.3c-4.2,7.1-11.3,11.4-20.3,11.4-17.6,0-30.1-13.6-30.1-36.5h0c0-21.5,12.4-36.4,30.1-36.4s15.2,4,19.2,9.8h.4v-35.1h21.9v96.1ZM323.6,216.8h-21.9v-68.8h21.9v68.8ZM323.6,138.5h-21.9v-17.7h21.9v17.7ZM361.1,219c-22.2,0-36.8-15.7-36.8-36.4s14.8-36.4,36.8-36.4,36.7,15.7,36.7,36.4-14.5,36.4-36.7,36.4Z"/>
        <path class="st0" d="M361,161.6c-9.5,0-14.5,8.5-14.5,21s5,20.8,14.5,20.8,14.6-8.3,14.6-20.8-5.1-21-14.6-21Z"/>
        <path class="st0" d="M262.4,162.5c-8.7,0-13.8,8.1-13.8,19.6s5.1,19.5,13.6,19.5,14.5-7.9,14.5-19.2-4.7-19.9-14.2-19.9Z"/>
      </g>
    </g>
  </g>
</svg>