<?xml version="1.0" encoding="UTF-8"?>
<svg id="Layer_2" xmlns="http://www.w3.org/2000/svg" version="1.1" viewBox="0 0 889.8 744">
  <!-- Generator: Adobe Illustrator 30.2.1, SVG Export Plug-In . SVG Version: 2.1.1 Build 1)  -->
  <defs>
    <style>
      .st0 {
        fill: #232020;
      }
    </style>
  </defs>
  <g id="Layer_1-2">
    <g id="card">
      <g>
        <path class="st0" d="M876.1,172.9c-14.1-15.8-32.5-27.6-50.5-32.3L267.4-6.1c-10-2.6-20.1-3.9-30.1-3.9-17,0-33.3,3.7-48.3,11.1-15.2,7.5-28.3,18.3-39,32.2-5,6.5-3.2,15.6-1.7,20.4.3.9.7,2.1,1.2,3.4-19.3,2-39.1,9.7-56.8,22.1-19.2,13.4-32.4,29.9-35.3,44.2-1.4,7.1-.3,13.5,3.2,18.6-13.5,5-26.2,12.6-37.1,22.5C1.9,184-10,209.6-10,236.4v417.8c0,24.6,11.5,49.9,31.7,69.3,19.9,19.2,45.6,30.2,70.5,30.2l705.6.2h.2c22.8,0,48.2-10.1,67.9-27,21.2-18.1,33.3-41.8,33.3-65l.6-433.6c0-18.6-8.4-38.2-23.7-55.4ZM104.9,185.8h684.3c36.4,0,62.8,26.5,62.8,63l-.3,397.2c0,27.2-24.1,57.7-56.3,57.7h0l-694.6.3c-34,0-61.6-26.6-61.6-59.2l-.3-401.5c4.6-36,29.2-57.5,66.1-57.5ZM194,60c1.1-.9,2.2-1.7,3.2-2.6,10.6-8.6,21.6-17.4,38.3-17.4,4.5,0,9.4.7,14.4,2l171.4,45.1-227.4-27.1ZM107.6,135.3c.1-.1.2-.2.3-.4,11.7-13,24.9-27.6,53.4-27.6s7.5.2,11.4.7l217,26.8-282.2.5Z"/>
        <g>
          <g>
            <path class="st0" d="M457.9,618.9c-7.5,0-17.1-8.1-18.7-15.8-14.2-68.9-71.9-117.7-140.2-118.6-52.8-.7-96-33.9-107.6-82.5-11.8-49.7,13.6-100.7,60.3-121.3,13.6-6,28.1-9.1,42.8-9.1,35.4,0,68.3,17.5,87.9,46.8,14,21,20.3,46.1,17.7,70.7-2.7,24.8-14.3,48.1-32.8,65.7-.9.9-2.2,1.4-3.5,1.4s-1,0-1.5-.2l-29.2-8.9c-1.8-.6-3.1-2.1-3.5-3.9-.3-1.9.4-3.7,2-4.9,31.1-23,41-56.6,26.5-89.8-10.7-24.5-36.3-41-63.7-41s-13.1.9-19.5,2.8c-31.5,9.2-53.2,40.3-50.5,72.4,2.6,30.9,27.5,64.1,68.6,64.8.3,0,.7,0,1,.1,63.9,1.4,106.3,30.8,130.7,55.2,32,32.2,45.7,67.7,47.7,88.3,2.1,22-8.1,26.7-12.6,27.6-.6.1-1.3.2-2,.2Z"/>
            <path class="st0" d="M294.6,276.6c33.2,0,64.9,16.5,83.7,44.5,27.6,41.2,22.1,95.2-14.4,130l-29.2-8.9c31.5-23.3,44.2-59,28.1-95.8-11.2-25.6-38.2-44-68.2-44s-13.8,1-20.9,3c-31.9,9.3-57.1,41.5-54.1,77.6,3,35.8,31.4,68.7,73.5,69.4h0c145.3,2.6,197.6,154.6,165.8,161.4-.3,0-.6.1-1,.1-4.8,0-12.6-6.1-13.8-11.8-14.3-69.3-73.1-121.6-145-122.6-50.8-.7-91.8-32.5-102.8-78.7-11.6-48.8,14.4-96.6,57.5-115.6,13.3-5.9,27.2-8.6,40.8-8.6M294.6,266.6c-15.5,0-30.5,3.2-44.8,9.5-23.3,10.3-42.5,28.4-54.1,51.2-11.9,23.3-15.1,50.3-9.1,75.8,12.1,50.9,57.3,85.6,112.4,86.4,66,.9,121.6,48.1,135.3,114.6,0,0,0,0,0,0,2.1,10,13.8,19.7,23.6,19.7s2.1-.1,3.1-.3c6.7-1.4,11.9-6.2,14.6-13.3,2-5.3,2.6-11.9,1.9-19.7-2.1-21.5-16.2-58.3-49.2-91.4-13.7-13.8-32.9-29-58.3-40.2.3-.2.5-.4.7-.6,19.3-18.4,31.5-42.8,34.3-68.8,2.8-25.8-3.8-52.1-18.5-74-10.1-15.1-23.9-27.5-40.1-36.1-16-8.4-33.9-12.9-51.9-12.9h0ZM294.7,442.5c-.5,0-1-.1-1.5-.1-38.1-.6-61.3-31.5-63.7-60.2-2.5-29.8,17.7-58.6,46.9-67.2,5.9-1.7,12-2.6,18.1-2.6,25.4,0,49.1,15.3,59.1,38,13.5,30.9,4.2,62.2-24.9,83.7-3,2.2-4.5,6-3.9,9.7,0,.5.2,1.1.4,1.6-9.6-1.7-19.8-2.7-30.5-2.9h0Z"/>
          </g>
          <g>
            <path class="st0" d="M121.2,629.4c-.3,0-.6,0-1,0-5.2-.3-9.7-5.6-11.5-7.9-2.1-2.8-5.5-8.2-4.5-13.2,11.4-60.3,50.4-108.8,106.9-133.1.6-.3,1.3-.4,2-.4.9,0,1.9.3,2.7.8l25.5,16.4c.4.1.7.3,1,.6,1.3.9,2.1,2.4,2.1,4s-1,3.6-2.6,4.4c-.5.3-1,.5-1.6.6-67.4,22.4-85.4,68.7-97.2,99.4-6.4,16.5-11,28.4-21.9,28.4h0Z"/>
            <path class="st0" d="M213.1,479.8l26.2,16.8c-105,34.5-95.7,127.8-118.2,127.8s-.4,0-.6,0c-4.5-.3-12.4-10.2-11.4-15.1,11.3-59.7,50.4-106.5,104-129.5M239.4,496.6h0c0,.1-.1,0-.1,0,0,0,0,0,.1,0M213.1,469.8c-1.3,0-2.7.3-3.9.8-28.1,12-52.8,30.7-71.7,53.9-19.5,24-32.3,51.9-38.2,82.9-1.4,6.9,2.8,13.7,5.4,17.1,2.7,3.5,8.1,9.4,15.1,9.9.4,0,.9,0,1.3,0,7.1,0,13.1-4,17.8-11.9,3.1-5.2,5.7-11.9,8.7-19.7,11.5-29.7,28.9-74.5,93.6-96.3,1-.2,2-.5,3-1.1,3.2-1.8,5.2-5.1,5.2-8.8h0c0-3.3-1.5-6.3-4.1-8.2-.5-.4-1-.7-1.6-.9l-25.2-16.2c-1.6-1.1-3.5-1.6-5.4-1.6h0Z"/>
          </g>
        </g>
        <g>
          <g>
            <path class="st0" d="M554.3,569c-8.5,0-18.7-11.5-19.7-18.2,0,0,0,0,0-.1-.7-5.3,2.7-11.5,6.2-15.5,2.5-2.8,7.5-7.5,13.6-7.5h207.2c9.1,0,19.8,10.3,21.1,18.1.9,5.2-2.4,11.8-6,16.1-3.8,4.5-8.4,7.1-13,7.2,0,0-.1,0-.2,0h-209.3Z"/>
            <path class="st0" d="M761.6,532.7c6.6,0,15.3,8.6,16.2,13.9.9,5.3-6.3,17.4-14.3,17.4h-209.2c-5.5,0-14-9-14.8-14-.8-5.9,7.8-17.3,14.9-17.3h207.2M763.6,564h0s0,0,0,0h0M761.6,522.7h-207.2c-6,0-12.2,3.3-17.4,9.2-2,2.3-8.6,10.6-7.4,19.4,0,0,0,.2,0,.2,1,6.5,6.3,12.2,8.5,14.4,3.7,3.7,9.5,8,16.2,8h209.2s0,0,0,0h.1c.1,0,.3,0,.4,0,6-.2,11.9-3.4,16.6-9,4-4.8,8.3-12.9,7-20.1-1.7-9.8-14.3-22.2-26.1-22.2h0Z"/>
          </g>
          <g>
            <path class="st0" d="M554,361.3c-8.2-.2-18.4-10.3-19.5-17.4-.8-6,2.8-12.5,6.1-16.4,3.9-4.5,8.4-6.9,12.8-6.9h139.7c10.3,0,20.9,9,21.8,18.6.5,4.6-1.8,10.3-6,15-4.1,4.5-9,7.1-13.6,7.1h-141.3Z"/>
            <path class="st0" d="M693.1,325.6c7.9,0,16.1,7.1,16.8,14.1.7,6.6-7.6,16.6-14.6,16.6s0,0-.1,0h.2-141.4c-5.3-.1-13.8-8.2-14.6-13.2-.9-6.4,6.9-17.5,14-17.5h139.5c0,0,.1,0,.2,0M693.1,315.6h-.2s-139.5,0-139.5,0c-5.9,0-11.8,3.1-16.6,8.6-4.2,4.9-8.4,12.7-7.3,20.3,0,0,0,.1,0,.2,1.5,9.3,13.5,21.4,24.3,21.6,0,0,.1,0,.2,0h141.3c6,0,12.3-3.2,17.3-8.8,5.2-5.8,7.9-12.8,7.3-18.9-1.2-12.1-14-23.1-26.8-23.1h0Z"/>
          </g>
          <g>
            <path class="st0" d="M553.9,465.2c-5.6,0-10.4-4.1-12.8-6.6-1.6-1.7-7-7.7-6.7-14.1.4-10.4,11.7-19.8,23.6-19.8h134.9c12.4,0,22.4,9.2,22.4,20.4s-10.9,20.1-22.4,20.1h-139Z"/>
            <path class="st0" d="M692.9,429.7c9.4,0,17.4,6.6,17.4,15.4s-8.7,15.1-17.4,15.1h-139c-6.2,0-14.7-9.7-14.5-15.5.3-7.4,9.2-15,18.6-15h134.9M692.9,419.7h-134.9c-6.8,0-13.6,2.5-19.1,7-5.8,4.8-9.3,11.2-9.5,17.6,0,0,0,0,0,0-.3,8.1,5.6,15.1,8.1,17.7,2.9,3,8.9,8.1,16.4,8.1h139c14.3,0,27.4-12,27.4-25.1s-3.1-13.7-8.6-18.6c-5.1-4.4-11.8-6.8-18.8-6.8h0Z"/>
          </g>
        </g>
      </g>
    </g>
  </g>
</svg>