<?xml version="1.0" encoding="UTF-8"?>
<svg id="Layer_2" data-name="Layer 2" xmlns="http://www.w3.org/2000/svg" viewBox="0 0 188.21 196.37">
  <defs>
    <style>
      .cls-1 {
        fill: #232020;
      }
    </style>
  </defs>
  <g id="Social_Media_Post_Design" data-name="Social Media Post Design">
    <g id="email">
      <path class="cls-1" d="M54.54,120.07L.16,70.22l-.16,10.91v106.34l54.54-49.99c5.24-4.81,5.24-12.6,0-17.41Z"/>
      <path class="cls-1" d="M188.06,70.22l-54.94,50.36c-4.94,4.52-4.94,11.86,0,16.39l55.09,50.5v-106.34l-.16-10.91Z"/>
      <path class="cls-1" d="M181.97,69.62L103.79,3.43c-5.41-4.58-13.74-4.58-19.15,0L6.24,69.77h159.39l16.35-.14Z"/>
      <path class="cls-1" d="M93.13,141.96c-9.86,0-19.02-2.61-26.54-7.15L6.2,196.37h159.42l16.38-.13-61.08-62.29c-7.76,5.08-17.39,8.02-27.79,8.02Z"/>
    </g>
  </g>
</svg>