<?xml version="1.0" encoding="UTF-8"?>
<svg id="Layer_2" xmlns="http://www.w3.org/2000/svg" version="1.1" viewBox="0 0 523.3 523.3">
  <!-- Generator: Adobe Illustrator 30.2.1, SVG Export Plug-In . SVG Version: 2.1.1 Build 1)  -->
  <defs>
    <style>
      .st0 {
        fill: #d86044;
      }
    </style>
  </defs>
  <g id="Layer_1-2">
    <g id="Logo_Design">
      <g>
        <path class="st0" d="M523.3,261.7c0,144.5-117.2,261.7-261.7,261.7S0,406.2,0,261.7,117.2,0,261.7,0s261.7,117.2,261.7,261.7h0ZM491.6,261.7c0-127-102.9-229.9-229.9-229.9S31.8,134.7,31.8,261.7s102.9,229.9,229.9,229.9,229.9-102.9,229.9-229.9Z"/>
        <g>
          <path class="st0" d="M140,318.6l21.1,22c2.9,3,2.7,7.9,0,10.6-3.2,3.1-8,2.5-11.1-.8l-20.7-21.6c-6.1,5.8-4.9,13.5.4,19.1l45.8,47.3c5,5.1,12.9,4.4,17.8-.2l57.7-55.6,13.9,14.6-74.4,71.7c-3.6,3.4-9.7,4-13.4.1l-78.7-81.5c-4.2-4.4-3.6-10.6.6-14.6l74.9-72.2,39,41.4c0,2.7-2.4,4.8-4.4,5.6-2.2.8-5.6.6-7.5-1.4l-21.8-22.5-5.8,5.6,21.7,22.7c2.7,2.8,1.7,7.9-.9,10.1s-7.1,2.8-9.8,0l-21.8-22.5-6,5.6,21.2,22c2.9,3,2.8,7.6.1,10.4-2.7,2.8-7.6,3.2-10.6,0l-21.4-22.1c-1.9,1.7-3.6,3.3-5.8,5.7h0Z"/>
          <path class="st0" d="M402.9,419.7l-79.8-30.4,66.5-62.8,25.3,80.2c1.2,3.7.8,7.4-1.9,10.3-1.9,2.1-5.9,4.3-10,2.7h0ZM394.3,380l-10.2-32-39.2,36.9,31.6,12.1,17.8-17.1h0Z"/>
        </g>
        <g>
          <path class="st0" d="M396.1,183.8l-47.3-49.2c-4.6-4.8-12.6-5.4-17.5-.6l-41.4,39.8,36,37.4c2.3,2.4,1.5,7,0,9.2-1.3,2-6.1,4.8-8.6,2.6l-51.2-54.3,67.4-65c4-3.8,9.4-3.4,13.5-.2l78.7,81.6c4,4.1,3.5,9.8,0,14l-68.6,66.2-13.8-14.8,51-49.2c4.7-4.3,7-12.1,1.9-17.5h0Z"/>
          <path class="st0" d="M372.8,179c0,14-11.4,25.4-25.4,25.4s-25.4-11.4-25.4-25.4,11.4-25.4,25.4-25.4,25.4,11.4,25.4,25.4ZM357.8,179c0-5.8-4.7-10.4-10.4-10.4s-10.4,4.7-10.4,10.4,4.7,10.4,10.4,10.4,10.4-4.7,10.4-10.4Z"/>
        </g>
        <g>
          <path class="st0" d="M232.1,158.9l149.2,158.4-67,63.1-149.2-158.4,67-63.1h0ZM241.1,207.5c2.6-2.1,2.9-6.1.7-8.5l-7-7.6c-2-2.1-4.8-2.5-7.4-1.6-3.9,3.7-9.1,6.3-6,12.5l7.7,8.3c3.9,4.2,7.9.1,12.1-3.1h0ZM348.4,317.3c1.4-2.2.3-5-1.5-6.9l-82.1-87.2c-1.5-1.6-3.5-3.3-5.6-3.2-2.9.1-4.9,2.4-6.9,4.2-2.8,2.5-4.2,6.3-1.2,9.5l83.9,89.1c5.1,4.6,11.1-1.8,13.4-5.5h0Z"/>
          <path class="st0" d="M134.6,189.4l-23.1-24.5c-7.7-8.2-7.4-20.8.8-28.5l38.2-36c8.2-6.9,19.7-6.9,27.2,1.1l23.8,25.1-66.8,62.9h0ZM163.6,112.4l-40.9,38.5,12.6,13.4,40.9-38.5s-12.6-13.4-12.6-13.4Z"/>
          <rect class="st0" x="137.1" y="161.4" width="92" height="25.2" transform="translate(-69.5 173) rotate(-43.3)"/>
        </g>
      </g>
    </g>
  </g>
</svg>