<?xml version="1.0" encoding="UTF-8"?>
<svg id="Layer_2" data-name="Layer 2" xmlns="http://www.w3.org/2000/svg" viewBox="0 0 204.23 208.92">
  <defs>
    <style>
      .cls-1 {
        fill: #232020;
      }
    </style>
  </defs>
  <g id="Social_Media_Post_Design" data-name="Social Media Post Design">
    <g id="phone">
      <path class="cls-1" d="M155.73,142.1s-22.41-18.29-42.55,10.09c-5.36,7.56-15.29,10.32-23.73,6.48-12.19-5.54-28.22-17.26-38.73-41.89-2.26-5.29.97-11.39,6.64-12.38,16.37-2.85,41.87-14.26,5.04-59.73-8.1-10-21.02-15.15-33.68-12.87-19.8,3.56-41.9,20.58-18.92,85.98,36.77,104.64,136.88,90.5,136.88,90.5,0,0,84.28-3.39,9.05-66.18Z"/>
      <path class="cls-1" d="M102.09,56.29c36.33,2.73,46.6,36.2,49.33,50.25,1.14,5.88,9.19,7.24,11.88,1.9,6.08-12.1-8.93-45.11-34.72-59.1-19.63-10.64-27.51-6.42-30.68-1.14-2.04,3.41.24,7.79,4.2,8.09Z"/>
      <path class="cls-1" d="M152.61,9.44C124.52-5.79,113.23.25,108.7,7.81c-2.92,4.88.34,11.15,6.01,11.57,51.99,3.9,66.7,51.8,70.59,71.92,1.63,8.41,13.16,10.37,17.01,2.71,8.71-17.31-12.78-64.55-49.69-84.58Z"/>
    </g>
  </g>
</svg>