<?xml version="1.0" encoding="UTF-8"?>
<svg id="Layer_2" data-name="Layer 2" xmlns="http://www.w3.org/2000/svg" viewBox="0 0 215.88 158.42">
  <defs>
    <style>
      .cls-1 {
        fill: #232020;
      }
    </style>
  </defs>
  <g id="Social_Media_Post_Design" data-name="Social Media Post Design">
    <g id="text">
      <path class="cls-1" d="M215.51,39.05c-.07-13.24-10.92-23.94-24.16-23.86l-51.39.3v52.88c0,13.09-10.62,23.71-23.71,23.71h-56.4v2.47c.07,13.32,10.92,24.01,24.24,23.94l70.2-.52,32.08,40.45-6.9-40.6,12.55-.07c13.24-.07,23.94-10.92,23.86-24.16l-.37-54.53Z"/>
      <path class="cls-1" d="M126.04,63.51V19.45c0-1.35-.15-2.62-.37-3.89-1.8-8.9-9.65-15.56-19.07-15.56H19.37C8.68,0,0,8.68,0,19.45v44.06c0,10.7,8.68,19.37,19.37,19.37h5.91l-1.57,9.2-4.94,30.37,23.79-30.37,7.18-9.2h56.85c10.77,0,19.45-8.68,19.45-19.37Z"/>
    </g>
  </g>
</svg>