<?xml version="1.0" encoding="UTF-8"?>
<svg id="Layer_2" xmlns="http://www.w3.org/2000/svg" version="1.1" viewBox="0 0 531.9 531.9">
  <!-- Generator: Adobe Illustrator 30.2.1, SVG Export Plug-In . SVG Version: 2.1.1 Build 1)  -->
  <defs>
    <style>
      .st0 {
        fill: #232020;
      }
    </style>
  </defs>
  <g id="Layer_1-2">
    <g id="Website">
      <path class="st0" d="M265.9,0C119.1,0,0,119.1,0,265.9s119.1,265.9,265.9,265.9,265.9-119.1,265.9-265.9S412.8,0,265.9,0ZM184.5,318.3l-25.3,25.3-84.7-84.6,86.7-86.7,24.5,24.5c1.6,0-60.7,62.2-60.7,62.2l59.3,59.4h0ZM238.6,413.8l-38.7-.5,93.9-311.2,38.2,2.1-93.4,309.7h0ZM372.7,343.6l-25.3-25.3,59.4-59.4s-62.2-62.2-60.6-62.2l24.5-24.5,86.7,86.7-84.6,84.6h0Z"/>
    </g>
  </g>
</svg>