<?xml version="1.0" encoding="UTF-8"?>
<svg id="Layer_2" data-name="Layer 2" xmlns="http://www.w3.org/2000/svg" xmlns:xlink="http://www.w3.org/1999/xlink" viewBox="0 0 160 90">
  <defs>
    <style>
      .cls-1 {
        opacity: .07;
      }

      .cls-1, .cls-2 {
        fill: #231f20;
      }

      .cls-3 {
        fill: url(#linear-gradient-2);
      }

      .cls-4 {
        fill: #fff;
      }

      .cls-5 {
        fill: none;
      }

      .cls-6 {
        fill: url(#linear-gradient-3);
      }

      .cls-7 {
        clip-path: url(#clippath-1);
      }

      .cls-8 {
        opacity: .02;
      }

      .cls-9 {
        filter: url(#drop-shadow-1);
      }

      .cls-10 {
        clip-path: url(#clippath-2);
      }

      .cls-11 {
        fill: url(#linear-gradient);
      }

      .cls-12 {
        clip-path: url(#clippath);
      }
    </style>
    <clipPath id="clippath">
      <rect class="cls-5" width="160" height="90"/>
    </clipPath>
    <clipPath id="clippath-1">
      <rect class="cls-5" x="-193.54" y="-22.5" width="547.07" height="135"/>
    </clipPath>
    <filter id="drop-shadow-1" x="35.1" y="15.71" width="91.3" height="48.39" filterUnits="userSpaceOnUse">
      <feOffset dx=".7" dy=".7"/>
      <feGaussianBlur result="blur" stdDeviation=".5"/>
      <feFlood flood-color="#000" flood-opacity=".75"/>
      <feComposite in2="blur" operator="in"/>
      <feComposite in="SourceGraphic"/>
    </filter>
    <clipPath id="clippath-2">
      <path class="cls-5" d="M91.83,30.83v2.21c0,.25.21.46.46.46h8.39c.25,0,.46.21.46.46v4.52c0,.25-.21.46-.46.46h-8.39c-.25,0-.46.21-.46.46v2.85c0,.25.21.46.46.46h9.8c.25,0,.46.21.46.46v4.85c0,.25-.21.46-.46.46h-18.84c.19-.16.37-.33.54-.53.77-.9,1.17-2.01,1.17-3.31v-6.15c0-.74-.6-1.34-1.34-1.34h-1.71v-1.25h1.71c.74,0,1.34-.6,1.34-1.34v-6.15c0-1.33-.39-2.45-1.17-3.34-.17-.19-.34-.36-.52-.51h18.82c.25,0,.46.21.46.46v4.85c0,.25-.21.46-.46.46h-9.8c-.25,0-.46.21-.46.46ZM74.69,35.05h8.93c.25,0,.46-.21.46-.46v-6.15c0-1.11-.32-2.03-.95-2.76-.63-.72-1.44-1.09-2.42-1.09h-17.17c-.98,0-1.79.36-2.42,1.09-.63.72-.95,1.64-.95,2.76v6.87l3.17,12.21c.09.34.06.68-.06.98.09,0,.17.01.26.01h17.17c.98,0,1.79-.37,2.42-1.1.63-.73.95-1.65.95-2.74v-6.15c0-.25-.21-.46-.46-.46h-8.93c-.25,0-.46.21-.46.46v2.88c0,.62-.18,1.06-.53,1.32-.36.26-.85.38-1.47.38s-1.12-.13-1.5-.4c-.38-.27-.57-.71-.57-1.34v-9.69c0-.62.18-1.06.53-1.32.36-.26.85-.38,1.47-.38s1.15.13,1.52.4c.37.27.55.71.55,1.34v2.88c0,.25.21.46.46.46ZM114.8,32.14h8.93c.25,0,.46-.21.46-.46v-3.25c0-1.11-.32-2.03-.95-2.76-.63-.72-1.44-1.09-2.42-1.09h-16.7c-.26,0-.51.03-.74.08.04.12.06.25.06.39v4.85c0,.74-.6,1.34-1.34,1.34h-1.35v1.39c.71.03,1.29.62,1.29,1.34v3.97c.57.5,1.28.83,2.12.98l8.32,1.3c.71.11,1.2.31,1.45.58.26.28.38.71.38,1.29,0,.49-.12.9-.37,1.24-.25.33-.72.5-1.44.5s-1.18-.17-1.47-.5c-.29-.33-.43-.79-.43-1.37v-.54c0-.25-.21-.46-.46-.46h-8.96c-.25,0-.46.21-.46.46v.43h1.38c.74,0,1.34.6,1.34,1.34v4.85c0,.14-.02.27-.06.39.23.05.46.07.71.07h16.74c.98,0,1.79-.37,2.42-1.1.63-.73.95-1.65.95-2.74v-6.45c0-1.25-.31-2.25-.92-3.01-.61-.76-1.44-1.21-2.49-1.37l-8.32-1.3c-.74-.11-1.22-.29-1.47-.55-.25-.26-.37-.63-.37-1.12s.13-.85.38-1.15c.26-.3.73-.45,1.42-.45s1.21.17,1.49.5c.28.33.42.79.42,1.37v.54c0,.25.21.46.46.46Z"/>
    </clipPath>
    <linearGradient id="linear-gradient" x1="92.2" y1="25.07" x2="92.32" y2="47.23" gradientUnits="userSpaceOnUse">
      <stop offset="0" stop-color="#d30d17"/>
      <stop offset="1" stop-color="#ba0028"/>
    </linearGradient>
    <linearGradient id="linear-gradient-2" x1="72.09" y1="25.18" x2="72.21" y2="47.34" xlink:href="#linear-gradient"/>
    <linearGradient id="linear-gradient-3" x1="112.4" y1="24.95" x2="112.52" y2="47.12" xlink:href="#linear-gradient"/>
  </defs>
  <g id="Background">
    <g id="Aces">
      <g class="cls-12">
        <rect class="cls-2" width="160" height="90"/>
        <g class="cls-7">
          <g class="cls-8">
            <g>
              <g>
                <path class="cls-4" d="M135.55,13.47l1.51-.72c1.03-.71,1.34-1.94,1.55-2.98l-.79,1c-2.74,2.25-7.21.46-6.64-2.72.28-1.54,2.26-2.72,4.13-2.58-.85-1.72-.08-3.65,2.08-4.35,3.39-1.09,6.36,1.73,4.89,4.35,2.73-.13,4.89,1.88,4.08,4.08s-3.91,2.94-6.04,1.57l-1.22-1.15c.17,1.13.56,2.23,1.72,2.94l1.22.56h-6.49Z"/>
                <polygon class="cls-4" points="166.41 .97 172.94 7.6 166.53 14.27 160 7.53 166.41 .97"/>
                <path class="cls-4" d="M23.67,13.47l1.51-.72c1.03-.71,1.34-1.94,1.55-2.98l-.79,1c-2.74,2.25-7.21.46-6.64-2.72.28-1.54,2.26-2.72,4.13-2.58-.85-1.72-.08-3.65,2.08-4.35,3.39-1.09,6.36,1.73,4.89,4.35,2.73-.13,4.89,1.88,4.08,4.08s-3.91,2.94-6.04,1.57l-1.22-1.15c.17,1.13.56,2.23,1.72,2.94l1.22.56h-6.49Z"/>
                <path class="cls-4" d="M107.17,13.47l1.22-.56c.94-.58,1.35-1.32,1.6-2.24-2.99,2.46-7.72.97-6.7-2.72.47-1.69,1.69-2.07,3.03-3.13,1.6-1.26,2.95-2.48,4.1-4.05.84,1.03,1.63,2.11,2.69,3,1.62,1.36,3.84,2.17,4.41,4.19,1.04,3.66-3.71,5.17-6.67,2.7.12.7.51,1.35,1.05,1.89l1.76.91h-6.49Z"/>
                <path class="cls-4" d="M81.96,3.97c.11.01.15.01.24-.05.25-.16.67-.69,1.04-.95,2.69-1.82,6.4-.59,6.43,2.35.02,2.13-2.31,3.21-3.91,4.52-1.3,1.06-2.73,2.29-3.57,3.63-1-1-1.9-2.06-3-3-2.1-1.81-5.5-3.2-4.51-6.18.98-2.92,5.67-2.73,7.26-.32Z"/>
                <polygon class="cls-4" points="54.53 .97 61.06 7.6 54.65 14.27 48.12 7.53 54.53 .97"/>
                <path class="cls-4" d="M-4.71,13.47l1.22-.56c.94-.58,1.35-1.32,1.6-2.24-2.99,2.46-7.72.97-6.7-2.72.47-1.69,1.69-2.07,3.03-3.13C-3.97,3.56-2.61,2.34-1.47.77-.63,1.8.16,2.88,1.22,3.77c1.62,1.36,3.84,2.17,4.41,4.19,1.04,3.66-3.71,5.17-6.67,2.7.12.7.51,1.35,1.05,1.89l1.76.91h-6.49Z"/>
              </g>
              <g>
                <path class="cls-4" d="M16.17,31.63l-1.51-.72c-1.03-.71-1.34-1.94-1.55-2.98l.79,1c2.74,2.25,7.21.46,6.64-2.72-.28-1.54-2.26-2.72-4.13-2.58.85-1.72.08-3.65-2.08-4.35-3.39-1.09-6.36,1.73-4.89,4.35-2.73-.13-4.89,1.88-4.08,4.08s3.91,2.94,6.04,1.57l1.22-1.15c-.17,1.13-.56,2.23-1.72,2.94l-1.22.56h6.49Z"/>
                <path class="cls-4" d="M128.05,31.63l-1.51-.72c-1.03-.71-1.34-1.94-1.55-2.98l.79,1c2.74,2.25,7.21.46,6.64-2.72-.28-1.54-2.26-2.72-4.13-2.58.85-1.72.08-3.65-2.08-4.35-3.39-1.09-6.36,1.73-4.89,4.35-2.73-.13-4.89,1.88-4.08,4.08s3.91,2.94,6.04,1.57l1.22-1.15c-.17,1.13-.56,2.23-1.72,2.94l-1.22.56h6.49Z"/>
                <path class="cls-4" d="M44.55,31.63l-1.22-.56c-.94-.58-1.35-1.32-1.6-2.24,2.99,2.46,7.72.97,6.7-2.72-.47-1.69-1.69-2.07-3.03-3.13-1.6-1.26-2.95-2.48-4.1-4.05-.84,1.03-1.63,2.11-2.69,3-1.62,1.36-3.84,2.17-4.41,4.19-1.04,3.66,3.71,5.17,6.67,2.7-.12.7-.51,1.35-1.05,1.89l-1.76.91h6.49Z"/>
                <path class="cls-4" d="M69.76,22.13c-.11.01-.15.01-.24-.05-.25-.16-.67-.69-1.04-.95-2.69-1.82-6.4-.59-6.43,2.35-.02,2.13,2.31,3.21,3.91,4.52,1.3,1.06,2.73,2.29,3.57,3.63,1-1,1.9-2.06,3-3,2.1-1.81,5.5-3.2,4.51-6.18s-5.67-2.73-7.26-.32Z"/>
                <polygon class="cls-4" points="97.2 19.13 90.66 25.77 97.08 32.43 103.61 25.7 97.2 19.13"/>
                <path class="cls-4" d="M156.44,31.63l-1.22-.56c-.94-.58-1.35-1.32-1.6-2.24,2.99,2.46,7.72.97,6.7-2.72-.47-1.69-1.69-2.07-3.03-3.13-1.6-1.26-2.95-2.48-4.1-4.05-.84,1.03-1.63,2.11-2.69,3-1.62,1.36-3.84,2.17-4.41,4.19-1.04,3.66,3.71,5.17,6.67,2.7-.12.7-.51,1.35-1.05,1.89l-1.76.91h6.49Z"/>
              </g>
              <g>
                <path class="cls-4" d="M135.55,49.8l1.51-.72c1.03-.71,1.34-1.94,1.55-2.98l-.79,1c-2.74,2.25-7.21.46-6.64-2.72.28-1.54,2.26-2.72,4.13-2.58-.85-1.72-.08-3.65,2.08-4.35,3.39-1.09,6.36,1.73,4.89,4.35,2.73-.13,4.89,1.88,4.08,4.08s-3.91,2.94-6.04,1.57l-1.22-1.15c.17,1.13.56,2.23,1.72,2.94l1.22.56h-6.49Z"/>
                <polygon class="cls-4" points="166.41 37.3 172.94 43.93 166.53 50.6 160 43.86 166.41 37.3"/>
                <path class="cls-4" d="M23.67,49.8l1.51-.72c1.03-.71,1.34-1.94,1.55-2.98l-.79,1c-2.74,2.25-7.21.46-6.64-2.72.28-1.54,2.26-2.72,4.13-2.58-.85-1.72-.08-3.65,2.08-4.35,3.39-1.09,6.36,1.73,4.89,4.35,2.73-.13,4.89,1.88,4.08,4.08s-3.91,2.94-6.04,1.57l-1.22-1.15c.17,1.13.56,2.23,1.72,2.94l1.22.56h-6.49Z"/>
                <path class="cls-4" d="M107.17,49.8l1.22-.56c.94-.58,1.35-1.32,1.6-2.24-2.99,2.46-7.72.97-6.7-2.72.47-1.69,1.69-2.07,3.03-3.13,1.6-1.26,2.95-2.48,4.1-4.05.84,1.03,1.63,2.11,2.69,3,1.62,1.36,3.84,2.17,4.41,4.19,1.04,3.66-3.71,5.17-6.67,2.7.12.7.51,1.35,1.05,1.89l1.76.91h-6.49Z"/>
                <path class="cls-4" d="M81.96,40.3c.11.01.15.01.24-.05.25-.16.67-.69,1.04-.95,2.69-1.82,6.4-.59,6.43,2.35.02,2.13-2.31,3.21-3.91,4.52-1.3,1.06-2.73,2.29-3.57,3.63-1-1-1.9-2.06-3-3-2.1-1.81-5.5-3.2-4.51-6.18s5.67-2.73,7.26-.32Z"/>
                <polygon class="cls-4" points="54.53 37.3 61.06 43.93 54.65 50.6 48.12 43.86 54.53 37.3"/>
                <path class="cls-4" d="M-4.71,49.8l1.22-.56c.94-.58,1.35-1.32,1.6-2.24-2.99,2.46-7.72.97-6.7-2.72.47-1.69,1.69-2.07,3.03-3.13,1.6-1.26,2.95-2.48,4.1-4.05.84,1.03,1.63,2.11,2.69,3,1.62,1.36,3.84,2.17,4.41,4.19,1.04,3.66-3.71,5.17-6.67,2.7.12.7.51,1.35,1.05,1.89l1.76.91h-6.49Z"/>
              </g>
            </g>
            <g>
              <g>
                <path class="cls-4" d="M135.55,85.47l1.51-.72c1.03-.71,1.34-1.94,1.55-2.98l-.79,1c-2.74,2.25-7.21.46-6.64-2.72.28-1.54,2.26-2.72,4.13-2.58-.85-1.72-.08-3.65,2.08-4.35,3.39-1.09,6.36,1.73,4.89,4.35,2.73-.13,4.89,1.88,4.08,4.08s-3.91,2.94-6.04,1.57l-1.22-1.15c.17,1.13.56,2.23,1.72,2.94l1.22.56h-6.49Z"/>
                <polygon class="cls-4" points="166.41 72.97 172.94 79.61 166.53 86.27 160 79.54 166.41 72.97"/>
                <path class="cls-4" d="M23.67,85.47l1.51-.72c1.03-.71,1.34-1.94,1.55-2.98l-.79,1c-2.74,2.25-7.21.46-6.64-2.72.28-1.54,2.26-2.72,4.13-2.58-.85-1.72-.08-3.65,2.08-4.35,3.39-1.09,6.36,1.73,4.89,4.35,2.73-.13,4.89,1.88,4.08,4.08s-3.91,2.94-6.04,1.57l-1.22-1.15c.17,1.13.56,2.23,1.72,2.94l1.22.56h-6.49Z"/>
                <path class="cls-4" d="M107.17,85.47l1.22-.56c.94-.58,1.35-1.32,1.6-2.24-2.99,2.46-7.72.97-6.7-2.72.47-1.69,1.69-2.07,3.03-3.13,1.6-1.26,2.95-2.48,4.1-4.05.84,1.03,1.63,2.11,2.69,3,1.62,1.36,3.84,2.17,4.41,4.19,1.04,3.66-3.71,5.17-6.67,2.7.12.7.51,1.35,1.05,1.89l1.76.91h-6.49Z"/>
                <path class="cls-4" d="M81.96,75.97c.11.01.15.01.24-.05.25-.16.67-.69,1.04-.95,2.69-1.82,6.4-.59,6.43,2.35.02,2.13-2.31,3.21-3.91,4.52-1.3,1.06-2.73,2.29-3.57,3.63-1-1-1.9-2.06-3-3-2.1-1.81-5.5-3.2-4.51-6.18.98-2.92,5.67-2.73,7.26-.32Z"/>
                <polygon class="cls-4" points="54.53 72.97 61.06 79.61 54.65 86.27 48.12 79.54 54.53 72.97"/>
                <path class="cls-4" d="M-4.71,85.47l1.22-.56c.94-.58,1.35-1.32,1.6-2.24-2.99,2.46-7.72.97-6.7-2.72.47-1.69,1.69-2.07,3.03-3.13,1.6-1.26,2.95-2.48,4.1-4.05.84,1.03,1.63,2.11,2.69,3,1.62,1.36,3.84,2.17,4.41,4.19,1.04,3.66-3.71,5.17-6.67,2.7.12.7.51,1.35,1.05,1.89l1.76.91h-6.49Z"/>
              </g>
              <g>
                <path class="cls-4" d="M16.17,67.31l-1.51-.72c-1.03-.71-1.34-1.94-1.55-2.98l.79,1c2.74,2.25,7.21.46,6.64-2.72-.28-1.54-2.26-2.72-4.13-2.58.85-1.72.08-3.65-2.08-4.35-3.39-1.09-6.36,1.73-4.89,4.35-2.73-.13-4.89,1.88-4.08,4.08s3.91,2.94,6.04,1.57l1.22-1.15c-.17,1.13-.56,2.23-1.72,2.94l-1.22.56h6.49Z"/>
                <path class="cls-4" d="M128.05,67.31l-1.51-.72c-1.03-.71-1.34-1.94-1.55-2.98l.79,1c2.74,2.25,7.21.46,6.64-2.72-.28-1.54-2.26-2.72-4.13-2.58.85-1.72.08-3.65-2.08-4.35-3.39-1.09-6.36,1.73-4.89,4.35-2.73-.13-4.89,1.88-4.08,4.08s3.91,2.94,6.04,1.57l1.22-1.15c-.17,1.13-.56,2.23-1.72,2.94l-1.22.56h6.49Z"/>
                <path class="cls-4" d="M44.55,67.31l-1.22-.56c-.94-.58-1.35-1.32-1.6-2.24,2.99,2.46,7.72.97,6.7-2.72-.47-1.69-1.69-2.07-3.03-3.13-1.6-1.26-2.95-2.48-4.1-4.05-.84,1.03-1.63,2.11-2.69,3-1.62,1.36-3.84,2.17-4.41,4.19-1.04,3.66,3.71,5.17,6.67,2.7-.12.7-.51,1.35-1.05,1.89l-1.76.91h6.49Z"/>
                <path class="cls-4" d="M69.76,57.81c-.11.01-.15.01-.24-.05-.25-.16-.67-.69-1.04-.95-2.69-1.82-6.4-.59-6.43,2.35-.02,2.13,2.31,3.21,3.91,4.52,1.3,1.06,2.73,2.29,3.57,3.63,1-1,1.9-2.06,3-3,2.1-1.81,5.5-3.2,4.51-6.18s-5.67-2.73-7.26-.32Z"/>
                <polygon class="cls-4" points="97.2 54.81 90.66 61.44 97.08 68.11 103.61 61.37 97.2 54.81"/>
                <path class="cls-4" d="M156.44,67.31l-1.22-.56c-.94-.58-1.35-1.32-1.6-2.24,2.99,2.46,7.72.97,6.7-2.72-.47-1.69-1.69-2.07-3.03-3.13-1.6-1.26-2.95-2.48-4.1-4.05-.84,1.03-1.63,2.11-2.69,3-1.62,1.36-3.84,2.17-4.41,4.19-1.04,3.66,3.71,5.17,6.67,2.7-.12.7-.51,1.35-1.05,1.89l-1.76.91h6.49Z"/>
              </g>
            </g>
          </g>
        </g>
      </g>
      <g class="cls-9">
        <g>
          <path class="cls-4" d="M40.92,57.76c-.33,0-.83-.94-.83-1.37.1-.73,1.16-1.82,1.17-1.93,0-.04-.01-.06-.05-.06-.72,0-3.78,4.19-3.78,5.86,0,.3.32.41.74.41.57,0,1.31-.19,1.78-.36.07-.04.17-.06.26-.06.17,0,.38.16.38.33,0,.07-.05.15-.15.21-.67.37-1.93,1.04-2.95,1.04-1.1,0-1.52-.61-1.52-1.51,0-2.89,3.94-8.57,5.7-8.57.64,0,.94.46,1.21,1.12.17.35.54.57.54,1.03,0,.98-1.69,2.18-2.3,3.67-.05.14-.12.19-.21.19Z"/>
          <path class="cls-4" d="M48.74,51.76c.52,0,1.06.32,1.32.91.69.21,1.24.38,1.24,1.26,0,1.59-2.9,7.82-5.19,7.82-.21,0-.4-.05-.59-.16-1.17-.32-1.64-1.17-1.64-2.26,0-2.34,2.98-7.58,4.87-7.58ZM49.59,54.36c0-.17-.06-.62-.36-.62-1.33,0-3.88,4.49-3.88,6.03,0,.48.16.85.48.85,1.47,0,3.76-5.13,3.76-6.27Z"/>
          <path class="cls-4" d="M55.39,57.7c-.02-.06-.07-.06-.1-.06-.37,0-1.52,2.52-2.36,3.89-.09.19-.19.24-.28.24-.3,0-1.1-.47-1.1-.83.73-1.53,4.13-8.03,4.26-8.57.09-.33.47-.43.74-.43.46,0,1.51.49,1.51,1.03,0,.14-.11.21-.15.32-.94,2.86-1.04,2.99-1.43,5.39.93-2.05,2.26-5.54,2.97-7,.09-.33.47-.43.74-.43.46,0,1.51.49,1.51,1.03,0,.14-.07.23-.15.32-2.56,3.21-4.08,6.48-4.83,8.29-.12.3-.27.41-.44.41-.27,0-.59-.3-.93-.63-.16-.15-.2-.38-.2-.62,0-.47.12-1.5.25-2.35Z"/>
          <path class="cls-4" d="M65.63,57.76c-.33,0-.83-.94-.83-1.37.1-.73,1.16-1.82,1.17-1.93,0-.04-.01-.06-.05-.06-.72,0-3.78,4.19-3.78,5.86,0,.3.32.41.74.41.57,0,1.31-.19,1.78-.36.07-.04.17-.06.26-.06.17,0,.38.16.38.33,0,.07-.05.15-.15.21-.67.37-1.93,1.04-2.95,1.04-1.1,0-1.52-.61-1.52-1.51,0-2.89,3.94-8.57,5.7-8.57.64,0,.94.46,1.21,1.12.17.35.54.57.54,1.03,0,.98-1.69,2.18-2.3,3.67-.05.14-.12.19-.21.19Z"/>
          <path class="cls-4" d="M75.23,51.72c.64,0,1.12.26,1.58.88.67.58.77,1.01.77,1.59,0,1.45-3.13,2.62-4.34,3.6-.05.05-.22.25-.22.46,0,.51.57,2.24,1.14,2.47.14.05.23.1.23.16,0,.21-.66.52-.84.52-1.09,0-1.85-1.73-2.14-2.79-.01-.05-.05-.07-.1-.07-.06,0-.14.04-.19.12-.37.54-.9,1.87-1.52,2.88-.09.19-.19.24-.28.24-.3,0-1.1-.47-1.1-.83.73-1.53,4.09-8.05,4.26-8.57.12-.4.33-.5.57-.5s.49.1.72.1c.4,0,.93-.26,1.46-.26ZM72.29,56.97s.04,0,.05-.01c1-.72,3.15-2.27,3.61-3.14.04-.06.05-.12.05-.17,0-.16-.2-.22-.47-.22-.51,0-1.01.17-1.45.43-.36.49-1.84,2.69-1.84,3.02,0,.06.01.1.05.1Z"/>
          <path class="cls-4" d="M81.26,52.09c.59-.12,4.24-.14,4.77-.14.2,0,.41.07.41.19,0,.06-.06.14-.25.22-.25.12-.28.38-.32.62-.04.21-.07.38-.26.4-.41,0-2.48.04-2.79.35-.31.3-1.48,2.24-1.48,2.4,0,.14.1.2.22.2.25,0,.87,0,.95.01.21.02.41.41.41.74,0,.26-.12.51-.45.54-1.3.15-2.16.42-2.16.42-.17.17-.84,1.35-.84,1.62,0,.11.1.15.31.15.48,0,.9-.11,1.48-.11.1,0,.19,0,.3.01.43.04.75.69.75,1.1,0,.19-.06.31-.21.31-.79,0-2.21.26-2.93.57-.11.05-.2.05-.3.05-.59,0-1.46-.98-1.46-1.32,0-.17.02-.3.17-.56.53-.96,1-1.85,1.41-2.66-.33-.24-.38-.53-.38-.83,0-.14.07-.19.17-.19.14,0,.38.02.69.05.96-2,1.46-3.34,1.48-3.93v-.02c0-.16.2-.16.3-.19Z"/>
          <path class="cls-4" d="M88.31,53.66c-.38.01-.67.01-.87.01-.35,0-1.11-.68-1.11-1.03,0-.04.01-.06.02-.09.2-.35,4.26-.62,7.03-.62,1.22,0,.69.88,1.32.94.31.19.51.27.51.33,0,.04-.12.06-.37.09-.63.07-4.21.1-4.45.37-1.32,1.59-3.03,5.61-4.26,7.76-.09.16-.15.25-.26.25-.21,0-.85-.54-.85-.79,0-.11.04-.24.09-.36.48-1.11,2.29-4.84,3.2-6.87Z"/>
          <path class="cls-4" d="M94.25,52.09c.59-.12,4.24-.14,4.77-.14.2,0,.41.07.41.19,0,.06-.06.14-.25.22-.25.12-.28.38-.32.62-.04.21-.07.38-.26.4-.41,0-2.48.04-2.79.35-.31.3-1.48,2.24-1.48,2.4,0,.14.1.2.22.2.25,0,.87,0,.95.01.21.02.41.41.41.74,0,.26-.12.51-.44.54-1.3.15-2.16.42-2.16.42-.17.17-.84,1.35-.84,1.62,0,.11.1.15.31.15.48,0,.9-.11,1.48-.11.1,0,.19,0,.3.01.43.04.75.69.75,1.1,0,.19-.06.31-.21.31-.79,0-2.21.26-2.93.57-.11.05-.2.05-.3.05-.59,0-1.46-.98-1.46-1.32,0-.17.03-.3.17-.56.53-.96,1-1.85,1.41-2.66-.33-.24-.38-.53-.38-.83,0-.14.07-.19.17-.19.14,0,.38.02.69.05.96-2,1.46-3.34,1.48-3.93v-.02c0-.16.2-.16.3-.19Z"/>
          <path class="cls-4" d="M102.64,60.52c0-.2.04-.38.12-.57,1.19-2.36,3.66-7.12,3.77-7.58.09-.33.47-.43.74-.43.46,0,1.51.49,1.51,1.03,0,.14-.07.24-.15.32-1.08,1.45-3.96,5.76-3.96,6.37,0,.1.1.12.25.12.26,0,1.27.04,1.4.04.36,0,.62.93.62,1.16,0,.09-.03.14-.1.14-.53,0-2.53.16-3.47.66-.33,0-.73-.62-.73-1.25Z"/>
          <path class="cls-4" d="M109.49,60.52c0-.2.04-.38.12-.57,1.19-2.36,3.66-7.12,3.77-7.58.09-.33.47-.43.74-.43.46,0,1.51.49,1.51,1.03,0,.14-.07.24-.15.32-1.08,1.45-3.96,5.76-3.96,6.37,0,.1.1.12.25.12.26,0,1.27.04,1.4.04.36,0,.62.93.62,1.16,0,.09-.03.14-.1.14-.53,0-2.53.16-3.47.66-.33,0-.73-.62-.73-1.25Z"/>
          <path class="cls-4" d="M121.51,57.76c-.33,0-.83-.94-.83-1.37.1-.73,1.16-1.82,1.17-1.93,0-.04-.01-.06-.05-.06-.72,0-3.78,4.19-3.78,5.86,0,.3.32.41.74.41.57,0,1.31-.19,1.78-.36.07-.04.17-.06.26-.06.17,0,.38.16.38.33,0,.07-.05.15-.15.21-.67.37-1.93,1.04-2.95,1.04-1.1,0-1.52-.61-1.52-1.51,0-2.89,3.94-8.57,5.7-8.57.64,0,.94.46,1.21,1.12.17.35.54.57.54,1.03,0,.98-1.69,2.18-2.3,3.67-.05.14-.12.19-.21.19Z"/>
        </g>
        <g id="ALT">
          <g>
            <g id="ICON">
              <path class="cls-2" d="M54.08,48.54c-.06,0-.17-.02-.23-.04-.56-.22-1.08-.5-1.56-.85-1.18-.84-.94-1.38.47-1.11.26.05.54.08.81.08,2.39,0,4.33-1.94,4.33-4.33,0-1.15-.37-2.02-1.17-2.96-2.6-3.04-5.52-5.56-6.97-7.94-.29-.47-.76-.47-1.05,0-1.45,2.38-4.36,4.9-6.97,7.94-.8.94-1.17,1.82-1.17,2.96,0,2.39,1.94,4.33,4.33,4.33.28,0,.55-.03.81-.08,1.42-.27,1.65.27.47,1.11-.48.34-1,.63-1.56.85-.06.02-.16.04-.23.04h-.09"/>
              <path class="cls-4" d="M62.55,47.77l-5.91-22.76c-.07-.25-.34-.46-.6-.46h-13.35c-.26,0-.53.21-.6.46l-5.91,22.76c-.11.43.16.77.6.77h7.64c.06,0,.17-.02.23-.04.56-.22,1.08-.5,1.56-.85,1.18-.84.94-1.38-.47-1.11-.26.05-.54.08-.81.08-2.39,0-4.33-1.94-4.33-4.33,0-1.15.37-2.02,1.17-2.96,2.6-3.04,5.52-5.56,6.97-7.94.29-.47.76-.47,1.05,0,1.45,2.38,4.36,4.9,6.97,7.94.8.94,1.17,1.82,1.17,2.96,0,2.39-1.94,4.33-4.33,4.33-.28,0-.55-.03-.81-.08-1.42-.27-1.65.27-.47,1.11.48.34,1,.63,1.56.85.06.02.16.04.23.04h7.87c.44,0,.71-.35.6-.77Z"/>
            </g>
            <g class="cls-10">
              <g>
                <path class="cls-11" d="M92.29,30.37h9.8c.25,0,.46-.21.46-.46v-4.85c0-.25-.21-.46-.46-.46h-18.82c.18.15.36.32.52.51.78.89,1.17,2.01,1.17,3.34v6.15c0,.74-.6,1.34-1.34,1.34h-1.71v1.25h1.71c.74,0,1.34.6,1.34,1.34v6.15c0,1.3-.39,2.42-1.17,3.31-.17.2-.35.37-.54.53h18.84c.25,0,.46-.21.46-.46v-4.85c0-.25-.21-.46-.46-.46h-9.8c-.25,0-.46-.21-.46-.46v-2.85c0-.25.21-.46.46-.46h8.39c.25,0,.46-.21.46-.46v-4.52c0-.25-.21-.46-.46-.46h-8.39c-.25,0-.46-.21-.46-.46v-2.21c0-.25.21-.46.46-.46Z"/>
                <path class="cls-3" d="M74.69,35.05h8.93c.25,0,.46-.21.46-.46v-6.15c0-1.11-.32-2.03-.95-2.76-.63-.72-1.44-1.09-2.42-1.09h-17.17c-.98,0-1.79.36-2.42,1.09-.63.72-.95,1.64-.95,2.76v6.87l3.17,12.21c.09.34.06.68-.06.98.09,0,.17.01.26.01h17.17c.98,0,1.79-.37,2.42-1.1.63-.73.95-1.65.95-2.74v-6.15c0-.25-.21-.46-.46-.46h-8.93c-.25,0-.46.21-.46.46v2.88c0,.62-.18,1.06-.53,1.32-.36.26-.85.38-1.47.38s-1.12-.13-1.5-.4c-.38-.27-.57-.71-.57-1.34v-9.69c0-.62.18-1.06.53-1.32.36-.26.85-.38,1.47-.38s1.15.13,1.52.4c.37.27.55.71.55,1.34v2.88c0,.25.21.46.46.46Z"/>
                <path class="cls-6" d="M114.8,32.14h8.93c.25,0,.46-.21.46-.46v-3.25c0-1.11-.32-2.03-.95-2.76-.63-.72-1.44-1.09-2.42-1.09h-16.7c-.26,0-.51.03-.74.08.04.12.06.25.06.39v4.85c0,.74-.6,1.34-1.34,1.34h-1.35v1.39c.71.03,1.29.62,1.29,1.34v3.97c.57.5,1.28.83,2.12.98l8.32,1.3c.71.11,1.2.31,1.45.58.26.28.38.71.38,1.29,0,.49-.12.9-.37,1.24-.25.33-.72.5-1.44.5s-1.18-.17-1.47-.5c-.29-.33-.43-.79-.43-1.37v-.54c0-.25-.21-.46-.46-.46h-8.96c-.25,0-.46.21-.46.46v.43h1.38c.74,0,1.34.6,1.34,1.34v4.85c0,.14-.02.27-.06.39.23.05.46.07.71.07h16.74c.98,0,1.79-.37,2.42-1.1.63-.73.95-1.65.95-2.74v-6.45c0-1.25-.31-2.25-.92-3.01-.61-.76-1.44-1.21-2.49-1.37l-8.32-1.3c-.74-.11-1.22-.29-1.47-.55-.25-.26-.37-.63-.37-1.12s.13-.85.38-1.15c.26-.3.73-.45,1.42-.45s1.21.17,1.49.5c.28.33.42.79.42,1.37v.54c0,.25.21.46.46.46Z"/>
              </g>
              <path class="cls-1" d="M79.84,25.02h16.28v5.78h-16.28v-5.78ZM106.56,15.71h17.05c.85,0,1.53.63,1.53,1.41v6.48h-18.58v-7.9ZM88.74,15.71h16.28v7.9h-16.28v-7.9ZM70.93,15.71h16.28v7.9h-16.28v-7.9ZM59.72,23.6v-6.48c0-.78.69-1.41,1.53-1.41h8.14v7.9h-9.67ZM59.72,30.79v-5.78h18.58v5.78h-18.58ZM70.93,32.21h16.28v5.78h-16.28v-5.78ZM59.72,37.98v-5.78h9.67v5.78h-9.67ZM79.84,39.4h16.28v5.78h-16.28v-5.78ZM59.72,45.17v-5.78h18.58v5.78h-18.58ZM107.57,46.59h17.56-17.56ZM90.03,46.59h13.82-13.82ZM69.4,46.59h16.33-26v6.48c0,.78.69,1.41,1.53,1.41h8.14v-7.9ZM87.2,46.59v7.9h-16.28v-7.9h16.28ZM105.01,46.59v7.9h-16.28v-7.9h16.28ZM125.14,46.59v6.48c0,.78-.69,1.41-1.53,1.41h-17.06v-7.9h18.59ZM113.93,45.17h-16.28v-5.78h16.28v5.78ZM125.14,39.4v5.78h-9.67v-5.78h9.67ZM105.02,37.98h-16.28v-5.78h16.28v5.78ZM125.14,32.21v5.78h-18.58v-5.78h18.58ZM113.92,30.79h-16.27v-5.78h16.27v5.78ZM125.14,25.02v5.78h-9.68v-5.78h9.68Z"/>
            </g>
          </g>
        </g>
      </g>
    </g>
  </g>
</svg>