<?xml version="1.0" encoding="UTF-8"?>
<svg id="Layer_2" data-name="Layer 2" xmlns="http://www.w3.org/2000/svg" xmlns:xlink="http://www.w3.org/1999/xlink" viewBox="0 0 160 90">
  <defs>
    <style>
      .cls-1 {
        fill: #683c02;
      }

      .cls-2 {
        fill: none;
      }

      .cls-3 {
        fill: #7f4b00;
      }

      .cls-4 {
        fill: #5f3e0e;
      }

      .cls-5 {
        clip-path: url(#clippath-1);
      }

      .cls-6 {
        filter: url(#drop-shadow-1);
      }

      .cls-7 {
        fill: #352202;
      }

      .cls-8 {
        fill: #914e06;
      }

      .cls-9 {
        fill: #ffa70b;
      }

      .cls-10 {
        clip-path: url(#clippath);
      }

      .cls-11 {
        fill: #f9efd4;
      }

      .cls-12 {
        opacity: .22;
      }
    </style>
    <clipPath id="clippath">
      <rect class="cls-2" width="160" height="90"/>
    </clipPath>
    <filter id="drop-shadow-1" x="22.72" y="18.25" width="115.1" height="56.21" filterUnits="userSpaceOnUse">
      <feOffset dx=".7" dy=".7"/>
      <feGaussianBlur result="blur" stdDeviation=".5"/>
      <feFlood flood-color="#000" flood-opacity=".75"/>
      <feComposite in2="blur" operator="in"/>
      <feComposite in="SourceGraphic"/>
    </filter>
    <clipPath id="clippath-1">
      <path class="cls-2" d="M125.93,55.81c-30.54-3.26-61.33-3.26-91.87,0-.88.09-1.68-.54-1.78-1.42-.69-6.26-1.38-12.52-2.07-18.77-.1-.88.58-1.68,1.51-1.78,32.09-3.42,64.46-3.42,96.56,0,.93.1,1.6.9,1.51,1.78-.69,6.26-1.38,12.52-2.07,18.77-.1.88-.89,1.52-1.78,1.42Z"/>
    </clipPath>
  </defs>
  <g id="Background">
    <g id="Burro_s_Framing" data-name="Burro&amp;apos;s Framing">
      <g class="cls-10">
        <rect class="cls-8" x="0" width="160" height="90"/>
        <g class="cls-12">
          <rect class="cls-1" x="75.72" y="-22.41" width="3.38" height="142.5"/>
          <rect class="cls-1" x="46.3" y="-22.41" width="3.38" height="142.5"/>
          <rect class="cls-1" x="16.88" y="-22.41" width="3.38" height="142.5"/>
          <rect class="cls-1" x="134.56" y="-22.41" width="3.38" height="142.5"/>
          <rect class="cls-1" x="105.14" y="-22.41" width="3.38" height="142.5"/>
          <rect class="cls-1" x="69.84" y="-22.41" width="3.38" height="142.5"/>
          <rect class="cls-1" x="40.41" y="-22.41" width="3.38" height="142.5"/>
          <rect class="cls-1" x="158.1" y="-22.41" width="3.38" height="142.5"/>
          <rect class="cls-1" x="10.99" y="-22.41" width="3.38" height="142.5"/>
          <rect class="cls-1" x="128.68" y="-22.41" width="3.38" height="142.5"/>
          <rect class="cls-1" x="99.26" y="-22.41" width="3.38" height="142.5"/>
          <rect class="cls-1" x="63.95" y="-22.41" width="3.38" height="142.5"/>
          <rect class="cls-1" x="34.53" y="-22.41" width="3.38" height="142.5"/>
          <rect class="cls-1" x="152.21" y="-22.41" width="3.38" height="142.5"/>
          <rect class="cls-1" x="5.11" y="-22.41" width="3.38" height="142.5"/>
          <rect class="cls-1" x="122.79" y="-22.41" width="3.38" height="142.5"/>
          <rect class="cls-1" x="93.37" y="-22.41" width="3.38" height="142.5"/>
          <rect class="cls-1" x="58.07" y="-22.41" width="3.38" height="142.5"/>
          <rect class="cls-1" x="28.65" y="-22.41" width="3.38" height="142.5"/>
          <rect class="cls-1" x="146.33" y="-22.41" width="3.38" height="142.5"/>
          <rect class="cls-1" x="-.77" y="-22.41" width="3.38" height="142.5"/>
          <rect class="cls-1" x="116.91" y="-22.41" width="3.38" height="142.5"/>
          <rect class="cls-1" x="87.49" y="-22.41" width="3.38" height="142.5"/>
          <rect class="cls-1" x="52.18" y="-22.41" width="3.38" height="142.5"/>
          <rect class="cls-1" x="22.76" y="-22.41" width="3.38" height="142.5"/>
          <rect class="cls-1" x="140.45" y="-22.41" width="3.38" height="142.5"/>
          <rect class="cls-1" x="111.02" y="-22.41" width="3.38" height="142.5"/>
          <rect class="cls-1" x="81.6" y="-22.41" width="3.38" height="142.5"/>
        </g>
      </g>
      <g id="Text_Logo" data-name="Text Logo" class="cls-6">
        <g>
          <g>
            <path class="cls-7" d="M131.37,32.92c-.7-.87-1.7-1.42-2.83-1.54-16.06-1.71-32.39-2.58-48.54-2.58h0c-16.15,0-32.48.87-48.54,2.58-1.12.12-2.13.67-2.83,1.54-.68.85-.99,1.9-.87,2.97l1.04,9.39,1.04,9.39c.23,2.07,1.97,3.63,4.06,3.63.14,0,.29,0,.44-.02,15.11-1.61,30.48-2.43,45.67-2.43s30.56.82,45.67,2.43c.14.02.29.02.44.02,2.08,0,3.83-1.56,4.06-3.63l.71-6.47,1.36-12.3c.12-1.07-.19-2.12-.87-2.97Z"/>
            <path class="cls-8" d="M130.89,33.3c-.6-.74-1.45-1.21-2.41-1.31-16.04-1.71-32.35-2.58-48.47-2.58h0c-16.13,0-32.44.87-48.47,2.58-.96.1-1.82.57-2.41,1.31-.58.72-.84,1.61-.74,2.51l1.04,9.39,1.04,9.39c.2,1.76,1.68,3.08,3.44,3.08.12,0,.25,0,.37-.02,15.13-1.61,30.52-2.43,45.74-2.43s30.61.82,45.74,2.43c.12.01.25.02.37.02,1.77,0,3.25-1.32,3.44-3.08l.71-6.47,1.36-12.3c.1-.9-.16-1.8-.74-2.51Z"/>
            <path class="cls-9" d="M130.41,33.69c-.49-.61-1.2-1-2-1.08-16.02-1.71-32.3-2.57-48.41-2.57h0c-16.11,0-32.39.87-48.41,2.57-.79.08-1.5.47-2,1.08-.47.59-.69,1.32-.61,2.06l1.04,9.39,1.04,9.39c.16,1.44,1.38,2.53,2.83,2.53.1,0,.2,0,.3-.02,15.15-1.62,30.56-2.44,45.8-2.44s30.65.82,45.8,2.44c.1.01.2.02.3.02,1.45,0,2.67-1.09,2.83-2.53l.71-6.47,1.36-12.3c.08-.74-.13-1.47-.61-2.06Z"/>
            <path class="cls-7" d="M129.92,34.08c-.39-.48-.95-.79-1.58-.86-15.99-1.71-32.26-2.57-48.34-2.57h0c-16.08,0-32.35.86-48.34,2.57-.63.07-1.19.37-1.58.86-.37.46-.54,1.03-.47,1.6l1.04,9.39,1.04,9.39c.13,1.13,1.08,1.98,2.22,1.98.08,0,.16,0,.24-.01,15.18-1.62,30.61-2.44,45.87-2.44s30.69.82,45.87,2.44c.08,0,.16.01.24.01,1.14,0,2.09-.85,2.22-1.98l.71-6.47,1.36-12.3c.06-.58-.1-1.15-.47-1.6Z"/>
            <path class="cls-8" d="M125.93,55.81c-30.54-3.26-61.33-3.26-91.87,0-.88.09-1.68-.54-1.78-1.42-.69-6.26-1.38-12.52-2.07-18.77-.1-.88.58-1.68,1.51-1.78,32.09-3.42,64.46-3.42,96.56,0,.93.1,1.6.9,1.51,1.78-.69,6.26-1.38,12.52-2.07,18.77-.1.88-.89,1.52-1.78,1.42Z"/>
            <g class="cls-5">
              <g>
                <path class="cls-3" d="M101.43,71.88c-.96-.04-1.91-.08-2.87-.12.69-17.7,1.37-35.41,2.06-53.11,1.06.04,2.13.09,3.19.13-.79,17.7-1.59,35.4-2.38,53.1Z"/>
                <path class="cls-3" d="M105.8,72.17c-.96-.05-1.91-.1-2.87-.15.85-17.7,1.7-35.4,2.55-53.09,1.06.05,2.13.11,3.19.16-.96,17.69-1.92,35.38-2.88,53.08Z"/>
                <path class="cls-3" d="M110.17,72.57c-.95-.06-1.91-.12-2.86-.17,1.02-17.69,2.03-35.38,3.05-53.07,1.06.06,2.13.12,3.19.19-1.12,17.68-2.25,35.36-3.37,53.05Z"/>
                <path class="cls-3" d="M114.54,72.87c-.96-.07-1.91-.14-2.86-.2,1.18-17.68,2.36-35.36,3.54-53.04,1.06.07,2.12.15,3.19.22-1.29,17.67-2.58,35.34-3.86,53.01Z"/>
                <path class="cls-3" d="M83.91,71.42c-.96,0-1.91-.01-2.87-.01.03-17.72.06-35.44.08-53.15,1.06,0,2.13,0,3.19.01-.14,17.72-.27,35.43-.41,53.15Z"/>
                <path class="cls-3" d="M88.29,71.55c-.96-.02-1.91-.03-2.87-.04.19-17.72.39-35.43.58-53.15,1.06.01,2.13.03,3.19.04-.3,17.72-.6,35.43-.9,53.15Z"/>
                <path class="cls-3" d="M92.67,71.78c-.96-.03-1.91-.05-2.87-.07.36-17.71.71-35.43,1.07-53.14,1.06.02,2.13.05,3.19.07-.47,17.71-.93,35.42-1.4,53.14Z"/>
                <path class="cls-3" d="M97.04,71.92c-.96-.03-1.91-.07-2.87-.09.52-17.71,1.04-35.42,1.57-53.13,1.06.03,2.13.07,3.19.1-.63,17.71-1.26,35.41-1.89,53.12Z"/>
                <path class="cls-3" d="M66.39,71.61c-.96.03-1.91.06-2.87.09-.63-17.71-1.26-35.41-1.89-53.12,1.06-.04,2.13-.07,3.19-.1.52,17.71,1.04,35.42,1.57,53.13Z"/>
                <path class="cls-3" d="M70.77,71.57c-.96.02-1.91.04-2.87.07-.47-17.71-.93-35.42-1.4-53.14,1.06-.03,2.13-.05,3.19-.07.36,17.71.71,35.43,1.07,53.14Z"/>
                <path class="cls-3" d="M75.15,71.65c-.96.01-1.91.02-2.87.04-.3-17.72-.6-35.43-.9-53.15,1.06-.02,2.13-.03,3.19-.04.19,17.72.39,35.43.58,53.15Z"/>
                <path class="cls-3" d="M79.53,71.62c-.96,0-1.91,0-2.87.01-.14-17.72-.27-35.43-.41-53.15,1.06,0,2.13-.01,3.19-.01.03,17.72.06,35.44.08,53.15Z"/>
                <path class="cls-3" d="M48.89,72.45c-.96.06-1.91.13-2.87.2-1.29-17.67-2.58-35.34-3.86-53.01,1.06-.08,2.13-.15,3.19-.22,1.18,17.68,2.36,35.36,3.54,53.04Z"/>
                <path class="cls-3" d="M53.27,72.25c-.96.05-1.91.11-2.87.17-1.12-17.68-2.25-35.36-3.37-53.05,1.06-.07,2.13-.13,3.19-.19,1.02,17.69,2.03,35.38,3.05,53.07Z"/>
                <path class="cls-3" d="M57.65,72.16c-.96.05-1.91.09-2.87.15-.96-17.69-1.92-35.38-2.88-53.08,1.06-.06,2.13-.11,3.19-.16.85,17.7,1.7,35.4,2.55,53.09Z"/>
                <path class="cls-3" d="M62.02,71.97c-.96.04-1.91.08-2.87.12-.8-17.7-1.59-35.4-2.38-53.1,1.06-.05,2.13-.09,3.19-.13.69,17.7,1.37,35.41,2.06,53.11Z"/>
                <path class="cls-3" d="M118.92,72.99c-.95-.08-1.91-.15-2.86-.23,1.34-17.67,2.69-35.33,4.03-53,1.06.08,2.12.16,3.19.25-1.45,17.66-2.9,35.32-4.36,52.98Z"/>
                <path class="cls-3" d="M123.29,73.44c-.95-.09-1.91-.17-2.86-.25,1.51-17.65,3.02-35.31,4.53-52.96,1.06.09,2.12.18,3.18.28-1.62,17.64-3.23,35.29-4.85,52.93Z"/>
                <path class="cls-3" d="M127.64,74c-.95-.1-1.91-.19-2.86-.28,1.67-17.64,3.35-35.28,5.02-52.92,1.06.1,2.12.2,3.18.31-1.78,17.63-3.56,35.26-5.34,52.89Z"/>
                <path class="cls-3" d="M132,74.46c-.95-.1-1.9-.21-2.86-.31,1.84-17.62,3.67-35.24,5.51-52.87,1.06.11,2.12.22,3.18.34-1.94,17.61-3.89,35.22-5.83,52.83Z"/>
                <path class="cls-3" d="M31.42,73.95c-.95.1-1.91.2-2.86.31-1.94-17.61-3.89-35.22-5.83-52.83,1.06-.12,2.12-.23,3.18-.34,1.84,17.62,3.67,35.24,5.51,52.87Z"/>
                <path class="cls-3" d="M35.79,73.58c-.95.09-1.91.18-2.86.28-1.78-17.63-3.56-35.26-5.34-52.88,1.06-.11,2.12-.21,3.18-.31,1.67,17.64,3.35,35.28,5.02,52.92Z"/>
                <path class="cls-3" d="M40.16,73.33c-.95.08-1.91.17-2.86.25-1.62-17.64-3.23-35.29-4.85-52.93,1.06-.1,2.12-.19,3.18-.28,1.51,17.65,3.02,35.31,4.53,52.96Z"/>
                <path class="cls-3" d="M44.53,72.98c-.95.07-1.91.15-2.86.23-1.45-17.66-2.9-35.32-4.36-52.98,1.06-.09,2.12-.17,3.19-.25,1.34,17.67,2.69,35.33,4.03,53Z"/>
              </g>
            </g>
          </g>
          <g>
            <path class="cls-8" d="M124.27,39.93c-.06-.08-.12-.16-.19-.23-.01-.66-.21-1.25-.58-1.76-.49-.67-1.2-1.07-2.05-1.16-2.94-.3-5.92-.57-8.86-.81-.09,0-.18-.01-.26-.01-.48,0-.93.11-1.33.32-.02-.1-.07-.19-.13-.26-.11-.12-.26-.2-.42-.21-.18-.01-.36-.03-.55-.04-1.61-.12-3.24-.23-4.85-.33-.18-.01-.37-.02-.55-.03-.01,0-.03,0-.04,0-.28,0-.51.18-.59.44-.45-.34-.99-.53-1.59-.57-3.06-.17-6.16-.3-9.22-.4-.04,0-.07,0-.11,0-.81,0-1.53.3-2.08.88-.04.05-.09.09-.13.14-.04-.05-.08-.1-.12-.15-.54-.63-1.28-.97-2.13-.99-2.74-.06-5.52-.08-8.26-.08-.86,0-1.73,0-2.59,0-.18,0-.37,0-.55,0-.16,0-.32.07-.43.18-.1.1-.16.23-.17.36-.48-.34-1.05-.52-1.68-.52-.02,0-.03,0-.05,0-3.6.05-7.25.15-10.84.29-.18,0-.37.01-.55.02-.02,0-.04,0-.06,0-.01,0-.03,0-.04,0,0,0-.02,0-.03,0-.18,0-.37.02-.55.02-1.65.07-3.33.15-4.97.25-.18.01-.37.02-.55.03-.34.02-.6.31-.58.65l.02.27v.26s.07.93.07.93c0,0,0,0-.01,0v-.16s-.06-.77-.06-.77l-.03-.53c-.02-.33-.29-.58-.62-.58-.01,0-.02,0-.04,0-.18.01-.37.02-.55.03-1.76.11-3.55.23-5.31.36-.18.01-.36.03-.55.04-.16.01-.31.09-.42.21-.08.09-.12.2-.14.31-.41-.24-.87-.36-1.36-.36-.08,0-.16,0-.25.01-3.65.3-7.35.65-10.99,1.05-.18.02-.36.04-.55.06-.34.04-.58.34-.55.68l.03.25.03.28,1.34,12.17.06.52c.03.32.3.55.61.55.02,0,.05,0,.07,0,.18-.02.35-.04.53-.06.24-.03.49-.05.73-.08l.04.4c.03.32.3.55.61.55.02,0,.04,0,.07,0,3.53-.37,7.11-.7,10.65-.98.63-.05,1.16-.34,1.53-.84.12-.16.21-.33.29-.5.14.04.29.07.43.09.07.1.16.19.24.28.44.44.97.66,1.59.66.06,0,.11,0,.17,0,2.88-.19,5.81-.36,8.69-.48.68-.03,1.25-.32,1.67-.85.06-.08.12-.16.17-.25.13,0,.27-.01.4-.01v.4c.03.33.3.59.63.59,0,0,.02,0,.02,0,1.68-.06,3.38-.11,5.06-.15.16,0,.32-.07.43-.19.11-.12.17-.28.17-.44v-.4c.16,0,.32,0,.49,0,0,0,0,.02,0,.03.07.19.14.38.21.57.09.24.32.41.58.41,0,0,0,0,.01,0,1.76-.03,3.55-.06,5.32-.06.18,0,.35-.08.46-.21.11.13.28.21.46.21h0c.38,0,.76,0,1.14,0,1.3,0,2.62,0,3.92.02,0,0,0,0,0,0,.34,0,.61-.27.62-.61v-.4c.17,0,.33,0,.5,0,0,0,0,.02,0,.03.06.19.13.38.19.57.08.25.31.42.58.43,1.76.03,3.55.07,5.32.12,0,0,.01,0,.02,0,.2,0,.38-.09.5-.25.12-.16.15-.38.09-.57-.03-.09-.06-.18-.1-.28.05.01.1.03.15.04.06.11.13.21.21.31.42.52,1,.81,1.68.83,2.94.1,5.93.24,8.87.41.05,0,.1,0,.15,0,.62,0,1.16-.23,1.6-.68.45-.46.71-1.06.75-1.76l.3-4.73c.11-.04.21-.08.32-.11.1.26.21.52.31.78.1.24.33.39.57.39.07,0,.14-.01.2-.03.83-.29,1.67-.58,2.5-.87.05.09.1.19.16.27,0,0-.02,0-.03,0-.02,0-.03,0-.05,0-.32,0-.59.25-.61.57l-.02.25-.02.27-.14,1.89c-.06.84.14,1.58.61,2.2.38.51.87.85,1.45,1.02.06.11.12.21.2.32.4.54.96.86,1.64.91,2.84.24,5.71.51,8.54.81.09,0,.18.01.26.01.58,0,1.09-.2,1.52-.6.48-.44.76-1.02.83-1.73l.36-3.28c.09-.78-.05-1.45-.41-1.99-.07-.11-.15-.21-.23-.3,0-.1-.01-.2-.02-.29.11.01.22.02.32.04.02,0,.05,0,.07,0,.31,0,.58-.23.61-.55l.03-.29.18-1.6c.08-.72-.07-1.36-.46-1.89Z"/>
            <g>
              <g>
                <path class="cls-7" d="M49.48,44.55c0-.06,0-.11-.01-.17.46-.07.81-.27,1.06-.61.25-.34.35-.8.31-1.38-.05-.61-.09-1.23-.14-1.84,0-.11-.02-.22-.02-.32-.04-.5-.22-.91-.54-1.22-.32-.31-.72-.45-1.19-.41-3.64.28-7.28.62-10.92,1,.43,4.06.86,8.12,1.28,12.18,3.55-.37,7.11-.7,10.67-.98.46-.04.82-.23,1.08-.59.27-.36.38-.79.34-1.3-.06-.84-.12-1.68-.19-2.52-.04-.6-.22-1.06-.54-1.37-.31-.31-.72-.46-1.2-.46Z"/>
                <path class="cls-7" d="M59.67,46.13c.02.4-.07.69-.26.87-.19.18-.46.28-.81.3-.36.02-.64-.05-.86-.22-.22-.16-.34-.45-.36-.84-.16-2.73-.32-5.46-.48-8.19-1.76.1-3.52.22-5.27.34.24,3.42.49,6.83.73,10.25.04.56.24,1.01.59,1.36.35.35.78.51,1.28.48,2.9-.19,5.8-.36,8.71-.48.5-.02.91-.23,1.22-.62.31-.39.45-.86.43-1.42-.14-3.42-.27-6.85-.41-10.27-1.65.07-3.3.14-4.94.23.14,2.74.29,5.48.43,8.21Z"/>
                <path class="cls-7" d="M77.51,45.45c.33-.38.49-.85.49-1.41,0-1.57-.02-3.14-.03-4.7,0-.57-.17-1.04-.51-1.41-.34-.37-.77-.55-1.28-.54-3.59.04-7.18.12-10.77.25.15,4.08.3,8.16.45,12.24,1.69-.06,3.38-.11,5.07-.15-.03-1.2-.06-2.4-.09-3.61.22,0,.45-.01.67-.02.44,1.19.88,2.39,1.31,3.58,1.78-.03,3.55-.06,5.33-.06-.47-1.22-.94-2.44-1.42-3.66.3-.09.56-.25.78-.51Z"/>
                <path class="cls-7" d="M90.87,45.58c.34-.37.52-.83.53-1.39.04-1.57.09-3.13.13-4.7.02-.57-.14-1.04-.46-1.42-.32-.38-.75-.58-1.27-.59-3.59-.09-7.18-.12-10.77-.11.01,4.08.02,8.16.04,12.24,1.69,0,3.38,0,5.07.02.01-1.2.02-2.41.04-3.61.22,0,.45,0,.67,0,.4,1.21.8,2.42,1.19,3.62,1.78.03,3.55.07,5.33.12-.43-1.24-.86-2.47-1.3-3.71.3-.08.57-.23.8-.48Z"/>
                <path class="cls-7" d="M103.51,38.04c-3.05-.18-6.11-.32-9.16-.43-.52-.02-.95.15-1.3.51-.35.36-.53.82-.55,1.39-.09,2.77-.17,5.54-.26,8.31-.02.56.13,1.03.45,1.42.31.39.72.59,1.22.61,2.96.1,5.92.24,8.88.41.5.03.93-.13,1.27-.49.35-.36.54-.81.58-1.37.17-2.76.35-5.53.52-8.29.04-.57-.1-1.05-.41-1.44-.31-.39-.73-.6-1.24-.63Z"/>
                <path class="cls-7" d="M106.05,41.46c.89.06,1.77.12,2.66.18-.87.27-1.75.54-2.62.82.23.57.45,1.14.67,1.71.86-.3,1.73-.6,2.6-.9.5-.17.87-.4,1.09-.69.23-.29.35-.62.38-.98.08-1.01.16-2.02.23-3.04-1.6-.12-3.21-.24-4.81-.34-.07,1.08-.14,2.16-.21,3.24Z"/>
                <path class="cls-7" d="M123.91,43.64c.07-.63.14-1.26.21-1.89.06-.57-.05-1.05-.35-1.46-.29-.4-.7-.63-1.21-.69-2.93-.31-5.87-.59-8.8-.83-.52-.04-.96.11-1.32.45-.36.34-.57.8-.61,1.37-.09,1.08-.17,2.16-.26,3.24-.05.6.08,1.1.37,1.48.29.38.7.64,1.23.78,1.42.34,2.83.69,4.24,1.05.36.09.6.22.72.37.12.15.16.38.13.67-.02.25-.11.45-.25.61-.14.16-.4.22-.76.18-.36-.03-.6-.14-.73-.33-.13-.18-.19-.42-.16-.72.02-.17.03-.34.05-.51-1.7-.16-3.4-.3-5.11-.44-.05.63-.1,1.26-.15,1.89-.04.56.08,1.04.38,1.44.3.4.69.62,1.19.66,2.85.24,5.7.51,8.55.81.5.05.93-.09,1.3-.43.37-.34.58-.79.64-1.34.12-1.09.24-2.19.36-3.28.07-.63-.03-1.16-.31-1.58-.28-.42-.68-.7-1.22-.84-1.42-.37-2.84-.74-4.27-1.1-.38-.09-.63-.21-.74-.35-.12-.14-.16-.34-.14-.59.02-.24.11-.43.26-.57.15-.14.4-.19.77-.16.37.04.62.15.75.33.13.18.18.42.15.72-.02.17-.03.34-.05.51,1.71.17,3.43.34,5.14.53Z"/>
              </g>
              <g>
                <g>
                  <path class="cls-11" d="M37.56,50.66c-.46-4.23-.93-8.46-1.39-12.7,3.74-.41,7.49-.77,11.24-1.07.55-.05,1.03.12,1.41.48.37.36.58.82.63,1.39.06.72.11,1.44.17,2.17.05.64-.07,1.16-.36,1.55-.15.2-.33.36-.54.48.25.09.47.23.67.41.36.35.57.87.62,1.53.06.84.13,1.68.19,2.52.04.57-.09,1.07-.39,1.48-.31.42-.74.66-1.28.7-3.66.3-7.31.65-10.97,1.05ZM44.05,46.95c.2-.02.24-.1.26-.18.06-.19.07-.45.04-.78-.03-.34-.09-.59-.18-.76-.04-.07-.1-.14-.3-.12-.4.04-.79.07-1.19.11.06.61.12,1.23.18,1.84.39-.04.79-.07,1.18-.11ZM43.56,41.95c.13-.01.2-.06.24-.17.07-.17.09-.4.06-.69-.03-.38-.12-.58-.18-.68-.04-.07-.11-.13-.27-.11-.39.04-.78.07-1.17.11.05.55.1,1.1.16,1.65.39-.04.78-.07,1.16-.11Z"/>
                  <path class="cls-7" d="M47.43,37.16c.47-.04.87.1,1.2.41.33.31.51.72.55,1.22,0,.11.02.22.03.32.05.61.1,1.23.14,1.84.04.58-.06,1.04-.31,1.38-.25.34-.6.55-1.07.62,0,.06,0,.11.01.17.49,0,.89.15,1.21.45.32.31.5.76.54,1.36.06.84.13,1.68.19,2.52.04.51-.07.95-.34,1.3-.27.36-.63.56-1.08.59-3.57.29-7.14.63-10.71,1.02-.44-4.06-.88-8.11-1.33-12.17,3.65-.4,7.3-.75,10.96-1.04M42.15,42.35c.48-.05.95-.09,1.43-.13.23-.02.39-.14.47-.34.08-.21.11-.48.08-.81-.03-.35-.11-.62-.22-.8-.12-.18-.29-.26-.53-.24-.48.04-.96.09-1.44.14.07.73.14,1.45.21,2.18M42.63,47.35c.48-.05.97-.09,1.45-.14.26-.02.43-.15.5-.37.07-.22.08-.52.05-.88-.03-.37-.1-.66-.21-.86-.11-.2-.29-.28-.56-.26-.49.04-.97.09-1.46.14.08.79.15,1.58.23,2.37M47.39,36.63c-3.66.3-7.32.65-10.97,1.04-.18.02-.36.04-.55.06.02.17.04.35.06.52.45,4.06.9,8.11,1.34,12.17.02.17.04.35.06.52.18-.02.35-.04.53-.06,3.56-.39,7.13-.73,10.7-1.02.61-.05,1.11-.33,1.47-.81.34-.46.49-1.02.44-1.66-.06-.84-.13-1.68-.19-2.52-.06-.73-.29-1.3-.7-1.7-.11-.11-.23-.2-.35-.28.09-.09.17-.18.25-.28.32-.44.46-1.02.41-1.73-.05-.61-.09-1.23-.14-1.84,0-.11-.02-.22-.02-.32-.05-.63-.28-1.15-.71-1.55-.44-.42-1-.61-1.63-.56t0,0ZM42.53,40.64c.3-.03.6-.06.9-.08,0,0,.02,0,.02,0,.04.06.11.22.14.56.03.31,0,.48-.04.57,0,0,0,0,0,0,0,0,0,0-.01,0-.3.03-.6.06-.89.08-.04-.38-.07-.75-.11-1.13h0ZM42.99,45.46c.31-.03.61-.06.92-.09.02,0,.03,0,.04,0,.04.09.11.28.14.64.03.36,0,.56-.03.67,0,0-.02,0-.04,0-.31.03-.61.06-.92.09-.04-.44-.08-.88-.12-1.32t0,0Z"/>
                </g>
                <g>
                  <path class="cls-11" d="M52.8,49.29c-.58.04-1.08-.14-1.49-.55-.4-.4-.63-.91-.67-1.53-.26-3.5-.53-7.01-.79-10.51,1.95-.15,3.89-.28,5.84-.4.17,2.82.34,5.64.51,8.46.02.32.11.53.26.65.17.13.39.18.69.16.28-.02.49-.09.64-.23.13-.13.19-.35.17-.67-.16-2.83-.32-5.65-.48-8.48,1.84-.1,3.67-.19,5.51-.27.15,3.51.3,7.02.45,10.53.03.62-.14,1.16-.49,1.6-.36.45-.83.69-1.42.72-2.91.14-5.82.31-8.73.52Z"/>
                  <path class="cls-7" d="M62.73,36.2c.15,3.42.3,6.85.45,10.27.02.56-.12,1.03-.43,1.42-.31.39-.72.6-1.22.62-2.91.14-5.83.31-8.74.52-.5.04-.93-.12-1.29-.47-.35-.35-.55-.8-.59-1.36-.26-3.42-.51-6.83-.77-10.25,1.76-.13,3.53-.25,5.29-.36.17,2.73.34,5.46.5,8.19.02.4.15.68.36.84.22.16.51.23.86.21.35-.02.61-.12.81-.3.19-.18.28-.47.26-.87-.15-2.74-.31-5.48-.46-8.21,1.65-.09,3.31-.17,4.96-.25M63.25,35.65c-.18,0-.36.02-.55.02-1.66.07-3.31.15-4.97.25-.18.01-.36.02-.55.03.01.18.02.35.03.53.16,2.74.31,5.47.47,8.21.01.23-.02.39-.09.46-.1.09-.25.14-.47.16-.22.01-.4-.02-.51-.11-.09-.06-.14-.23-.15-.46-.16-2.73-.33-5.46-.49-8.19l-.03-.53c-.18.01-.36.02-.55.03-1.77.11-3.53.23-5.3.36-.18.01-.36.03-.55.04.01.18.03.35.04.53.26,3.42.52,6.83.78,10.25.05.68.31,1.25.75,1.7.47.46,1.04.67,1.7.63,2.91-.2,5.82-.38,8.73-.52.66-.03,1.2-.31,1.61-.82.39-.49.57-1.09.55-1.77-.14-3.42-.29-6.85-.43-10.27,0-.18-.01-.35-.02-.53t0,0Z"/>
                </g>
                <g>
                  <path class="cls-11" d="M71.25,48.43c-.44-1.19-.88-2.39-1.33-3.58-.07,0-.14,0-.22,0,.03,1.2.06,2.4.1,3.61-1.87.05-3.74.11-5.61.19-.17-4.25-.35-8.51-.52-12.76,3.7-.15,7.4-.25,11.09-.3.6,0,1.1.2,1.5.63.38.41.58.95.59,1.58.01,1.57.03,3.13.04,4.7,0,.62-.18,1.15-.55,1.58-.19.22-.4.38-.64.49.5,1.25.99,2.51,1.48,3.76-1.97.02-3.94.05-5.92.09ZM70.56,41.56c.19,0,.3-.08.37-.26.1-.25.14-.6.13-1.06,0-.43-.07-.78-.18-1.03-.08-.18-.19-.26-.39-.25-.31,0-.63.02-.94.02.02.87.05,1.73.07,2.6.31,0,.62-.02.94-.02Z"/>
                  <path class="cls-7" d="M74.76,35.86c.52,0,.95.17,1.29.54.34.37.51.84.52,1.41.01,1.57.03,3.13.04,4.7,0,.56-.16,1.03-.48,1.41-.22.26-.48.42-.78.51.48,1.22.96,2.44,1.44,3.66-1.78.02-3.56.04-5.35.08-.44-1.19-.88-2.39-1.33-3.58-.23,0-.45.01-.68.02.03,1.2.07,2.4.1,3.61-1.7.05-3.39.1-5.09.17-.16-4.08-.33-8.16-.49-12.23,3.6-.15,7.21-.24,10.81-.29M69.36,41.85c.4-.01.8-.02,1.21-.03.3,0,.51-.15.62-.43.11-.28.16-.67.15-1.16-.01-.47-.08-.84-.2-1.12-.12-.28-.34-.42-.64-.41-.4,0-.81.02-1.21.03.03,1.04.06,2.09.09,3.13M74.76,35.33c-3.61.05-7.22.15-10.83.29-.18,0-.36.01-.55.02,0,.18.01.35.02.53.17,4.08.34,8.16.51,12.23,0,.18.01.35.02.53.18,0,.35-.01.53-.02,1.69-.07,3.39-.13,5.08-.17.18,0,.35,0,.53-.01,0-.18,0-.35-.01-.53-.02-.79-.04-1.59-.06-2.38.32.84.63,1.69.94,2.53.04.12.09.24.13.35.13,0,.25,0,.38,0,1.78-.04,3.56-.07,5.34-.08.26,0,.51,0,.77,0-.09-.24-.18-.47-.28-.71-.41-1.07-.83-2.13-1.25-3.19.19-.12.36-.26.51-.44.41-.48.62-1.07.61-1.75-.01-1.57-.02-3.14-.04-4.7,0-.7-.22-1.29-.65-1.75-.45-.48-1.02-.73-1.71-.72t0,0ZM69.83,39.24c.22,0,.45-.01.67-.02.07,0,.09,0,.13.09.1.22.15.53.16.93.01.52-.05.81-.11.96-.03.09-.05.09-.13.09-.22,0-.44.01-.67.02-.02-.69-.04-1.38-.05-2.07t0,0Z"/>
                </g>
                <g>
                  <path class="cls-11" d="M84.52,48.35c-.4-1.21-.8-2.41-1.21-3.62-.07,0-.14,0-.22,0,0,1.2-.02,2.41-.03,3.61-1.87-.01-3.74-.01-5.62,0-.03-4.26-.06-8.51-.09-12.77,3.7-.03,7.4,0,11.1.07.6.01,1.1.24,1.48.68.37.43.55.97.53,1.6-.04,1.57-.08,3.13-.12,4.7-.02.62-.22,1.15-.6,1.56-.19.21-.41.37-.66.47.45,1.27.9,2.54,1.35,3.81-1.97-.05-3.94-.09-5.92-.11ZM84.05,41.46c.19,0,.3-.07.38-.25.11-.25.16-.6.17-1.05,0-.43-.04-.78-.15-1.03-.07-.19-.18-.26-.38-.27-.31,0-.63,0-.94,0,0,.87-.01,1.73-.02,2.6.31,0,.62,0,.94,0Z"/>
                  <path class="cls-7" d="M88.45,35.91c.52.01.94.21,1.27.58.33.38.48.85.47,1.42-.04,1.57-.08,3.13-.12,4.7-.01.56-.19,1.02-.53,1.39-.23.25-.5.41-.8.48.44,1.23.88,2.47,1.31,3.7-1.78-.04-3.56-.08-5.35-.1-.4-1.21-.8-2.41-1.21-3.62-.23,0-.45,0-.68,0,0,1.2-.02,2.41-.02,3.61-1.7-.01-3.39-.01-5.09,0-.03-4.08-.05-8.16-.08-12.24,3.61-.02,7.21,0,10.82.08M82.84,41.71c.4,0,.8,0,1.21,0,.3,0,.51-.13.63-.41.12-.28.18-.66.19-1.15,0-.47-.05-.84-.16-1.13-.11-.29-.32-.43-.63-.43-.41,0-.81,0-1.22,0,0,1.04-.01,2.09-.02,3.13M88.46,35.38c-3.61-.07-7.22-.1-10.83-.08-.18,0-.37,0-.55,0,0,.18,0,.35,0,.53.03,4.08.06,8.16.09,12.24,0,.18,0,.35,0,.53.18,0,.35,0,.53,0,1.69-.01,3.39-.01,5.08,0,.18,0,.35,0,.53,0,0-.18,0-.35,0-.53,0-.79.01-1.59.02-2.38.29.85.57,1.71.86,2.56.04.12.08.24.12.36.13,0,.25,0,.38,0,1.78.02,3.56.05,5.34.1.26,0,.51.01.77.02-.08-.24-.17-.48-.25-.72-.38-1.08-.76-2.16-1.14-3.23.19-.11.37-.25.53-.42.43-.46.65-1.04.67-1.73.04-1.57.08-3.13.12-4.7.02-.7-.18-1.3-.59-1.77-.43-.5-1-.76-1.68-.77h0ZM83.4,39.12c.22,0,.45,0,.67,0,.07,0,.09,0,.13.1.09.22.13.54.13.93,0,.52-.08.81-.14.95-.04.09-.05.09-.13.09-.22,0-.44,0-.67,0,0-.69.01-1.38.02-2.07h0Z"/>
                </g>
                <g>
                  <path class="cls-11" d="M92.61,48.53c-.58-.02-1.06-.25-1.43-.7-.36-.43-.53-.97-.51-1.59.07-2.77.15-5.54.22-8.31.02-.63.22-1.16.61-1.57.4-.42.91-.62,1.51-.6,3.07.1,6.14.23,9.2.4.6.03,1.09.28,1.45.73.36.44.52.98.48,1.62-.17,2.77-.33,5.53-.5,8.3-.04.62-.26,1.14-.65,1.54-.4.41-.9.6-1.48.57-2.97-.16-5.94-.29-8.91-.38ZM97.45,39.23c-.27-.01-.48.03-.62.12-.04.03-.17.11-.19.45-.07,1.65-.14,3.29-.2,4.94-.01.34.12.44.16.48.15.11.35.17.62.18.26.01.47-.03.61-.12.04-.03.17-.11.19-.45.07-1.65.15-3.29.22-4.94.02-.34-.11-.45-.16-.48-.14-.11-.35-.17-.63-.18Z"/>
                  <path class="cls-7" d="M102.2,36.42c.52.03.94.24,1.25.63.31.39.45.87.42,1.44-.16,2.77-.33,5.53-.49,8.3-.03.56-.22,1.01-.57,1.37-.35.36-.77.52-1.28.49-2.97-.16-5.94-.29-8.92-.38-.5-.02-.91-.22-1.23-.6-.32-.39-.47-.86-.45-1.42.08-2.77.15-5.54.23-8.31.02-.57.2-1.04.54-1.4.35-.36.78-.53,1.3-.52,3.07.1,6.13.23,9.2.4M97.21,45.66c.32.01.58-.04.77-.16.19-.12.29-.34.31-.66.08-1.65.15-3.29.23-4.94.01-.32-.07-.55-.26-.7-.19-.15-.45-.23-.79-.24-.33-.01-.59.04-.78.16-.19.12-.3.34-.31.66-.07,1.65-.13,3.29-.2,4.94-.01.32.08.55.27.7.19.14.45.22.77.24M102.23,35.9c-3.07-.17-6.14-.3-9.21-.4-.68-.02-1.26.21-1.72.68-.44.46-.67,1.04-.69,1.74-.07,2.77-.14,5.54-.22,8.31-.02.69.18,1.28.57,1.76.42.51.96.77,1.62.8,2.97.09,5.94.22,8.91.38.65.04,1.23-.19,1.69-.65.44-.45.68-1.02.72-1.71.17-2.77.33-5.53.5-8.3.04-.7-.14-1.3-.53-1.79-.41-.51-.97-.79-1.65-.83h0ZM97.23,45.14c-.21,0-.37-.05-.47-.13-.06-.04-.06-.18-.06-.26.07-1.65.14-3.29.21-4.94,0-.14.04-.23.07-.24.09-.06.25-.09.46-.08.22,0,.38.05.48.13.06.05.06.21.06.26-.07,1.65-.15,3.29-.22,4.94,0,.14-.04.23-.07.24-.09.06-.25.09-.45.08h0Z"/>
                </g>
                <g>
                  <path class="cls-11" d="M104.45,40.66c.52-.16,1.03-.33,1.55-.49-.51-.03-1.02-.06-1.52-.1.08-1.26.15-2.51.23-3.77,1.79.11,3.59.23,5.38.36-.08,1.1-.16,2.2-.24,3.3-.03.41-.18.79-.44,1.12-.26.33-.67.6-1.22.78-.95.33-1.9.66-2.85.99-.29-.74-.59-1.47-.88-2.2Z"/>
                  <path class="cls-7" d="M109.8,36.91c-.07,1.01-.15,2.02-.22,3.04-.03.36-.15.69-.38.98-.23.29-.59.52-1.1.69-.87.3-1.74.6-2.6.91-.23-.57-.45-1.14-.68-1.7.87-.28,1.75-.55,2.63-.82-.89-.06-1.78-.12-2.67-.17.07-1.08.13-2.16.2-3.24,1.61.1,3.22.21,4.83.33M110.38,36.42c-.18-.01-.36-.03-.55-.04-1.61-.12-3.23-.23-4.84-.33-.18-.01-.36-.02-.55-.03-.01.18-.02.35-.03.53-.06,1.08-.13,2.16-.19,3.24-.01.18-.02.35-.03.53.13,0,.25.02.38.02-.16.05-.32.1-.48.15.07.17.14.35.21.52.23.57.46,1.14.68,1.7.06.16.13.32.19.48.16-.06.33-.12.49-.17.87-.3,1.73-.61,2.6-.9.6-.2,1.06-.5,1.35-.87.29-.37.46-.8.49-1.26.08-1.01.15-2.02.23-3.04.01-.18.03-.35.04-.53h0Z"/>
                </g>
                <g>
                  <path class="cls-11" d="M111.47,49.58c-.58-.05-1.05-.3-1.39-.77-.34-.45-.48-.99-.44-1.61.05-.72.11-1.44.16-2.16,1.79.13,3.58.28,5.37.44-1.1-.27-2.21-.54-3.31-.8-.59-.15-1.05-.44-1.39-.87-.34-.43-.48-.99-.43-1.66.08-1.08.16-2.16.24-3.24.05-.63.28-1.15.69-1.54.42-.4.94-.58,1.54-.53,2.95.24,5.9.51,8.84.81.6.06,1.08.33,1.42.8.33.46.47,1.01.4,1.64-.08.72-.15,1.43-.23,2.15-1.43-.15-2.85-.3-4.28-.44.75.19,1.49.38,2.24.57.6.15,1.07.47,1.38.94.31.47.43,1.06.36,1.75-.12,1.09-.24,2.19-.35,3.28-.07.62-.31,1.12-.72,1.51-.42.39-.93.56-1.51.5-2.86-.29-5.72-.55-8.58-.78ZM115.4,46.29c-.02.23.02.41.11.54.09.12.27.19.54.22.27.02.46-.01.54-.1.1-.12.16-.27.18-.46.02-.22,0-.39-.08-.49-.05-.06-.18-.17-.58-.27-.22-.05-.43-.11-.65-.16-.02.24-.04.49-.07.73ZM116.65,40.14c-.27-.02-.47,0-.55.09-.1.1-.16.23-.17.41-.02.18.01.31.08.4.04.04.16.15.6.26.22.05.44.11.66.16.02-.19.03-.37.05-.56.02-.23-.01-.41-.11-.54-.1-.14-.36-.2-.56-.21Z"/>
                  <path class="cls-7" d="M121.33,37.92c.52.05.93.28,1.22.69.3.4.41.89.35,1.46-.07.63-.13,1.26-.2,1.89-1.72-.18-3.44-.36-5.16-.52.02-.17.03-.34.05-.51.03-.3-.02-.53-.15-.72-.13-.18-.38-.29-.76-.33-.36-.03-.62.02-.77.16-.15.14-.23.33-.25.57-.02.25.02.45.14.59.12.14.37.26.74.35,1.43.35,2.86.72,4.29,1.09.54.14.95.41,1.23.83.28.42.38.95.32,1.58-.12,1.09-.23,2.19-.35,3.28-.06.56-.27,1-.64,1.34-.37.34-.8.48-1.3.43-2.86-.29-5.72-.55-8.59-.78-.5-.04-.9-.26-1.2-.66-.3-.4-.43-.88-.38-1.44.05-.63.1-1.26.14-1.89,1.71.13,3.42.27,5.13.42-.02.17-.03.34-.05.51-.03.3.03.53.16.72.13.18.38.29.74.32.37.03.62-.03.77-.19.14-.16.23-.36.25-.61.03-.3-.02-.52-.14-.67-.12-.15-.36-.28-.73-.37-1.42-.35-2.84-.7-4.26-1.04-.53-.13-.94-.39-1.23-.77-.3-.38-.42-.88-.38-1.48.08-1.08.16-2.16.25-3.24.04-.57.25-1.02.61-1.37.36-.34.81-.49,1.33-.45,2.95.24,5.89.51,8.84.81M121.38,37.4c-2.95-.3-5.9-.57-8.85-.81-.68-.05-1.27.15-1.75.6-.46.43-.72,1.01-.77,1.71-.08,1.08-.16,2.16-.24,3.24-.05.73.11,1.35.49,1.84.37.47.87.8,1.5.96-.56-.04-1.11-.09-1.67-.13-.18-.01-.36-.03-.54-.04-.01.18-.03.35-.04.53-.05.63-.09,1.26-.14,1.89-.05.68.11,1.29.49,1.79.39.53.93.82,1.59.87,2.86.23,5.72.49,8.58.78.66.07,1.24-.12,1.72-.57.46-.43.73-.99.8-1.67.12-1.09.24-2.19.36-3.28.08-.75-.05-1.4-.4-1.92-.23-.35-.53-.62-.9-.81.35.04.69.07,1.04.11.18.02.36.04.54.06.02-.17.04-.35.06-.52.07-.63.14-1.26.2-1.89.08-.69-.07-1.31-.45-1.82-.39-.53-.93-.84-1.61-.91t0,0ZM116.28,40.42s.1-.04.34-.02c.26.02.35.09.36.1.07.1.07.26.06.37,0,.08-.02.17-.02.25-.12-.03-.23-.06-.35-.09-.34-.08-.44-.16-.45-.17-.01-.02-.03-.09-.02-.21.01-.14.06-.2.09-.24t0,0ZM116.08,46.78c-.23-.02-.33-.08-.35-.11-.06-.08-.08-.2-.06-.36.01-.14.03-.28.04-.42.12.03.23.06.35.09.35.09.43.18.43.18.02.02.05.12.03.3-.01.13-.05.23-.11.3-.02,0-.11.04-.32.02t0,0Z"/>
                </g>
              </g>
            </g>
          </g>
        </g>
        <g>
          <g>
            <path class="cls-9" d="M53.66,61.32c-.08,0-.15-.05-.16-.13-.3-2.72-.6-5.44-.9-8.16-.01-.08.06-.15.14-.16,18.12-1.98,36.4-1.98,54.53,0,.08,0,.14.08.14.16-.3,2.72-.6,5.44-.9,8.16-.01.08-.08.14-.16.13-17.51-1.91-35.17-1.91-52.68,0Z"/>
            <path class="cls-7" d="M107.25,53.01c-.3,2.72-.59,5.44-.89,8.16-17.52-1.91-35.19-1.91-52.71,0-.3-2.72-.59-5.44-.89-8.16,18.11-1.98,36.38-1.98,54.49,0M107.28,52.72c-18.13-1.98-36.43-1.98-54.56,0-.17.02-.29.16-.27.32.3,2.72.6,5.44.9,8.16.02.16.16.28.32.26,17.5-1.91,35.15-1.91,52.65,0,.17.02.31-.1.32-.26.3-2.72.6-5.44.9-8.16.02-.16-.1-.31-.27-.32t0,0Z"/>
          </g>
          <g>
            <path class="cls-4" d="M58.35,58.74c.6-.05,1.21-.1,1.81-.15-.03-.39-.06-.78-.09-1.17.55-.05,1.1-.09,1.66-.13-.03-.39-.06-.78-.09-1.17-.55.04-1.11.08-1.66.13-.02-.24-.04-.47-.06-.71.6-.05,1.2-.1,1.8-.14-.03-.41-.06-.82-.09-1.23-1.22.09-2.44.19-3.65.3.13,1.43.25,2.86.38,4.28Z"/>
            <path class="cls-4" d="M68.44,56.59c.11-.14.16-.3.15-.5-.03-.55-.05-1.1-.08-1.65,0-.2-.08-.36-.2-.49-.12-.12-.27-.18-.46-.17-1.26.06-2.51.13-3.76.21.09,1.43.18,2.86.27,4.29.6-.04,1.2-.07,1.79-.11-.02-.42-.05-.84-.07-1.27.08,0,.16,0,.24-.01.17.41.34.83.51,1.24.63-.03,1.26-.07,1.89-.09-.18-.42-.37-.84-.55-1.27.11-.04.2-.09.27-.19ZM65.98,54.85c.14,0,.28-.02.42-.02.11,0,.18.04.23.14.05.1.07.23.08.39.01.17,0,.31-.04.41-.04.1-.11.15-.21.16-.14,0-.28.02-.42.02-.02-.37-.04-.73-.06-1.1Z"/>
            <path class="cls-4" d="M71.89,53.61c-.34,1.45-.67,2.89-.99,4.34.5-.02,1.01-.04,1.51-.05.05-.23.11-.46.16-.7.35-.01.7-.02,1.05-.03.06.23.13.46.19.69.64-.02,1.29-.03,1.94-.04-.4-1.43-.81-2.85-1.22-4.28-.88.02-1.76.04-2.64.07ZM72.76,56.22c.09-.4.18-.79.27-1.19.01,0,.02,0,.03,0,.11.39.21.78.32,1.17-.21,0-.41.01-.62.02Z"/>
            <path class="cls-4" d="M80.95,54.74s-.03,0-.04,0c-.25-.42-.51-.84-.77-1.26-.71,0-1.43,0-2.14,0,.01,1.43.02,2.87.03,4.3.47,0,.94,0,1.41,0,0-.29,0-.58,0-.88,0-.29,0-.57,0-.86.01,0,.03,0,.04,0,.35.58.7,1.16,1.05,1.74.05,0,.1,0,.16,0,.35-.58.7-1.15,1.06-1.72.01,0,.03,0,.04,0,0,.29,0,.57,0,.86,0,.29,0,.58,0,.87.59,0,1.18.01,1.77.02.02-1.43.04-2.87.06-4.3-.63,0-1.26-.02-1.88-.02-.26.42-.52.83-.77,1.25Z"/>
            <path class="cls-4" d="M86.11,57.86c.61.02,1.22.03,1.83.05.05-1.43.09-2.87.14-4.3-.62-.02-1.24-.04-1.87-.05-.04,1.43-.07,2.87-.11,4.3Z"/>
            <path class="cls-4" d="M93.55,54.63c-.01.2-.02.4-.03.61,0,0-.02,0-.03,0-.15-.2-.3-.4-.46-.6-.22-.28-.43-.56-.65-.84-.56-.03-1.13-.05-1.7-.08-.06,1.43-.12,2.86-.19,4.3.47.02.94.04,1.4.06.01-.27.03-.55.04-.82.01-.26.02-.51.04-.77.01,0,.02,0,.03,0,.17.22.33.45.49.67.24.33.48.65.72.98.52.03,1.03.06,1.55.09.09-1.43.17-2.86.26-4.29-.48-.03-.95-.06-1.43-.08-.01.26-.03.52-.04.77Z"/>
            <path class="cls-4" d="M101.9,55.98c.02-.28.05-.56.07-.84.02-.2-.02-.37-.13-.51-.11-.14-.24-.22-.43-.23-1.06-.09-2.13-.18-3.2-.26-.18-.01-.33.04-.46.16-.13.12-.2.28-.21.48-.07.97-.14,1.94-.21,2.91-.02.2.04.36.14.5.11.14.25.22.42.23.54.04,1.07.08,1.61.12.18.01.33-.03.45-.13.12-.1.2-.23.23-.4.02,0,.03,0,.05,0-.02.19-.03.39-.05.58.49.04.98.08,1.46.13.07-.83.15-1.66.22-2.48-.78-.07-1.56-.14-2.34-.2-.02.3-.05.59-.07.89.17.01.34.03.51.04,0,.12-.02.24-.03.37,0,.11-.05.19-.12.23-.07.04-.16.06-.27.05-.11,0-.2-.04-.27-.09-.07-.05-.09-.14-.08-.25.05-.61.1-1.22.14-1.83,0-.11.05-.19.12-.23.07-.04.16-.06.28-.05.12,0,.21.04.27.09.07.05.09.14.08.25,0,.1-.02.2-.02.3.61.05,1.22.1,1.84.16Z"/>
          </g>
        </g>
      </g>
    </g>
  </g>
</svg>