<?xml version="1.0" encoding="UTF-8"?>
<svg id="Layer_2" data-name="Layer 2" xmlns="http://www.w3.org/2000/svg" viewBox="0 0 160.12 90.16">
  <defs>
    <style>
      .cls-1 {
        fill: #c85634;
      }

      .cls-2 {
        fill: #1c1c1c;
      }

      .cls-3 {
        fill: #fc7e17;
      }

      .cls-4 {
        fill: #4bc98f;
      }

      .cls-5 {
        fill: #42b27a;
      }

      .cls-6 {
        fill: #f4e7dc;
      }

      .cls-7 {
        fill: #76210d;
      }
    </style>
  </defs>
  <g id="Background">
    <g id="Cactus_Hardscape" data-name="Cactus Hardscape">
      <rect class="cls-6" width="160.12" height="90.16"/>
      <g id="MAIN">
        <g id="Main">
          <g>
            <g>
              <path class="cls-3" d="M29.14,41.01c.36.04.74.07,1.12.07,3.33.01,3.98-1.76,8.05-2.42,4.64-.76,5.71,1.22,9.1-.07,3.02-1.15,3.19-3.12,5.65-3.65.23-.05.46-.08.69-.1v-5.47h-22.77s.13,2.09.13,2.34-.19,1.58-.32,1.96c-.13.38-.44.95-.82,1.08-.38.13-1.64-.76-1.64-.76,0,0-.25,1.2-.25,1.77s.25,1.01.25,1.52-.13.38-.63,1.01c-.51.63.32.89,1.08,2.02.19.28.3.5.38.69Z"/>
              <path class="cls-1" d="M47.41,38.6c-3.39,1.29-4.46-.69-9.1.07-4.07.67-4.72,2.44-8.05,2.42-.38,0-.76-.03-1.12-.07.22.59.02.88.07,1.65.06,1.01.57.76,1.2,1.39s.13.63-.13,1.2c-.25.57-.25.19-.63.44-.38.25-.25.89-.63,1.83-.38.95-.32,1.01-.7,1.77-.38.76-.06.63-.19,1.1-.05.2-.01.44.08.66.64.14,1.33.23,2.05.23,3.33.01,3.98-1.76,8.05-2.42,4.64-.76,5.71,1.22,9.1-.07,3.02-1.15,3.19-3.12,5.65-3.65.23-.05.46-.08.69-.1v-10.21c-.23.02-.46.05-.69.1-2.45.53-2.63,2.5-5.65,3.65Z"/>
              <path class="cls-7" d="M53.06,45.16c-2.45.53-2.63,2.5-5.65,3.65-3.39,1.29-4.46-.69-9.1.07-4.07.67-4.72,2.44-8.05,2.42-.72,0-1.41-.09-2.05-.23.08.2.2.39.34.55.07.08.14.16.22.22.38.32.51.51.51.51,0,0-.25.51-.82,1.01-.57.51-.76.25-.76.25v1.01l17.45,6.32h8.6v-15.88c-.23.02-.46.05-.69.1Z"/>
            </g>
            <path class="cls-7" d="M53.75,29.38v31.56h-8.6l-17.45-6.32v-1.01s.05.06.17.06.31-.06.59-.32c.57-.51.82-1.01.82-1.01,0,0-.13-.19-.51-.51-.07-.06-.15-.14-.22-.22-.14-.16-.26-.35-.34-.55-.09-.23-.13-.46-.08-.66.13-.47-.19-.34.19-1.1.38-.76.32-.82.7-1.77.38-.95.25-1.58.63-1.83.14-.09.23-.1.3-.1.01,0,.02,0,.03,0,.1,0,.16-.02.3-.34.25-.57.76-.57.13-1.2-.63-.63-1.14-.38-1.2-1.39-.05-.76.16-1.06-.07-1.65-.07-.19-.19-.41-.38-.69-.76-1.14-1.58-1.39-1.08-2.02.51-.63.63-.51.63-1.01s-.25-.95-.25-1.52.25-1.77.25-1.77c0,0,1.1.77,1.56.77.03,0,.06,0,.09-.01.38-.13.7-.7.82-1.08.13-.38.32-1.71.32-1.96s-.13-2.34-.13-2.34h22.77M53.75,28.81h-22.77c-.16,0-.31.06-.41.18-.11.11-.16.27-.15.43.05.8.13,2.13.13,2.31,0,.2-.18,1.46-.29,1.78-.1.31-.3.6-.42.69-.21-.06-.75-.35-1.18-.66-.1-.07-.21-.1-.33-.1-.07,0-.14.01-.21.04-.18.07-.31.23-.35.41-.03.13-.26,1.28-.26,1.89,0,.37.08.67.15.95.06.21.1.4.1.57,0,.05,0,.08,0,.1-.02.02-.04.04-.07.07-.1.1-.24.24-.43.48-.64.8-.07,1.41.35,1.85.22.23.46.49.7.84.15.23.26.42.32.58.09.24.08.38.05.67-.02.21-.04.47-.02.81.06.9.44,1.18.89,1.42.16.09.31.17.48.33.03.03.05.05.07.07-.09.11-.22.27-.32.5,0,0,0,.01,0,.02-.12.02-.26.07-.42.18-.41.27-.5.72-.58,1.15-.05.27-.12.59-.26.95-.16.4-.24.65-.31.86-.09.28-.15.46-.36.87-.27.53-.29.8-.23,1.1q.01.05,0,.11c-.08.31-.05.66.1,1.03.1.24.25.49.43.7.09.11.19.2.29.29.06.05.11.09.15.13-.11.15-.27.34-.48.52-.08.07-.15.12-.19.14-.06-.02-.13-.03-.19-.03-.06,0-.12,0-.18.03-.23.08-.39.3-.39.54v1.01c0,.24.15.45.38.54l17.45,6.32c.06.02.13.03.19.03h8.6c.31,0,.57-.26.57-.57v-31.56c0-.31-.25-.57-.57-.57h0Z"/>
            <g>
              <path class="cls-5" d="M45.06,49.94c.08-.1.18-.59.29-1.31-.18.49-.37.72-.55.48-.02.07-.04.13-.06.18-.01.06-.02.1-.04.14-.18.43-.79.83-1.16,1.04v.39c.32-.13,1.23-.54,1.53-.93Z"/>
              <path class="cls-5" d="M45.54,42.05c0-.12.01-.24.02-.36.03-.04.05-.07.08-.1,0,.11-.01.26-.02.45.18-.03.36-.01.49.11.03-.3.06-.58.08-.85.03,0,.05,0,.08,0-.02.23-.05.55-.09.93.01.02.02.03.03.05.22.4-.2,4.08-.72,5.91-.14.96-.27,1.67-.37,1.81-.32.42-1.3.85-1.6.97v.6c.59-.3,2.07-1.06,2.21-1.46.18-.5,1.69-6.48,1.46-8.3.03.04.06.08.09.12-.16-.25-.4-.42-.75-.56-.68-.26-.97.33-1.21.68-.18.27-.27,1.8-.35,3.4.07-1.47.15-2.87.3-3.3.08-.03.17-.07.26-.09Z"/>
              <path class="cls-5" d="M45.81,50.13c-.15.44-1.71,1.23-2.29,1.52v.29c.55-.23,1.78-.78,2.34-1.3.73-.68,1.83-7.03,1.73-7.81-.05-.38-.14-.68-.3-.91.15,2.01-1.3,7.7-1.48,8.21Z"/>
              <path class="cls-4" d="M44.98,45.44c-.06,1.29-.11,2.63-.18,3.4,0,0,0,0,0,0,.07-.77.12-2.11.18-3.4Z"/>
              <path class="cls-4" d="M46.22,42.28s-.02-.04-.03-.05c-.16,1.58-.44,4.2-.69,5.96.53-1.83.94-5.51.72-5.91Z"/>
              <path class="cls-4" d="M45.54,42.05c-.09.02-.18.05-.26.09-.15.43-.23,1.84-.3,3.3-.06,1.29-.11,2.63-.18,3.4.37-1.48.63-4.63.75-6.79Z"/>
              <path class="cls-4" d="M45.62,42.03c-.09,1.55-.35,5.54-.82,7.08.18.24.37.01.55-.48.25-1.61.55-4.36.77-6.49-.13-.12-.32-.14-.49-.11Z"/>
              <polygon class="cls-2" points="47.29 41.92 47.29 41.92 47.29 41.92 47.29 41.92"/>
              <path class="cls-2" d="M45.74,50.1c-.14.4-1.62,1.16-2.22,1.46v.09c.58-.28,2.14-1.08,2.29-1.52.18-.51,1.63-6.2,1.48-8.21,0,0,0,0,0,0-.03-.04-.06-.08-.09-.12.22,1.83-1.28,7.8-1.46,8.3Z"/>
              <path class="cls-2" d="M46.19,42.23c.04-.38.07-.7.09-.93-.03,0-.05,0-.08,0-.03.27-.05.55-.08.85.03.02.05.05.07.08Z"/>
              <path class="cls-2" d="M45.13,49.99c.1-.13.23-.84.37-1.81-.05.17-.1.32-.14.45-.11.72-.21,1.21-.29,1.31-.29.39-1.21.79-1.53.93v.09c.3-.12,1.28-.54,1.6-.97Z"/>
              <path class="cls-2" d="M46.19,42.23s-.05-.06-.07-.08c-.21,2.13-.52,4.88-.77,6.49.05-.13.1-.28.14-.45.25-1.76.53-4.38.69-5.96Z"/>
              <path class="cls-2" d="M44.77,49.08c0-.07.02-.15.03-.23,0,0,0,0,0,0-.02.19-.04.35-.06.46,0,0,0,0,0,0,.01-.06.02-.14.04-.22,0,0,0,0,0,0Z"/>
              <path class="cls-2" d="M44.77,49.08s0,0,0,0c-.01.09-.02.16-.04.22.02-.06.04-.12.06-.18,0-.01-.02-.02-.03-.04Z"/>
              <path class="cls-2" d="M45.65,41.59s-.06.07-.08.1c0,.12-.01.24-.02.36.03,0,.05-.01.08-.02.01-.19.02-.34.02-.45Z"/>
              <path class="cls-2" d="M44.77,49.08c0-.07.02-.15.03-.24,0,0,0,0,0,0,0,.09-.02.16-.03.23,0,0,0,0,0,0Z"/>
              <path class="cls-2" d="M45.54,42.05c-.12,2.16-.38,5.31-.75,6.79,0,.09-.02.17-.03.24,0,0,0,0,0,0,0,.01.02.03.03.04.47-1.54.74-5.53.82-7.08-.03,0-.05,0-.08.02Z"/>
              <path class="cls-4" d="M41.23,37.02s.08-.02.12-.03c-.04,0-.08.02-.12.03Z"/>
              <path class="cls-4" d="M41.5,36.97s.06,0,.08,0c-.03,0-.06,0-.08,0Z"/>
              <path class="cls-4" d="M41.37,36.99s.06-.01.1-.02c-.03,0-.06,0-.1.02Z"/>
              <path class="cls-4" d="M41.78,38.86c.03.91-.03,6.25-.1,11.43.48-2.84.9-5.37.98-6.31.21-2.52.05-5.09-.63-5.98-.06-.08-.13-.14-.2-.18-.04.29-.06.64-.05,1.04Z"/>
              <path class="cls-4" d="M40.44,57.62c-.05-2.37-.08-5.36-.09-6.95-.02.02-.05.05-.07.07h0s-.02.02-.04.03c0,0,0,0,0,0-.08.07-.18.13-.3.18l.12,8.22.12.04c.07-.47.16-1.01.25-1.59Z"/>
              <path class="cls-4" d="M41,37.1s.07-.03.1-.04c-.04.01-.07.02-.1.04Z"/>
              <path class="cls-4" d="M40.34,48.74c-.02-4.86,0-9.13.05-9.88.03-.44.12-.82.23-1.14-.19.04-.37.09-.54.15.21-.33.52-.59.88-.75,0,0,.01,0,.02,0,0,0,0,0,0,0,0,0,.01,0,.02,0-.72.29-1.23,1-1.23,1.82l.14,9.58c.12.02.28.07.43.24Z"/>
              <path class="cls-4" d="M41.62,36.96s.08,0,.12,0c-.04,0-.08,0-.12,0Z"/>
              <path class="cls-4" d="M40.42,48.84c.11.17.19.42.21.79,0,0,0,0,0,.01h0c0,.08,0,.17,0,.27,0,0,0,.05,0,.13h0s0,0,0,0c-.01.13-.05.34-.2.55.02,2.39.05,4.73.08,6.59.31-1.89.71-4.21,1.08-6.38.07-5.32.14-10.99.1-11.93-.02-.43,0-.79.05-1.09-.29-.14-.66-.14-1.04-.07-.12.32-.21.71-.24,1.16-.06.86-.07,5.3-.05,9.98Z"/>
              <path class="cls-4" d="M41.12,37.06s.07-.02.11-.03c-.04,0-.07.02-.11.03Z"/>
              <path class="cls-5" d="M41.11,37.06s.01,0,.02,0c0,0-.01,0-.02,0Z"/>
              <path class="cls-5" d="M41.46,36.98s.02,0,.04,0c-.01,0-.02,0-.04,0Z"/>
              <path class="cls-5" d="M41,37.1s0,0,0,0c0,0,0,0,0,0Z"/>
              <path class="cls-5" d="M41.35,36.99s.01,0,.02,0c0,0-.01,0-.02,0Z"/>
              <path class="cls-5" d="M41.23,37.02s0,0,0,0c0,0,0,0,0,0Z"/>
              <path class="cls-5" d="M41.58,36.96s.02,0,.03,0c-.01,0-.02,0-.03,0Z"/>
              <path class="cls-5" d="M41.46,59.68c.03-1.67.08-5.2.13-8.89-.37,2.18-.77,4.49-1.08,6.38.02.84.03,1.58.06,2.18l.9.32Z"/>
              <path class="cls-5" d="M40.96,37.12c-.36.16-.67.42-.88.75.17-.06.35-.11.54-.15.07-.21.16-.39.24-.55.03-.02.07-.03.11-.05Z"/>
              <path class="cls-5" d="M40.44,57.62c-.09.59-.18,1.12-.25,1.59l.3.11c-.02-.5-.03-1.08-.05-1.7Z"/>
              <path class="cls-5" d="M43.23,52.06v-1.42s.13-.06.3-.16l.17-11.56c0-1.09-.88-1.97-1.97-1.97-.04,0-.08,0-.12,0-.01,0-.02,0-.03,0-.03,0-.06,0-.08,0-.01,0-.02,0-.04,0-.03,0-.06,0-.1.02,0,0-.01,0-.02,0-.04,0-.08.02-.12.03,0,0,0,0,0,0-.04,0-.07.02-.11.03,0,0-.01,0-.02,0-.04.01-.07.02-.1.04,0,0,0,0,0,0,0,0-.01,0-.02,0-.1.17-.19.37-.27.59.38-.07.75-.07,1.04.07.05-.34.12-.6.2-.81.03,0,.06,0,.08.01-.08.21-.16.49-.2.84.08.05.15.11.2.18.68.89.84,3.46.63,5.98-.08.93-.49,3.46-.98,6.31-.05,3.89-.11,7.68-.14,9.42l1.03.37c.12-3.49.73-20.82.62-21.64-.05-.38-.17-.76-.29-1.1.04.03.08.06.12.09.11.31.21.66.25,1,.11.84-.5,18.18-.62,21.68l.74.27.12-8.44c-.17.07-.28.12-.28.12Z"/>
              <path class="cls-5" d="M43.23,52.06s.11-.04.28-.12v-.29c-.12.06-.2.1-.21.1l-.03-.07s.1-.05.25-.12v-.6s-.07.03-.08.03l-.03-.07s.05-.02.12-.05v-.39c-.17.1-.3.16-.3.16v1.42Z"/>
              <path class="cls-5" d="M43.27,51.68l.03.07s.1-.05.22-.1v-.09c-.15.07-.25.12-.25.12Z"/>
              <path class="cls-5" d="M43.41,50.92l.03.07s.04-.01.09-.03v-.09c-.07.03-.11.05-.11.05Z"/>
              <path class="cls-2" d="M40.39,38.86c-.05.74-.07,5.01-.05,9.88.03.03.05.07.08.1-.03-4.68-.01-9.12.05-9.98.03-.45.12-.84.24-1.16-.03,0-.06.01-.09.02-.11.32-.2.7-.23,1.14Z"/>
              <path class="cls-2" d="M40.43,50.58s-.05.06-.08.1c.01,1.59.04,4.58.09,6.95.02-.15.05-.3.07-.45-.04-1.86-.06-4.2-.08-6.59Z"/>
              <path class="cls-2" d="M40.96,37.12s.01,0,.02,0c0,0,0,0,0,0,0,0-.01,0-.02,0Z"/>
              <path class="cls-2" d="M40.86,37.17c-.09.16-.17.35-.24.55.03,0,.06-.01.09-.02.08-.23.18-.43.27-.59,0,0-.01,0-.02,0-.04.02-.07.03-.11.05Z"/>
              <path class="cls-2" d="M40.57,59.35c-.02-.6-.04-1.34-.06-2.18-.03.15-.05.3-.07.45.01.62.03,1.2.05,1.7l.08.03Z"/>
              <path class="cls-2" d="M41.7,38.86c.03.94-.03,6.6-.1,11.93.03-.17.06-.34.09-.5.07-5.17.13-10.51.1-11.43-.01-.4,0-.75.05-1.04-.02-.02-.05-.03-.07-.04-.04.3-.06.66-.05,1.09Z"/>
              <path class="cls-2" d="M42.03,36.98s-.05,0-.08-.01c-.08.21-.15.47-.2.81.03.01.05.03.07.04.05-.35.12-.63.2-.84Z"/>
              <path class="cls-2" d="M41.46,59.68l.08.03c.03-1.74.08-5.53.14-9.42-.03.17-.06.33-.09.5-.05,3.69-.1,7.22-.13,8.89Z"/>
              <path class="cls-2" d="M43.27,38.43c-.04-.34-.14-.69-.25-1-.04-.03-.08-.06-.12-.09.12.34.24.72.29,1.1.11.82-.5,18.14-.62,21.64l.08.03c.12-3.5.73-20.84.62-21.68Z"/>
              <path class="cls-4" d="M35.02,39.36s.02-.03.03-.04c0,.01-.02.03-.03.04Z"/>
              <path class="cls-4" d="M36.1,48.06c.22.54,1.89,1.23,3.16,1.63-.86-.41-2.34-.87-2.52-1.35-.25-.68-.06-6.55-.06-6.55.1-1.73.16-1.89-.58-2.36-.03-.02-.06-.04-.09-.05-.06.18-.11.38-.15.61-.11.71-.12,7.21.23,8.08Z"/>
              <path class="cls-4" d="M35.19,48.46c.52.45,1.48,1.05,4.64,2.1.04-.12.06-.26.04-.39,0-.1-.11-.2-.28-.3-1.3-.38-3.31-1.13-3.57-1.78-.37-.91-.35-7.39-.24-8.12.03-.23.09-.44.15-.62-.17-.06-.34-.06-.5-.02-.13.28-.24.64-.28,1.08-.11,1.54-.39,7.68.03,8.06Z"/>
              <path class="cls-4" d="M39.8,50.64c-3.17-1.05-4.14-1.66-4.67-2.11-.49-.43-.13-7.13-.06-8.12.03-.42.13-.77.26-1.05-.14.05-.27.11-.39.19.03-.07.05-.13.08-.17-.58.98-.7,7.11-.49,8.76.21,1.68,5.42,2.83,5.42,2.83,0,0-.1-.02-.28-.07.05-.08.1-.16.14-.25Z"/>
              <path class="cls-5" d="M35.02,39.36s0,0,0,0c0,0,0,0,0,0Z"/>
              <path class="cls-5" d="M36.93,40.84c-.23,1.7-.16,6.55,0,6.9.11.25,1.24.83,3,1.57v-.81c-.1-.01-.15,0-.15,0,0,0-1.94-.73-2.19-1.26-.25-.52,0-4.04,0-6.29,0-.82-.25-1.37-.61-1.7.04.38.04.9-.05,1.6Z"/>
              <path class="cls-5" d="M36.13,38.87s0,0,0,0c0,0,0,0,0,0Z"/>
              <path class="cls-5" d="M35.34,39.35c.07-.15.14-.29.22-.4-.2.08-.38.2-.5.37,0,.01-.02.03-.03.04,0,0,0,0,0,0-.03.05-.05.1-.08.17.12-.07.25-.14.39-.19Z"/>
              <path class="cls-5" d="M39.88,50.17c.01.14,0,.27-.04.39.04.01.07.02.11.04v-.64c-.11-.03-.23-.06-.34-.09.17.1.27.2.28.3Z"/>
              <path class="cls-5" d="M36.1,39.42c.73.47.68.63.58,2.36,0,0-.19,5.87.06,6.55.18.48,1.66.94,2.52,1.35.24.08.47.14.67.2v-.49c-1.21-.5-2.92-1.26-3.08-1.62-.16-.37-.24-5.2,0-6.94.1-.74.09-1.29.04-1.67-.21-.16-.44-.26-.68-.29-.06.12-.13.29-.2.49.03.01.06.03.09.05Z"/>
              <path class="cls-5" d="M35.55,38.95s.08-.03.12-.04c-.04.01-.08.02-.12.04Z"/>
              <path class="cls-5" d="M36.89,39.17s.06.05.09.08c-.03-.03-.06-.05-.09-.08Z"/>
              <path class="cls-5" d="M39.8,50.64c-.04.09-.08.17-.14.25.17.04.28.07.28.07,0,0,0,0,0,0v-.27c-.05-.02-.1-.03-.14-.05Z"/>
              <path class="cls-5" d="M35.94,39.34c.06-.19.13-.35.19-.47-.16-.01-.31,0-.45.04-.08.11-.16.25-.24.41.17-.04.34-.04.5.02Z"/>
              <path class="cls-5" d="M40.34,49.48c0-.25,0-.5,0-.74-.15-.16-.31-.22-.43-.24v.81c.15.06.29.11.43.17Z"/>
              <path class="cls-5" d="M40.34,49.56c-.13-.05-.27-.11-.42-.17v.49c.16.04.31.08.42.1,0-.14,0-.28,0-.42Z"/>
              <path class="cls-5" d="M40.35,50.07c-.12-.03-.26-.06-.42-.1v.64c.12.04.24.08.36.11v.04s.04-.05.06-.07c0-.15,0-.29,0-.41,0-.07,0-.13,0-.2Z"/>
              <path class="cls-5" d="M40.43,50.08c0,.17,0,.33,0,.5.15-.2.19-.41.2-.55,0,.02,0,.05,0,.08-.05,0-.11-.02-.19-.03Z"/>
              <path class="cls-5" d="M39.94,50.68v.27c.12-.05.22-.11.3-.18-.1-.03-.2-.07-.3-.1Z"/>
              <path class="cls-5" d="M40.42,49.6c0,.14,0,.27,0,.41.08.02.15.03.2.03,0-.08,0-.13,0-.13,0-.1,0-.18,0-.27v.04c-.07-.02-.14-.05-.21-.08Z"/>
              <path class="cls-5" d="M40.63,49.6s0,.02,0,.03c-.02-.37-.1-.62-.21-.79,0,.22,0,.45,0,.67.07.03.14.06.21.08Z"/>
              <path class="cls-5" d="M40.43,50.08s-.05-.01-.08-.02c0,.07,0,.13,0,.2,0,.12,0,.26,0,.41.03-.03.06-.06.08-.1,0-.17,0-.33,0-.5Z"/>
              <path class="cls-5" d="M40.42,49.6s-.05-.02-.08-.03c0,.14,0,.28,0,.42.03,0,.05.01.08.02,0-.14,0-.27,0-.41Z"/>
              <path class="cls-5" d="M40.42,48.84s-.05-.07-.08-.1c0,.25,0,.49,0,.74.03.01.05.02.08.03,0-.22,0-.45,0-.67Z"/>
              <polygon class="cls-2" points="35.67 38.91 35.67 38.91 35.67 38.91 35.67 38.91"/>
              <polygon class="cls-2" points="35.55 38.95 35.55 38.95 35.55 38.95 35.55 38.95"/>
              <path class="cls-2" d="M40.24,50.78s.03-.02.04-.03h0s-.02.02-.04.03c0,0,0,0,0,0Z"/>
              <path class="cls-2" d="M35.19,48.46c-.43-.37-.14-6.52-.03-8.06.03-.44.14-.8.28-1.08-.03,0-.07.02-.1.03-.13.28-.23.63-.26,1.05-.07,1-.43,7.69.06,8.12.52.46,1.5,1.06,4.67,2.11,0-.02.02-.05.03-.07-3.16-1.05-4.12-1.65-4.64-2.1Z"/>
              <path class="cls-2" d="M35.43,39.32c.08-.16.16-.3.24-.41,0,0,0,0,0,0-.04.01-.08.02-.12.04,0,0,0,0,0,0-.08.11-.15.25-.22.4.03-.01.07-.02.1-.03Z"/>
              <path class="cls-2" d="M39.83,50.56s-.02.05-.03.07c.05.02.09.03.14.05v-.08s-.07-.02-.11-.04Z"/>
              <path class="cls-2" d="M39.94,50.6v.08c.1.03.2.06.3.1.01-.01.03-.02.04-.03v-.04c-.11-.04-.22-.08-.34-.11Z"/>
              <polygon class="cls-2" points="36.13 38.87 36.13 38.87 36.13 38.87 36.13 38.87"/>
              <path class="cls-2" d="M36.21,38.88s-.05,0-.08,0c.03,0,.05,0,.08,0,0,0,0,0,0,0Z"/>
              <polygon class="cls-2" points="40.63 50.04 40.63 50.04 40.63 50.04 40.63 50.04"/>
              <path class="cls-2" d="M36.03,48.09c.27.65,2.28,1.4,3.57,1.78-.09-.06-.21-.12-.34-.18-1.27-.41-2.94-1.09-3.16-1.63-.35-.87-.34-7.37-.23-8.08.03-.22.09-.43.15-.61-.02-.01-.05-.02-.07-.03-.06.18-.12.39-.15.62-.11.73-.13,7.21.24,8.12Z"/>
              <path class="cls-2" d="M36.01,39.37c.07-.2.14-.37.2-.49-.03,0-.05,0-.08,0,0,0,0,0,0,0,0,0,0,0,0,0-.06.12-.13.28-.19.47.02,0,.05.02.07.03Z"/>
              <path class="cls-2" d="M39.93,49.96v-.08c-.2-.05-.43-.12-.67-.2.13.06.24.12.34.18.12.03.23.07.34.09Z"/>
              <path class="cls-2" d="M40.43,50.08c.08.02.15.03.19.03,0-.03,0-.05,0-.08,0,0,0,0,0,0-.05,0-.12-.02-.2-.03,0,.03,0,.05,0,.08Z"/>
              <path class="cls-2" d="M40.35,50.07s0-.05,0-.08c-.12-.03-.26-.06-.42-.1v.08c.16.04.3.08.42.1Z"/>
              <path class="cls-2" d="M40.35,49.99s0,.05,0,.08c.03,0,.05.01.08.02,0-.03,0-.05,0-.08-.03,0-.05-.01-.08-.02Z"/>
              <polygon class="cls-2" points="36.98 39.24 36.97 39.24 36.98 39.24 36.98 39.24"/>
              <polygon class="cls-2" points="36.89 39.17 36.89 39.17 36.89 39.17 36.89 39.17"/>
              <path class="cls-2" d="M40.63,49.64s0,0,0-.01c0,0,0,0,0,.01h0Z"/>
              <path class="cls-2" d="M36.85,40.83c-.23,1.74-.16,6.57,0,6.94.16.35,1.87,1.12,3.07,1.62v-.09c-1.76-.73-2.89-1.32-3-1.57-.15-.35-.23-5.2,0-6.9.09-.7.09-1.22.05-1.6,0,0,0,0,0,0-.03-.03-.06-.05-.09-.08,0,0,0,0,0,0,.05.38.06.93-.04,1.67Z"/>
              <path class="cls-2" d="M40.42,49.51s0,.06,0,.09c.07.03.13.05.19.08v-.04s.01,0,.01-.01c0-.01,0-.02,0-.03-.07-.03-.14-.06-.21-.08Z"/>
              <path class="cls-2" d="M40.34,49.48c-.14-.06-.28-.12-.42-.17v.09c.15.06.29.12.42.17,0-.03,0-.06,0-.09Z"/>
              <path class="cls-2" d="M40.42,49.6s0-.06,0-.09c-.03-.01-.05-.02-.08-.03,0,.03,0,.06,0,.09.03.01.05.02.08.03Z"/>
            </g>
          </g>
        </g>
        <g>
          <g>
            <path class="cls-5" d="M59.14,42.71c-1.52-1.36-2.28-3.12-2.28-5.26s.76-3.9,2.26-5.24c1.5-1.36,3.42-2.04,5.72-2.04,1.38,0,2.56.24,3.54.74v4.06c-1.14-.62-2.28-.92-3.42-.92-1.06,0-1.94.32-2.64.98-.7.64-1.04,1.44-1.04,2.42s.36,1.82,1.08,2.46c.72.62,1.64.94,2.76.94,1.38,0,2.52-.34,3.46-1v4.12c-.96.5-2.2.76-3.7.76-2.3,0-4.22-.68-5.74-2.02Z"/>
            <path class="cls-5" d="M68.4,44.45l5.76-14.08h4.1l5.78,14.08h-4.62l-1-2.62h-4.56l-1.02,2.62h-4.44ZM75.1,38.61h2.06l-1.02-3.32-1.04,3.32Z"/>
            <path class="cls-5" d="M84.98,42.71c-1.52-1.36-2.28-3.12-2.28-5.26s.76-3.9,2.26-5.24c1.5-1.36,3.42-2.04,5.72-2.04,1.38,0,2.56.24,3.54.74v4.06c-1.14-.62-2.28-.92-3.42-.92-1.06,0-1.94.32-2.64.98-.7.64-1.04,1.44-1.04,2.42s.36,1.82,1.08,2.46c.72.62,1.64.94,2.76.94,1.38,0,2.52-.34,3.46-1v4.12c-.96.5-2.2.76-3.7.76-2.3,0-4.22-.68-5.74-2.02Z"/>
            <path class="cls-5" d="M94.66,30.45h12.3v3.7h-4.02v10.3h-4.3v-10.3h-3.98v-3.7Z"/>
            <path class="cls-5" d="M107.31,30.45h4.3v8.22c0,1.5.92,2.16,2.1,2.16s2.08-.66,2.08-2.16v-8.22h4.3v8.2c0,1.94-.6,3.44-1.82,4.5-1.2,1.06-2.72,1.58-4.56,1.58s-3.36-.52-4.58-1.58c-1.22-1.06-1.82-2.56-1.82-4.5v-8.2Z"/>
            <path class="cls-5" d="M120.71,43.23v-4.2c.64.54,1.54,1,2.72,1.38,1.18.38,2.24.58,3.18.58,1.08,0,1.62-.22,1.62-.66,0-.2-.2-.38-.6-.56-.4-.18-1.18-.44-2.32-.78-2.9-.86-4.6-2.1-4.6-4.48,0-2.86,2.34-4.34,6.02-4.34,1.8,0,3.48.38,5.06,1.12v4c-.68-.4-1.54-.74-2.58-1-1.04-.28-1.98-.42-2.8-.42s-1.24.18-1.24.52c0,.18.2.36.58.54.4.16,1.28.44,2.62.84,2.9.88,4.32,2.22,4.32,4.36,0,1.4-.56,2.52-1.7,3.36-1.12.82-2.6,1.24-4.46,1.24-2.3,0-4.24-.5-5.82-1.5Z"/>
          </g>
          <g>
            <path class="cls-2" d="M56.85,53.13v-6.28h1.93v2.3h1.92v-2.3h1.93v6.28h-1.93v-2.3h-1.92v2.3h-1.93Z"/>
            <path class="cls-2" d="M62.67,53.13l2.58-6.31h1.84l2.59,6.31h-2.07l-.45-1.17h-2.04l-.46,1.17h-1.99ZM65.67,50.52h.92l-.46-1.49-.47,1.49Z"/>
            <path class="cls-2" d="M75.55,53.13h-2.22l-1.4-2.24h-.3v2.24h-1.93v-6.28h3.03c.71,0,1.28.19,1.71.57.43.38.65.86.65,1.44,0,.79-.43,1.44-1.15,1.8l1.61,2.46ZM72.51,49.48c.36,0,.6-.2.6-.51s-.24-.5-.6-.5h-.88v1.01h.88Z"/>
            <path class="cls-2" d="M75.62,53.13v-6.28h2.65c1.03,0,1.87.3,2.52.88.65.58.98,1.34.98,2.26s-.32,1.68-.98,2.26-1.49.88-2.52.88h-2.65ZM77.55,51.47h.59c1.05,0,1.63-.52,1.63-1.48s-.58-1.48-1.63-1.48h-.59v2.96Z"/>
            <path class="cls-2" d="M81.94,52.59v-1.88c.29.24.69.45,1.22.62.53.17,1,.26,1.43.26.48,0,.73-.1.73-.3,0-.09-.09-.17-.27-.25-.18-.08-.53-.2-1.04-.35-1.3-.39-2.06-.94-2.06-2.01,0-1.28,1.05-1.95,2.7-1.95.81,0,1.56.17,2.27.5v1.79c-.3-.18-.69-.33-1.16-.45-.47-.13-.89-.19-1.26-.19s-.56.08-.56.23c0,.08.09.16.26.24.18.07.57.2,1.17.38,1.3.39,1.94,1,1.94,1.95,0,.63-.25,1.13-.76,1.51-.5.37-1.17.56-2,.56-1.03,0-1.9-.22-2.61-.67Z"/>
            <path class="cls-2" d="M88.34,52.35c-.68-.61-1.02-1.4-1.02-2.36s.34-1.75,1.01-2.35c.67-.61,1.53-.91,2.56-.91.62,0,1.15.11,1.59.33v1.82c-.51-.28-1.02-.41-1.53-.41-.48,0-.87.14-1.18.44-.31.29-.47.65-.47,1.09s.16.82.48,1.1c.32.28.74.42,1.24.42.62,0,1.13-.15,1.55-.45v1.85c-.43.22-.99.34-1.66.34-1.03,0-1.89-.3-2.57-.91Z"/>
            <path class="cls-2" d="M92.49,53.13l2.58-6.31h1.84l2.59,6.31h-2.07l-.45-1.17h-2.04l-.46,1.17h-1.99ZM95.49,50.52h.92l-.46-1.49-.47,1.49Z"/>
            <path class="cls-2" d="M102.42,46.86c.72,0,1.29.19,1.72.57.44.39.65.87.65,1.47s-.22,1.09-.65,1.47c-.43.39-1,.57-1.72.57h-.96v2.19h-1.93v-6.28h2.89ZM102.16,49.55c.39,0,.66-.23.66-.56s-.28-.56-.66-.56h-.7v1.12h.7Z"/>
            <path class="cls-2" d="M104.92,53.13v-6.28h4.92v1.66h-3v.74h2.35v1.52h-2.35v.7h3.05v1.66h-4.98Z"/>
            <path class="cls-2" d="M56.89,60.81v-6.28h1.93v6.28h-1.93Z"/>
            <path class="cls-2" d="M59.35,60.81v-6.28h1.64l2.4,3.03v-3.03h1.83v6.28h-1.59l-2.44-3.05v3.05h-1.85Z"/>
            <path class="cls-2" d="M65.72,60.81v-6.28h1.64l2.4,3.03v-3.03h1.83v6.28h-1.59l-2.44-3.05v3.05h-1.85Z"/>
            <path class="cls-2" d="M72.87,55.37c.64-.64,1.44-.96,2.41-.96s1.77.32,2.4.96c.64.64.95,1.4.95,2.3s-.31,1.68-.95,2.31c-.64.64-1.43.95-2.4.95s-1.78-.32-2.41-.96-.95-1.41-.95-2.3.31-1.67.95-2.3ZM75.28,59.18c.4,0,.74-.14,1-.42.26-.29.39-.65.39-1.09s-.13-.8-.39-1.08c-.26-.29-.59-.43-1-.43s-.74.14-1,.43c-.26.28-.39.64-.39,1.08s.13.8.39,1.09c.26.28.59.42,1,.42Z"/>
            <path class="cls-2" d="M80.65,60.85l-2.5-6.31h2.14l1.31,3.74,1.32-3.74h2.07l-2.51,6.31h-1.83Z"/>
            <path class="cls-2" d="M83.57,60.81l2.58-6.31h1.84l2.59,6.31h-2.07l-.45-1.17h-2.04l-.46,1.17h-1.99ZM86.57,58.19h.92l-.46-1.49-.47,1.49Z"/>
            <path class="cls-2" d="M89.43,54.53h5.51v1.66h-1.8v4.62h-1.93v-4.62h-1.78v-1.66Z"/>
            <path class="cls-2" d="M95.21,60.81v-6.28h1.93v6.28h-1.93Z"/>
            <path class="cls-2" d="M98.43,55.37c.64-.64,1.44-.96,2.41-.96s1.77.32,2.4.96.95,1.4.95,2.3-.31,1.68-.95,2.31-1.43.95-2.4.95-1.78-.32-2.41-.96c-.64-.64-.95-1.41-.95-2.3s.31-1.67.95-2.3ZM100.85,59.18c.4,0,.74-.14,1-.42.26-.29.39-.65.39-1.09s-.13-.8-.39-1.08c-.26-.29-.59-.43-1-.43s-.74.14-1,.43c-.26.28-.39.64-.39,1.08s.13.8.39,1.09c.26.28.59.42,1,.42Z"/>
            <path class="cls-2" d="M104.53,60.81v-6.28h1.64l2.4,3.03v-3.03h1.83v6.28h-1.59l-2.44-3.05v3.05h-1.85Z"/>
            <path class="cls-2" d="M110.75,60.26v-1.88c.29.24.69.45,1.22.62.53.17,1,.26,1.43.26.48,0,.73-.1.73-.3,0-.09-.09-.17-.27-.25-.18-.08-.53-.2-1.04-.35-1.3-.39-2.06-.94-2.06-2.01,0-1.28,1.05-1.95,2.7-1.95.81,0,1.56.17,2.27.5v1.79c-.3-.18-.69-.33-1.16-.45-.47-.13-.89-.19-1.26-.19s-.56.08-.56.23c0,.08.09.16.26.24.18.07.57.2,1.17.38,1.3.39,1.94,1,1.94,1.95,0,.63-.25,1.13-.76,1.51-.5.37-1.17.56-2,.56-1.03,0-1.9-.22-2.61-.67Z"/>
          </g>
        </g>
      </g>
    </g>
  </g>
</svg>