<?xml version="1.0" encoding="UTF-8"?>
<svg id="Layer_2" data-name="Layer 2" xmlns="http://www.w3.org/2000/svg" xmlns:xlink="http://www.w3.org/1999/xlink" viewBox="0 0 160.06 89.49">
  <defs>
    <style>
      .cls-1 {
        fill: #332463;
      }

      .cls-2, .cls-3, .cls-4, .cls-5, .cls-6, .cls-7 {
        fill: none;
      }

      .cls-3 {
        stroke: #23173f;
      }

      .cls-3, .cls-4, .cls-5, .cls-6, .cls-7 {
        stroke-miterlimit: 10;
      }

      .cls-3, .cls-4, .cls-5, .cls-7 {
        stroke-width: .76px;
      }

      .cls-4 {
        stroke: #d34423;
      }

      .cls-8 {
        clip-path: url(#clippath-1);
      }

      .cls-5 {
        stroke: #c43551;
      }

      .cls-6 {
        stroke: #000;
        stroke-width: .42px;
      }

      .cls-7 {
        stroke: #eeba40;
      }

      .cls-9 {
        fill: #e8dabc;
      }

      .cls-10 {
        opacity: .04;
      }

      .cls-11 {
        fill: url(#linear-gradient);
      }

      .cls-12 {
        fill: #eeba40;
      }

      .cls-13 {
        clip-path: url(#clippath);
      }
    </style>
    <clipPath id="clippath">
      <rect class="cls-2" x="0" y="0" width="160.06" height="89.49"/>
    </clipPath>
    <linearGradient id="linear-gradient" x1="42.83" y1="45.47" x2="41.96" y2="23.55" gradientUnits="userSpaceOnUse">
      <stop offset="0" stop-color="#eeba40"/>
      <stop offset=".33" stop-color="#d34423"/>
      <stop offset=".65" stop-color="#c43551"/>
      <stop offset="1" stop-color="#23173f"/>
    </linearGradient>
    <clipPath id="clippath-1">
      <path class="cls-2" d="M42.39,28.45c1.04-.03,3.82.03,5.94,1.74.26.21.79.64,1.29,1.36.66.97,1.02,2.14,1.09,3.52h-6.44c-.02-.64-.22-1.13-.59-1.45-.37-.32-.85-.48-1.44-.48-.44,0-.81.13-1.09.39-.28.26-.42.63-.42,1.12,0,.4.16.75.47,1.04.31.29.7.54,1.16.76.46.21,1.15.48,2.06.8,1.35.46,2.46.92,3.34,1.38.88.45,1.63,1.09,2.27,1.9.63.82.95,1.85.95,3.1s-.32,2.41-.95,3.42c-.63,1.01-1.55,1.8-2.75,2.39-1.2.58-2.62.88-4.25.88-2.48,0-4.52-.59-6.11-1.77-.3-.22-.88-.68-1.42-1.46-.46-.67-.71-1.31-.84-1.76,1.81-.26,3.61-.52,5.42-.79.38.18.8.37,1.26.57.96.43,1.16.51,1.48.51.54,0,.99-.14,1.35-.41.35-.27.53-.65.53-1.13,0-.62-.29-1.11-.88-1.45-.58-.34-1.53-.73-2.84-1.15-1.39-.46-2.51-.91-3.37-1.35-.86-.43-1.6-1.07-2.24-1.91-.64-.84-.95-1.93-.95-3.28,0-.5,0-2.03,1.03-3.52.91-1.32,2.1-1.88,2.84-2.22,1.65-.77,3.19-.81,4.11-.76Z"/>
    </clipPath>
  </defs>
  <g id="Background">
    <g id="Sunset_Valley" data-name="Sunset Valley">
      <g class="cls-13">
        <rect class="cls-9" x="0" y="0" width="160.06" height="89.49"/>
        <g class="cls-10">
          <g>
            <g>
              <g>
                <g id="Text">
                  <g>
                    <path d="M136.37,36.5c-.88-.61-1.36-1.47-1.42-2.6h3.5c.03.38.16.66.37.84.21.18.49.26.82.26.3,0,.55-.07.75-.21.2-.14.29-.33.29-.58,0-.32-.16-.57-.49-.75-.32-.18-.85-.37-1.57-.59-.77-.24-1.39-.47-1.87-.69-.47-.22-.89-.55-1.24-.98-.35-.43-.53-.99-.53-1.69s.19-1.31.57-1.81c.38-.5.9-.88,1.57-1.14.67-.26,1.43-.39,2.28-.39,1.37,0,2.47.3,3.29.89.82.6,1.26,1.43,1.31,2.51h-3.57c-.01-.33-.12-.58-.33-.75-.21-.17-.47-.25-.8-.25-.25,0-.45.07-.6.2-.16.13-.23.33-.23.57,0,.21.09.39.26.54.17.15.39.28.64.39.26.11.64.25,1.14.41.75.24,1.36.47,1.85.71.49.23.9.56,1.26.98.35.42.53.95.53,1.59s-.18,1.24-.53,1.76c-.35.52-.86.93-1.52,1.23-.66.3-1.45.45-2.35.45-1.37,0-2.5-.3-3.38-.91Z"/>
                    <path d="M153.61,28.58v8.72h-3.3v-1.24c-.28.39-.66.71-1.16.96-.49.24-1.05.37-1.69.37-1.09,0-1.96-.33-2.59-1-.63-.67-.95-1.58-.95-2.73v-5.07h3.27v4.68c0,.5.14.89.43,1.17.28.29.66.43,1.13.43s.86-.14,1.14-.43c.28-.28.42-.68.42-1.17v-4.68h3.3Z"/>
                    <path d="M162.54,29.51c.64.67.95,1.57.95,2.71v5.08h-3.28v-4.68c0-.5-.14-.89-.42-1.17-.28-.28-.65-.43-1.12-.43s-.88.14-1.16.43c-.28.29-.42.68-.42,1.17v4.68h-3.28v-8.72h3.28v1.24c.29-.39.68-.71,1.17-.96.49-.24,1.06-.37,1.69-.37,1.08,0,1.94.33,2.58,1Z"/>
                  </g>
                  <g>
                    <path d="M136.29,41.88l.85-2.16h.49l-1.08,2.55h-.53l-1.08-2.55h.49l.86,2.16Z"/>
                    <path d="M139.09,40.3c.11-.2.27-.35.47-.46.2-.11.42-.16.66-.16s.45.05.63.14c.18.1.31.22.4.36v-.47h.46v2.55h-.46v-.47c-.09.15-.23.27-.4.37s-.39.15-.62.15-.46-.06-.66-.17c-.2-.11-.35-.27-.47-.47-.11-.2-.17-.43-.17-.69s.06-.49.17-.69ZM141.12,40.49c-.08-.14-.2-.25-.34-.33-.14-.08-.3-.11-.47-.11s-.33.04-.47.11c-.14.07-.25.18-.34.33-.08.14-.13.31-.13.5s.04.37.13.51c.08.14.2.25.34.33s.3.11.47.11.33-.04.47-.11c.14-.08.25-.19.34-.33.08-.14.13-.31.13-.51s-.04-.36-.13-.5Z"/>
                    <path d="M143.94,38.83v3.44h-.46v-3.44h.46Z"/>
                    <path d="M146.18,38.83v3.44h-.46v-3.44h.46Z"/>
                    <path d="M150.45,41.16h-2.2c.02.25.11.45.28.59.17.14.37.21.61.21.2,0,.36-.04.49-.13.13-.09.22-.2.28-.34h.49c-.07.25-.22.44-.44.6s-.5.23-.82.23c-.26,0-.49-.05-.7-.16-.21-.11-.37-.26-.48-.46-.12-.2-.18-.43-.18-.7s.06-.49.17-.69c.11-.2.27-.35.48-.46s.44-.16.71-.16.49.05.69.16c.2.11.36.25.46.44.11.18.16.39.16.63,0,.08,0,.17-.02.26ZM149.88,40.4c-.08-.12-.18-.2-.31-.27-.13-.06-.28-.09-.44-.09-.23,0-.43.07-.59.2s-.26.33-.28.57h1.74c0-.16-.04-.3-.12-.42Z"/>
                    <path d="M154.44,39.72l-1.66,3.75h-.47l.54-1.23-1.11-2.52h.51l.86,2.07.85-2.07h.47Z"/>
                    <path d="M159.1,39.83c.18-.1.39-.15.62-.15s.47.05.66.16c.2.11.36.26.47.46s.17.43.17.69-.06.49-.17.69c-.11.2-.27.36-.47.47-.2.11-.42.17-.66.17s-.44-.05-.62-.15c-.18-.1-.32-.22-.41-.37v1.68h-.46v-3.76h.46v.47c.09-.15.22-.27.4-.37ZM160.44,40.49c-.08-.14-.2-.25-.34-.33-.14-.07-.3-.11-.47-.11s-.32.04-.46.11-.26.19-.34.33c-.09.14-.13.31-.13.5s.04.36.13.51c.09.14.2.25.34.33s.3.11.46.11.33-.04.47-.11c.14-.08.25-.19.34-.33.08-.14.13-.31.13-.51s-.04-.36-.13-.5Z"/>
                  </g>
                </g>
                <g id="Text-2" data-name="Text">
                  <g>
                    <path d="M76.29,36.5c-.88-.61-1.36-1.47-1.42-2.6h3.5c.03.38.16.66.37.84.21.18.49.26.82.26.3,0,.55-.07.75-.21.2-.14.29-.33.29-.58,0-.32-.16-.57-.49-.75-.32-.18-.85-.37-1.57-.59-.77-.24-1.39-.47-1.87-.69-.47-.22-.89-.55-1.24-.98-.35-.43-.53-.99-.53-1.69s.19-1.31.57-1.81c.38-.5.9-.88,1.57-1.14.67-.26,1.43-.39,2.28-.39,1.37,0,2.47.3,3.29.89.82.6,1.26,1.43,1.31,2.51h-3.57c-.01-.33-.12-.58-.33-.75-.21-.17-.47-.25-.8-.25-.25,0-.45.07-.6.2-.16.13-.23.33-.23.57,0,.21.09.39.26.54.17.15.39.28.64.39.26.11.64.25,1.14.41.75.24,1.36.47,1.85.71.49.23.9.56,1.26.98.35.42.53.95.53,1.59s-.18,1.24-.53,1.76c-.35.52-.86.93-1.52,1.23-.66.3-1.45.45-2.35.45-1.37,0-2.5-.3-3.38-.91Z"/>
                    <path d="M93.53,28.58v8.72h-3.3v-1.24c-.28.39-.66.71-1.16.96-.49.24-1.05.37-1.69.37-1.09,0-1.96-.33-2.59-1-.63-.67-.95-1.58-.95-2.73v-5.07h3.27v4.68c0,.5.14.89.43,1.17.28.29.66.43,1.13.43s.86-.14,1.14-.43c.28-.28.42-.68.42-1.17v-4.68h3.3Z"/>
                    <path d="M102.46,29.51c.64.67.95,1.57.95,2.71v5.08h-3.28v-4.68c0-.5-.14-.89-.42-1.17-.28-.28-.65-.43-1.12-.43s-.88.14-1.16.43c-.28.29-.42.68-.42,1.17v4.68h-3.28v-8.72h3.28v1.24c.29-.39.68-.71,1.17-.96.49-.24,1.06-.37,1.69-.37,1.08,0,1.94.33,2.58,1Z"/>
                    <path d="M105.28,37.01c-.66-.26-1.19-.63-1.57-1.09-.39-.46-.6-.98-.64-1.56h3.18c.04.28.18.5.42.65.23.16.52.23.87.23.27,0,.48-.05.64-.16.16-.1.23-.24.23-.4,0-.22-.13-.38-.39-.48-.26-.1-.68-.22-1.27-.34-.67-.12-1.23-.26-1.67-.42-.45-.16-.83-.41-1.16-.76-.33-.35-.49-.83-.49-1.43,0-.52.15-.99.45-1.41s.75-.75,1.33-1c.59-.25,1.29-.37,2.12-.37,1.23,0,2.19.28,2.9.84.7.56,1.11,1.29,1.22,2.21h-2.96c-.06-.28-.19-.49-.39-.64-.21-.15-.48-.23-.83-.23-.27,0-.47.05-.61.14-.14.09-.21.22-.21.39,0,.21.13.37.39.47.26.11.67.22,1.24.33.68.13,1.25.28,1.7.45.45.17.85.43,1.19.8.34.37.51.87.51,1.5,0,.51-.16.96-.48,1.37s-.77.72-1.36.96-1.28.35-2.07.35c-.85,0-1.61-.13-2.27-.4Z"/>
                    <path d="M120.31,33.56h-6.21c.03.48.18.83.43,1.06s.57.35.96.35c.55,0,.94-.23,1.17-.68h3.5c-.15.6-.43,1.14-.85,1.61-.42.47-.95.84-1.58,1.11-.64.27-1.34.4-2.11.4-.93,0-1.75-.18-2.47-.54-.72-.36-1.28-.88-1.69-1.55-.41-.67-.61-1.47-.61-2.38s.2-1.7.6-2.37c.4-.67.96-1.18,1.68-1.55.72-.36,1.55-.54,2.49-.54s1.75.18,2.46.53c.71.35,1.27.86,1.67,1.51.4.66.6,1.43.6,2.32,0,.24-.02.48-.05.71ZM117.01,32.08c0-.37-.13-.67-.4-.88-.27-.21-.6-.32-1-.32s-.73.1-.99.3c-.26.2-.42.5-.5.89h2.9Z"/>
                    <path d="M125.57,34.71v2.59h-1.42c-2.4,0-3.6-1.1-3.6-3.31v-2.87h-1.16v-2.53h1.16v-2.11h3.3v2.11h1.71v2.53h-1.71v2.92c0,.24.06.41.18.51.12.1.32.16.59.16h.95Z"/>
                  </g>
                  <g>
                    <path d="M76.21,41.88l.85-2.16h.49l-1.08,2.55h-.53l-1.08-2.55h.49l.86,2.16Z"/>
                    <path d="M79.01,40.3c.11-.2.27-.35.47-.46.2-.11.42-.16.66-.16s.45.05.63.14c.18.1.31.22.4.36v-.47h.46v2.55h-.46v-.47c-.09.15-.23.27-.4.37s-.39.15-.62.15-.46-.06-.66-.17c-.2-.11-.35-.27-.47-.47-.11-.2-.17-.43-.17-.69s.06-.49.17-.69ZM81.04,40.49c-.08-.14-.2-.25-.34-.33-.14-.08-.3-.11-.47-.11s-.33.04-.47.11c-.14.07-.25.18-.34.33-.08.14-.13.31-.13.5s.04.37.13.51c.08.14.2.25.34.33s.3.11.47.11.33-.04.47-.11c.14-.08.25-.19.34-.33.08-.14.13-.31.13-.51s-.04-.36-.13-.5Z"/>
                    <path d="M83.86,38.83v3.44h-.46v-3.44h.46Z"/>
                    <path d="M86.1,38.83v3.44h-.46v-3.44h.46Z"/>
                    <path d="M90.37,41.16h-2.2c.02.25.11.45.28.59.17.14.37.21.61.21.2,0,.36-.04.49-.13.13-.09.22-.2.28-.34h.49c-.07.25-.22.44-.44.6s-.5.23-.82.23c-.26,0-.49-.05-.7-.16-.21-.11-.37-.26-.48-.46-.12-.2-.18-.43-.18-.7s.06-.49.17-.69c.11-.2.27-.35.48-.46s.44-.16.71-.16.49.05.69.16c.2.11.36.25.46.44.11.18.16.39.16.63,0,.08,0,.17-.02.26ZM89.8,40.4c-.08-.12-.18-.2-.31-.27-.13-.06-.28-.09-.44-.09-.23,0-.43.07-.59.2s-.26.33-.28.57h1.74c0-.16-.04-.3-.12-.42Z"/>
                    <path d="M94.36,39.72l-1.66,3.75h-.47l.54-1.23-1.11-2.52h.51l.86,2.07.85-2.07h.47Z"/>
                    <path d="M99.02,39.83c.18-.1.39-.15.62-.15s.47.05.66.16c.2.11.36.26.47.46s.17.43.17.69-.06.49-.17.69c-.11.2-.27.36-.47.47-.2.11-.42.17-.66.17s-.44-.05-.62-.15c-.18-.1-.32-.22-.41-.37v1.68h-.46v-3.76h.46v.47c.09-.15.22-.27.4-.37ZM100.36,40.49c-.08-.14-.2-.25-.34-.33-.14-.07-.3-.11-.47-.11s-.32.04-.46.11-.26.19-.34.33c-.09.14-.13.31-.13.5s.04.36.13.51c.09.14.2.25.34.33s.3.11.46.11.33-.04.47-.11c.14-.08.25-.19.34-.33.08-.14.13-.31.13-.51s-.04-.36-.13-.5Z"/>
                    <path d="M102.56,40.3c.11-.2.27-.35.47-.46.2-.11.42-.16.66-.16s.45.05.63.14c.18.1.31.22.4.36v-.47h.46v2.55h-.46v-.47c-.09.15-.23.27-.4.37s-.39.15-.62.15-.46-.06-.66-.17c-.2-.11-.35-.27-.47-.47-.11-.2-.17-.43-.17-.69s.06-.49.17-.69ZM104.59,40.49c-.08-.14-.2-.25-.34-.33-.14-.08-.3-.11-.47-.11s-.33.04-.47.11c-.14.07-.25.18-.34.33-.08.14-.13.31-.13.5s.04.37.13.51c.08.14.2.25.34.33s.3.11.47.11.33-.04.47-.11c.14-.08.25-.19.34-.33.08-.14.13-.31.13-.51s-.04-.36-.13-.5Z"/>
                    <path d="M106.97,39.23c-.06-.06-.09-.12-.09-.2s.03-.15.09-.2.13-.08.22-.08.15.03.21.08c.06.06.09.12.09.2s-.03.15-.09.2c-.06.06-.13.08-.21.08s-.16-.03-.22-.08ZM107.41,39.72v2.55h-.46v-2.55h.46Z"/>
                    <path d="M111.34,39.96c.21.19.31.46.31.81v1.5h-.45v-1.44c0-.25-.07-.45-.21-.58-.14-.14-.32-.2-.56-.2s-.43.07-.57.21c-.14.14-.21.34-.21.61v1.41h-.46v-2.55h.46v.36c.09-.13.21-.23.37-.3.16-.07.33-.11.51-.11.33,0,.61.09.81.28Z"/>
                    <path d="M113.96,40.07v1.5c0,.12.03.21.09.26.06.05.16.08.3.08h.34v.36h-.41c-.25,0-.44-.05-.57-.16-.13-.11-.19-.29-.19-.54v-1.5h-.36v-.35h.36v-.64h.46v.64h.72v.35h-.72Z"/>
                    <path d="M116.25,39.23c-.06-.06-.09-.12-.09-.2s.03-.15.09-.2.13-.08.22-.08.15.03.21.08c.06.06.09.12.09.2s-.03.15-.09.2c-.06.06-.13.08-.21.08s-.16-.03-.22-.08ZM116.69,39.72v2.55h-.46v-2.55h.46Z"/>
                    <path d="M120.62,39.96c.21.19.31.46.31.81v1.5h-.45v-1.44c0-.25-.07-.45-.21-.58-.14-.14-.32-.2-.56-.2s-.43.07-.57.21-.21.34-.21.61v1.41h-.46v-2.55h.46v.36c.09-.13.21-.23.37-.3s.33-.11.51-.11c.33,0,.61.09.81.28Z"/>
                    <path d="M124.44,39.83c.18.1.31.22.4.36v-.47h.46v2.61c0,.23-.05.44-.16.62-.11.18-.26.32-.46.43-.2.1-.43.15-.69.15-.36,0-.66-.08-.9-.24-.24-.16-.38-.37-.43-.65h.45c.05.16.15.28.31.37.16.09.35.14.57.14.25,0,.46-.07.61-.22.16-.15.24-.35.24-.61v-.54c-.09.15-.22.27-.4.37-.18.1-.38.15-.62.15s-.47-.06-.66-.17c-.2-.11-.36-.27-.47-.47-.11-.2-.17-.43-.17-.69s.06-.49.17-.69.27-.35.47-.46c.2-.11.42-.16.66-.16s.45.05.62.14ZM124.72,40.49c-.08-.14-.2-.25-.34-.33-.14-.08-.3-.11-.47-.11s-.33.04-.47.11c-.14.07-.25.18-.34.33-.08.14-.13.31-.13.5s.04.37.13.51c.08.14.2.25.34.33s.3.11.47.11.33-.04.47-.11c.14-.08.25-.19.34-.33.08-.14.13-.31.13-.51s-.04-.36-.13-.5Z"/>
                  </g>
                </g>
                <g id="Text-3" data-name="Text">
                  <g>
                    <path d="M16.2,36.5c-.88-.61-1.36-1.47-1.42-2.6h3.5c.03.38.16.66.37.84.21.18.49.26.82.26.3,0,.55-.07.75-.21.2-.14.29-.33.29-.58,0-.32-.16-.57-.49-.75-.32-.18-.85-.37-1.57-.59-.77-.24-1.39-.47-1.87-.69-.47-.22-.89-.55-1.24-.98-.35-.43-.53-.99-.53-1.69s.19-1.31.57-1.81c.38-.5.9-.88,1.57-1.14.67-.26,1.43-.39,2.28-.39,1.37,0,2.47.3,3.29.89.82.6,1.26,1.43,1.31,2.51h-3.57c-.01-.33-.12-.58-.33-.75-.21-.17-.47-.25-.8-.25-.25,0-.45.07-.6.2-.16.13-.23.33-.23.57,0,.21.09.39.26.54.17.15.39.28.64.39.26.11.64.25,1.14.41.75.24,1.36.47,1.85.71.49.23.9.56,1.26.98.35.42.53.95.53,1.59s-.18,1.24-.53,1.76c-.35.52-.86.93-1.52,1.23-.66.3-1.45.45-2.35.45-1.37,0-2.5-.3-3.38-.91Z"/>
                    <path d="M33.45,28.58v8.72h-3.3v-1.24c-.28.39-.66.71-1.16.96-.49.24-1.05.37-1.69.37-1.09,0-1.96-.33-2.59-1-.63-.67-.95-1.58-.95-2.73v-5.07h3.27v4.68c0,.5.14.89.43,1.17.28.29.66.43,1.13.43s.86-.14,1.14-.43c.28-.28.42-.68.42-1.17v-4.68h3.3Z"/>
                    <path d="M42.38,29.51c.64.67.95,1.57.95,2.71v5.08h-3.28v-4.68c0-.5-.14-.89-.42-1.17-.28-.28-.65-.43-1.12-.43s-.88.14-1.16.43c-.28.29-.42.68-.42,1.17v4.68h-3.28v-8.72h3.28v1.24c.29-.39.68-.71,1.17-.96.49-.24,1.06-.37,1.69-.37,1.08,0,1.94.33,2.58,1Z"/>
                    <path d="M45.2,37.01c-.66-.26-1.19-.63-1.57-1.09-.39-.46-.6-.98-.64-1.56h3.18c.04.28.18.5.42.65.23.16.52.23.87.23.27,0,.48-.05.64-.16.16-.1.23-.24.23-.4,0-.22-.13-.38-.39-.48-.26-.1-.68-.22-1.27-.34-.67-.12-1.23-.26-1.67-.42-.45-.16-.83-.41-1.16-.76-.33-.35-.49-.83-.49-1.43,0-.52.15-.99.45-1.41s.75-.75,1.33-1c.59-.25,1.29-.37,2.12-.37,1.23,0,2.19.28,2.9.84.7.56,1.11,1.29,1.22,2.21h-2.96c-.06-.28-.19-.49-.39-.64-.21-.15-.48-.23-.83-.23-.27,0-.47.05-.61.14-.14.09-.21.22-.21.39,0,.21.13.37.39.47.26.11.67.22,1.24.33.68.13,1.25.28,1.7.45.45.17.85.43,1.19.8.34.37.51.87.51,1.5,0,.51-.16.96-.48,1.37s-.77.72-1.36.96-1.28.35-2.07.35c-.85,0-1.61-.13-2.27-.4Z"/>
                    <path d="M60.23,33.56h-6.21c.03.48.18.83.43,1.06s.57.35.96.35c.55,0,.94-.23,1.17-.68h3.5c-.15.6-.43,1.14-.85,1.61-.42.47-.95.84-1.58,1.11-.64.27-1.34.4-2.11.4-.93,0-1.75-.18-2.47-.54-.72-.36-1.28-.88-1.69-1.55-.41-.67-.61-1.47-.61-2.38s.2-1.7.6-2.37c.4-.67.96-1.18,1.68-1.55.72-.36,1.55-.54,2.49-.54s1.75.18,2.46.53c.71.35,1.27.86,1.67,1.51.4.66.6,1.43.6,2.32,0,.24-.02.48-.05.71ZM56.93,32.08c0-.37-.13-.67-.4-.88-.27-.21-.6-.32-1-.32s-.73.1-.99.3c-.26.2-.42.5-.5.89h2.9Z"/>
                    <path d="M65.49,34.71v2.59h-1.42c-2.4,0-3.6-1.1-3.6-3.31v-2.87h-1.16v-2.53h1.16v-2.11h3.3v2.11h1.71v2.53h-1.71v2.92c0,.24.06.41.18.51.12.1.32.16.59.16h.95Z"/>
                  </g>
                  <g>
                    <path d="M16.13,41.88l.85-2.16h.49l-1.08,2.55h-.53l-1.08-2.55h.49l.86,2.16Z"/>
                    <path d="M18.93,40.3c.11-.2.27-.35.47-.46.2-.11.42-.16.66-.16s.45.05.63.14c.18.1.31.22.4.36v-.47h.46v2.55h-.46v-.47c-.09.15-.23.27-.4.37s-.39.15-.62.15-.46-.06-.66-.17c-.2-.11-.35-.27-.47-.47-.11-.2-.17-.43-.17-.69s.06-.49.17-.69ZM20.96,40.49c-.08-.14-.2-.25-.34-.33-.14-.08-.3-.11-.47-.11s-.33.04-.47.11c-.14.07-.25.18-.34.33-.08.14-.13.31-.13.5s.04.37.13.51c.08.14.2.25.34.33s.3.11.47.11.33-.04.47-.11c.14-.08.25-.19.34-.33.08-.14.13-.31.13-.51s-.04-.36-.13-.5Z"/>
                    <path d="M23.78,38.83v3.44h-.46v-3.44h.46Z"/>
                    <path d="M26.01,38.83v3.44h-.46v-3.44h.46Z"/>
                    <path d="M30.29,41.16h-2.2c.02.25.11.45.28.59.17.14.37.21.61.21.2,0,.36-.04.49-.13.13-.09.22-.2.28-.34h.49c-.07.25-.22.44-.44.6s-.5.23-.82.23c-.26,0-.49-.05-.7-.16-.21-.11-.37-.26-.48-.46-.12-.2-.18-.43-.18-.7s.06-.49.17-.69c.11-.2.27-.35.48-.46s.44-.16.71-.16.49.05.69.16c.2.11.36.25.46.44.11.18.16.39.16.63,0,.08,0,.17-.02.26ZM29.72,40.4c-.08-.12-.18-.2-.31-.27-.13-.06-.28-.09-.44-.09-.23,0-.43.07-.59.2s-.26.33-.28.57h1.74c0-.16-.04-.3-.12-.42Z"/>
                    <path d="M34.28,39.72l-1.66,3.75h-.47l.54-1.23-1.11-2.52h.51l.86,2.07.85-2.07h.47Z"/>
                    <path d="M38.94,39.83c.18-.1.39-.15.62-.15s.47.05.66.16c.2.11.36.26.47.46s.17.43.17.69-.06.49-.17.69c-.11.2-.27.36-.47.47-.2.11-.42.17-.66.17s-.44-.05-.62-.15c-.18-.1-.32-.22-.41-.37v1.68h-.46v-3.76h.46v.47c.09-.15.22-.27.4-.37ZM40.28,40.49c-.08-.14-.2-.25-.34-.33-.14-.07-.3-.11-.47-.11s-.32.04-.46.11-.26.19-.34.33c-.09.14-.13.31-.13.5s.04.36.13.51c.09.14.2.25.34.33s.3.11.46.11.33-.04.47-.11c.14-.08.25-.19.34-.33.08-.14.13-.31.13-.51s-.04-.36-.13-.5Z"/>
                    <path d="M42.48,40.3c.11-.2.27-.35.47-.46.2-.11.42-.16.66-.16s.45.05.63.14c.18.1.31.22.4.36v-.47h.46v2.55h-.46v-.47c-.09.15-.23.27-.4.37s-.39.15-.62.15-.46-.06-.66-.17c-.2-.11-.35-.27-.47-.47-.11-.2-.17-.43-.17-.69s.06-.49.17-.69ZM44.51,40.49c-.08-.14-.2-.25-.34-.33-.14-.08-.3-.11-.47-.11s-.33.04-.47.11c-.14.07-.25.18-.34.33-.08.14-.13.31-.13.5s.04.37.13.51c.08.14.2.25.34.33s.3.11.47.11.33-.04.47-.11c.14-.08.25-.19.34-.33.08-.14.13-.31.13-.51s-.04-.36-.13-.5Z"/>
                    <path d="M46.89,39.23c-.06-.06-.09-.12-.09-.2s.03-.15.09-.2.13-.08.22-.08.15.03.21.08c.06.06.09.12.09.2s-.03.15-.09.2c-.06.06-.13.08-.21.08s-.16-.03-.22-.08ZM47.33,39.72v2.55h-.46v-2.55h.46Z"/>
                    <path d="M51.26,39.96c.21.19.31.46.31.81v1.5h-.45v-1.44c0-.25-.07-.45-.21-.58-.14-.14-.32-.2-.56-.2s-.43.07-.57.21c-.14.14-.21.34-.21.61v1.41h-.46v-2.55h.46v.36c.09-.13.21-.23.37-.3.16-.07.33-.11.51-.11.33,0,.61.09.81.28Z"/>
                    <path d="M53.88,40.07v1.5c0,.12.03.21.09.26.06.05.16.08.3.08h.34v.36h-.41c-.25,0-.44-.05-.57-.16-.13-.11-.19-.29-.19-.54v-1.5h-.36v-.35h.36v-.64h.46v.64h.72v.35h-.72Z"/>
                    <path d="M56.17,39.23c-.06-.06-.09-.12-.09-.2s.03-.15.09-.2.13-.08.22-.08.15.03.21.08c.06.06.09.12.09.2s-.03.15-.09.2c-.06.06-.13.08-.21.08s-.16-.03-.22-.08ZM56.61,39.72v2.55h-.46v-2.55h.46Z"/>
                    <path d="M60.54,39.96c.21.19.31.46.31.81v1.5h-.45v-1.44c0-.25-.07-.45-.21-.58-.14-.14-.32-.2-.56-.2s-.43.07-.57.21-.21.34-.21.61v1.41h-.46v-2.55h.46v.36c.09-.13.21-.23.37-.3s.33-.11.51-.11c.33,0,.61.09.81.28Z"/>
                    <path d="M64.36,39.83c.18.1.31.22.4.36v-.47h.46v2.61c0,.23-.05.44-.16.62-.11.18-.26.32-.46.43-.2.1-.43.15-.69.15-.36,0-.66-.08-.9-.24-.24-.16-.38-.37-.43-.65h.45c.05.16.15.28.31.37.16.09.35.14.57.14.25,0,.46-.07.61-.22.16-.15.24-.35.24-.61v-.54c-.09.15-.22.27-.4.37-.18.1-.38.15-.62.15s-.47-.06-.66-.17c-.2-.11-.36-.27-.47-.47-.11-.2-.17-.43-.17-.69s.06-.49.17-.69.27-.35.47-.46c.2-.11.42-.16.66-.16s.45.05.62.14ZM64.64,40.49c-.08-.14-.2-.25-.34-.33-.14-.08-.3-.11-.47-.11s-.33.04-.47.11c-.14.07-.25.18-.34.33-.08.14-.13.31-.13.5s.04.37.13.51c.08.14.2.25.34.33s.3.11.47.11.33-.04.47-.11c.14-.08.25-.19.34-.33.08-.14.13-.31.13-.51s-.04-.36-.13-.5Z"/>
                  </g>
                </g>
                <g id="Text-4" data-name="Text">
                  <g>
                    <path d="M.15,33.56h-6.21c.03.48.18.83.43,1.06s.57.35.96.35c.55,0,.94-.23,1.17-.68H0c-.15.6-.43,1.14-.85,1.61-.42.47-.95.84-1.58,1.11-.64.27-1.34.4-2.11.4-.93,0-1.75-.18-2.47-.54-.72-.36-1.28-.88-1.69-1.55-.41-.67-.61-1.47-.61-2.38s.2-1.7.6-2.37c.4-.67.96-1.18,1.68-1.55.72-.36,1.55-.54,2.49-.54s1.75.18,2.46.53c.71.35,1.27.86,1.67,1.51.4.66.6,1.43.6,2.32,0,.24-.02.48-.05.71ZM-3.15,32.08c0-.37-.13-.67-.4-.88-.27-.21-.6-.32-1-.32s-.73.1-.99.3c-.26.2-.42.5-.5.89h2.9Z"/>
                    <path d="M5.4,34.71v2.59h-1.42c-2.4,0-3.6-1.1-3.6-3.31v-2.87H-.77v-2.53H.38v-2.11h3.3v2.11h1.71v2.53h-1.71v2.92c0,.24.06.41.18.51.12.1.32.16.59.16h.95Z"/>
                  </g>
                  <g>
                    <path d="M.46,39.96c.21.19.31.46.31.81v1.5h-.45v-1.44c0-.25-.07-.45-.21-.58-.14-.14-.32-.2-.56-.2s-.43.07-.57.21-.21.34-.21.61v1.41h-.46v-2.55h.46v.36c.09-.13.21-.23.37-.3s.33-.11.51-.11c.33,0,.61.09.81.28Z"/>
                    <path d="M4.28,39.83c.18.1.31.22.4.36v-.47h.46v2.61c0,.23-.05.44-.16.62-.11.18-.26.32-.46.43-.2.1-.43.15-.69.15-.36,0-.66-.08-.9-.24-.24-.16-.38-.37-.43-.65h.45c.05.16.15.28.31.37.16.09.35.14.57.14.25,0,.46-.07.61-.22.16-.15.24-.35.24-.61v-.54c-.09.15-.22.27-.4.37-.18.1-.38.15-.62.15s-.47-.06-.66-.17c-.2-.11-.36-.27-.47-.47-.11-.2-.17-.43-.17-.69s.06-.49.17-.69.27-.35.47-.46c.2-.11.42-.16.66-.16s.45.05.62.14ZM4.55,40.49c-.08-.14-.2-.25-.34-.33-.14-.08-.3-.11-.47-.11s-.33.04-.47.11c-.14.07-.25.18-.34.33-.08.14-.13.31-.13.5s.04.37.13.51c.08.14.2.25.34.33s.3.11.47.11.33-.04.47-.11c.14-.08.25-.19.34-.33.08-.14.13-.31.13-.51s-.04-.36-.13-.5Z"/>
                  </g>
                </g>
              </g>
              <g>
                <g id="Text-5" data-name="Text">
                  <g>
                    <path d="M102.15,62.5c-.88-.61-1.36-1.47-1.42-2.6h3.5c.03.38.16.66.37.84.21.18.49.26.82.26.3,0,.55-.07.75-.21.2-.14.29-.33.29-.58,0-.32-.16-.57-.49-.75-.32-.18-.85-.37-1.57-.59-.77-.24-1.39-.47-1.87-.69-.47-.22-.89-.55-1.24-.98-.35-.43-.53-.99-.53-1.69s.19-1.31.57-1.81c.38-.5.9-.88,1.57-1.14.67-.26,1.43-.39,2.28-.39,1.37,0,2.47.3,3.29.89.82.6,1.26,1.43,1.31,2.51h-3.57c-.01-.33-.12-.58-.33-.75-.21-.17-.47-.25-.8-.25-.25,0-.45.07-.6.2-.16.13-.23.33-.23.57,0,.21.09.39.26.54.17.15.39.28.64.39.26.11.64.25,1.14.41.75.24,1.36.47,1.85.71.49.23.9.56,1.26.98.35.42.53.95.53,1.59s-.18,1.24-.53,1.76c-.35.52-.86.93-1.52,1.23-.66.3-1.45.45-2.35.45-1.37,0-2.5-.3-3.38-.91Z"/>
                    <path d="M119.4,54.58v8.72h-3.3v-1.24c-.28.39-.66.71-1.16.96-.49.24-1.05.37-1.69.37-1.09,0-1.96-.33-2.59-1-.63-.67-.95-1.58-.95-2.73v-5.07h3.27v4.68c0,.5.14.89.43,1.17.28.29.66.43,1.13.43s.86-.14,1.14-.43c.28-.28.42-.68.42-1.17v-4.68h3.3Z"/>
                    <path d="M128.32,55.51c.64.67.95,1.57.95,2.71v5.08h-3.28v-4.68c0-.5-.14-.89-.42-1.17-.28-.28-.65-.43-1.12-.43s-.88.14-1.16.43c-.28.29-.42.68-.42,1.17v4.68h-3.28v-8.72h3.28v1.24c.29-.39.68-.71,1.17-.96.49-.24,1.06-.37,1.69-.37,1.08,0,1.94.33,2.58,1Z"/>
                    <path d="M131.15,63.01c-.66-.26-1.19-.63-1.57-1.09-.39-.46-.6-.98-.64-1.56h3.18c.04.28.18.5.42.65.23.16.52.23.87.23.27,0,.48-.05.64-.16.16-.1.23-.24.23-.4,0-.22-.13-.38-.39-.48-.26-.1-.68-.22-1.27-.34-.67-.12-1.23-.26-1.67-.42-.45-.16-.83-.41-1.16-.76-.33-.35-.49-.83-.49-1.43,0-.52.15-.99.45-1.41s.75-.75,1.33-1c.59-.25,1.29-.37,2.12-.37,1.23,0,2.19.28,2.9.84.7.56,1.11,1.29,1.22,2.21h-2.96c-.06-.28-.19-.49-.39-.64-.21-.15-.48-.23-.83-.23-.27,0-.47.05-.61.14-.14.09-.21.22-.21.39,0,.21.13.37.39.47.26.11.67.22,1.24.33.68.13,1.25.28,1.7.45.45.17.85.43,1.19.8.34.37.51.87.51,1.5,0,.51-.16.96-.48,1.37s-.77.72-1.36.96-1.28.35-2.07.35c-.85,0-1.61-.13-2.27-.4Z"/>
                    <path d="M146.17,59.56h-6.21c.03.48.18.83.43,1.06s.57.35.96.35c.55,0,.94-.23,1.17-.68h3.5c-.15.6-.43,1.14-.85,1.61-.42.47-.95.84-1.58,1.11-.64.27-1.34.4-2.11.4-.93,0-1.75-.18-2.47-.54-.72-.36-1.28-.88-1.69-1.55-.41-.67-.61-1.47-.61-2.38s.2-1.7.6-2.37c.4-.67.96-1.18,1.68-1.55.72-.36,1.55-.54,2.49-.54s1.75.18,2.46.53c.71.35,1.27.86,1.67,1.51.4.66.6,1.43.6,2.32,0,.24-.02.48-.05.71ZM142.88,58.08c0-.37-.13-.67-.4-.88-.27-.21-.6-.32-1-.32s-.73.1-.99.3c-.26.2-.42.5-.5.89h2.9Z"/>
                    <path d="M151.43,60.71v2.59h-1.42c-2.4,0-3.6-1.1-3.6-3.31v-2.87h-1.16v-2.53h1.16v-2.11h3.3v2.11h1.71v2.53h-1.71v2.92c0,.24.06.41.18.51.12.1.32.16.59.16h.95Z"/>
                  </g>
                  <g>
                    <path d="M102.08,67.88l.85-2.16h.49l-1.08,2.55h-.53l-1.08-2.55h.49l.86,2.16Z"/>
                    <path d="M104.87,66.3c.11-.2.27-.35.47-.46.2-.11.42-.16.66-.16s.45.05.63.14c.18.1.31.22.4.36v-.47h.46v2.55h-.46v-.47c-.09.15-.23.27-.4.37s-.39.15-.62.15-.46-.06-.66-.17c-.2-.11-.35-.27-.47-.47-.11-.2-.17-.43-.17-.69s.06-.49.17-.69ZM106.9,66.49c-.08-.14-.2-.25-.34-.33-.14-.08-.3-.11-.47-.11s-.33.04-.47.11c-.14.07-.25.18-.34.33-.08.14-.13.31-.13.5s.04.37.13.51c.08.14.2.25.34.33s.3.11.47.11.33-.04.47-.11c.14-.08.25-.19.34-.33.08-.14.13-.31.13-.51s-.04-.36-.13-.5Z"/>
                    <path d="M109.72,64.83v3.44h-.46v-3.44h.46Z"/>
                    <path d="M111.96,64.83v3.44h-.46v-3.44h.46Z"/>
                    <path d="M116.24,67.16h-2.2c.02.25.11.45.28.59.17.14.37.21.61.21.2,0,.36-.04.49-.13.13-.09.22-.2.28-.34h.49c-.07.25-.22.44-.44.6s-.5.23-.82.23c-.26,0-.49-.05-.7-.16-.21-.11-.37-.26-.48-.46-.12-.2-.18-.43-.18-.7s.06-.49.17-.69c.11-.2.27-.35.48-.46s.44-.16.71-.16.49.05.69.16c.2.11.36.25.46.44.11.18.16.39.16.63,0,.08,0,.17-.02.26ZM115.66,66.4c-.08-.12-.18-.2-.31-.27-.13-.06-.28-.09-.44-.09-.23,0-.43.07-.59.2s-.26.33-.28.57h1.74c0-.16-.04-.3-.12-.42Z"/>
                    <path d="M120.22,65.72l-1.66,3.75h-.47l.54-1.23-1.11-2.52h.51l.86,2.07.85-2.07h.47Z"/>
                    <path d="M124.89,65.83c.18-.1.39-.15.62-.15s.47.05.66.16c.2.11.36.26.47.46s.17.43.17.69-.06.49-.17.69c-.11.2-.27.36-.47.47-.2.11-.42.17-.66.17s-.44-.05-.62-.15c-.18-.1-.32-.22-.41-.37v1.68h-.46v-3.76h.46v.47c.09-.15.22-.27.4-.37ZM126.23,66.49c-.08-.14-.2-.25-.34-.33-.14-.07-.3-.11-.47-.11s-.32.04-.46.11-.26.19-.34.33c-.09.14-.13.31-.13.5s.04.36.13.51c.09.14.2.25.34.33s.3.11.46.11.33-.04.47-.11c.14-.08.25-.19.34-.33.08-.14.13-.31.13-.51s-.04-.36-.13-.5Z"/>
                    <path d="M128.42,66.3c.11-.2.27-.35.47-.46.2-.11.42-.16.66-.16s.45.05.63.14c.18.1.31.22.4.36v-.47h.46v2.55h-.46v-.47c-.09.15-.23.27-.4.37s-.39.15-.62.15-.46-.06-.66-.17c-.2-.11-.35-.27-.47-.47-.11-.2-.17-.43-.17-.69s.06-.49.17-.69ZM130.45,66.49c-.08-.14-.2-.25-.34-.33-.14-.08-.3-.11-.47-.11s-.33.04-.47.11c-.14.07-.25.18-.34.33-.08.14-.13.31-.13.5s.04.37.13.51c.08.14.2.25.34.33s.3.11.47.11.33-.04.47-.11c.14-.08.25-.19.34-.33.08-.14.13-.31.13-.51s-.04-.36-.13-.5Z"/>
                    <path d="M132.83,65.23c-.06-.06-.09-.12-.09-.2s.03-.15.09-.2.13-.08.22-.08.15.03.21.08c.06.06.09.12.09.2s-.03.15-.09.2c-.06.06-.13.08-.21.08s-.16-.03-.22-.08ZM133.27,65.72v2.55h-.46v-2.55h.46Z"/>
                    <path d="M137.21,65.96c.21.19.31.46.31.81v1.5h-.45v-1.44c0-.25-.07-.45-.21-.58-.14-.14-.32-.2-.56-.2s-.43.07-.57.21c-.14.14-.21.34-.21.61v1.41h-.46v-2.55h.46v.36c.09-.13.21-.23.37-.3.16-.07.33-.11.51-.11.33,0,.61.09.81.28Z"/>
                    <path d="M139.83,66.07v1.5c0,.12.03.21.09.26.06.05.16.08.3.08h.34v.36h-.41c-.25,0-.44-.05-.57-.16-.13-.11-.19-.29-.19-.54v-1.5h-.36v-.35h.36v-.64h.46v.64h.72v.35h-.72Z"/>
                    <path d="M142.11,65.23c-.06-.06-.09-.12-.09-.2s.03-.15.09-.2.13-.08.22-.08.15.03.21.08c.06.06.09.12.09.2s-.03.15-.09.2c-.06.06-.13.08-.21.08s-.16-.03-.22-.08ZM142.56,65.72v2.55h-.46v-2.55h.46Z"/>
                    <path d="M146.49,65.96c.21.19.31.46.31.81v1.5h-.45v-1.44c0-.25-.07-.45-.21-.58-.14-.14-.32-.2-.56-.2s-.43.07-.57.21-.21.34-.21.61v1.41h-.46v-2.55h.46v.36c.09-.13.21-.23.37-.3s.33-.11.51-.11c.33,0,.61.09.81.28Z"/>
                    <path d="M150.31,65.83c.18.1.31.22.4.36v-.47h.46v2.61c0,.23-.05.44-.16.62-.11.18-.26.32-.46.43-.2.1-.43.15-.69.15-.36,0-.66-.08-.9-.24-.24-.16-.38-.37-.43-.65h.45c.05.16.15.28.31.37.16.09.35.14.57.14.25,0,.46-.07.61-.22.16-.15.24-.35.24-.61v-.54c-.09.15-.22.27-.4.37-.18.1-.38.15-.62.15s-.47-.06-.66-.17c-.2-.11-.36-.27-.47-.47-.11-.2-.17-.43-.17-.69s.06-.49.17-.69.27-.35.47-.46c.2-.11.42-.16.66-.16s.45.05.62.14ZM150.58,66.49c-.08-.14-.2-.25-.34-.33-.14-.08-.3-.11-.47-.11s-.33.04-.47.11c-.14.07-.25.18-.34.33-.08.14-.13.31-.13.5s.04.37.13.51c.08.14.2.25.34.33s.3.11.47.11.33-.04.47-.11c.14-.08.25-.19.34-.33.08-.14.13-.31.13-.51s-.04-.36-.13-.5Z"/>
                  </g>
                </g>
                <g id="Text-6" data-name="Text">
                  <g>
                    <path d="M42.07,62.5c-.88-.61-1.36-1.47-1.42-2.6h3.5c.03.38.16.66.37.84.21.18.49.26.82.26.3,0,.55-.07.75-.21.2-.14.29-.33.29-.58,0-.32-.16-.57-.49-.75-.32-.18-.85-.37-1.57-.59-.77-.24-1.39-.47-1.87-.69-.47-.22-.89-.55-1.24-.98-.35-.43-.53-.99-.53-1.69s.19-1.31.57-1.81c.38-.5.9-.88,1.57-1.14.67-.26,1.43-.39,2.28-.39,1.37,0,2.47.3,3.29.89.82.6,1.26,1.43,1.31,2.51h-3.57c-.01-.33-.12-.58-.33-.75-.21-.17-.47-.25-.8-.25-.25,0-.45.07-.6.2-.16.13-.23.33-.23.57,0,.21.09.39.26.54.17.15.39.28.64.39.26.11.64.25,1.14.41.75.24,1.36.47,1.85.71.49.23.9.56,1.26.98.35.42.53.95.53,1.59s-.18,1.24-.53,1.76c-.35.52-.86.93-1.52,1.23-.66.3-1.45.45-2.35.45-1.37,0-2.5-.3-3.38-.91Z"/>
                    <path d="M59.32,54.58v8.72h-3.3v-1.24c-.28.39-.66.71-1.16.96-.49.24-1.05.37-1.69.37-1.09,0-1.96-.33-2.59-1-.63-.67-.95-1.58-.95-2.73v-5.07h3.27v4.68c0,.5.14.89.43,1.17.28.29.66.43,1.13.43s.86-.14,1.14-.43c.28-.28.42-.68.42-1.17v-4.68h3.3Z"/>
                    <path d="M68.24,55.51c.64.67.95,1.57.95,2.71v5.08h-3.28v-4.68c0-.5-.14-.89-.42-1.17-.28-.28-.65-.43-1.12-.43s-.88.14-1.16.43c-.28.29-.42.68-.42,1.17v4.68h-3.28v-8.72h3.28v1.24c.29-.39.68-.71,1.17-.96.49-.24,1.06-.37,1.69-.37,1.08,0,1.94.33,2.58,1Z"/>
                    <path d="M71.07,63.01c-.66-.26-1.19-.63-1.57-1.09-.39-.46-.6-.98-.64-1.56h3.18c.04.28.18.5.42.65.23.16.52.23.87.23.27,0,.48-.05.64-.16.16-.1.23-.24.23-.4,0-.22-.13-.38-.39-.48-.26-.1-.68-.22-1.27-.34-.67-.12-1.23-.26-1.67-.42-.45-.16-.83-.41-1.16-.76-.33-.35-.49-.83-.49-1.43,0-.52.15-.99.45-1.41s.75-.75,1.33-1c.59-.25,1.29-.37,2.12-.37,1.23,0,2.19.28,2.9.84.7.56,1.11,1.29,1.22,2.21h-2.96c-.06-.28-.19-.49-.39-.64-.21-.15-.48-.23-.83-.23-.27,0-.47.05-.61.14-.14.09-.21.22-.21.39,0,.21.13.37.39.47.26.11.67.22,1.24.33.68.13,1.25.28,1.7.45.45.17.85.43,1.19.8.34.37.51.87.51,1.5,0,.51-.16.96-.48,1.37s-.77.72-1.36.96-1.28.35-2.07.35c-.85,0-1.61-.13-2.27-.4Z"/>
                    <path d="M86.09,59.56h-6.21c.03.48.18.83.43,1.06s.57.35.96.35c.55,0,.94-.23,1.17-.68h3.5c-.15.6-.43,1.14-.85,1.61-.42.47-.95.84-1.58,1.11-.64.27-1.34.4-2.11.4-.93,0-1.75-.18-2.47-.54-.72-.36-1.28-.88-1.69-1.55-.41-.67-.61-1.47-.61-2.38s.2-1.7.6-2.37c.4-.67.96-1.18,1.68-1.55.72-.36,1.55-.54,2.49-.54s1.75.18,2.46.53c.71.35,1.27.86,1.67,1.51.4.66.6,1.43.6,2.32,0,.24-.02.48-.05.71ZM82.8,58.08c0-.37-.13-.67-.4-.88-.27-.21-.6-.32-1-.32s-.73.1-.99.3c-.26.2-.42.5-.5.89h2.9Z"/>
                    <path d="M91.35,60.71v2.59h-1.42c-2.4,0-3.6-1.1-3.6-3.31v-2.87h-1.16v-2.53h1.16v-2.11h3.3v2.11h1.71v2.53h-1.71v2.92c0,.24.06.41.18.51.12.1.32.16.59.16h.95Z"/>
                  </g>
                  <g>
                    <path d="M42,67.88l.85-2.16h.49l-1.08,2.55h-.53l-1.08-2.55h.49l.86,2.16Z"/>
                    <path d="M44.79,66.3c.11-.2.27-.35.47-.46.2-.11.42-.16.66-.16s.45.05.63.14c.18.1.31.22.4.36v-.47h.46v2.55h-.46v-.47c-.09.15-.23.27-.4.37s-.39.15-.62.15-.46-.06-.66-.17c-.2-.11-.35-.27-.47-.47-.11-.2-.17-.43-.17-.69s.06-.49.17-.69ZM46.82,66.49c-.08-.14-.2-.25-.34-.33-.14-.08-.3-.11-.47-.11s-.33.04-.47.11c-.14.07-.25.18-.34.33-.08.14-.13.31-.13.5s.04.37.13.51c.08.14.2.25.34.33s.3.11.47.11.33-.04.47-.11c.14-.08.25-.19.34-.33.08-.14.13-.31.13-.51s-.04-.36-.13-.5Z"/>
                    <path d="M49.64,64.83v3.44h-.46v-3.44h.46Z"/>
                    <path d="M51.88,64.83v3.44h-.46v-3.44h.46Z"/>
                    <path d="M56.16,67.16h-2.2c.02.25.11.45.28.59.17.14.37.21.61.21.2,0,.36-.04.49-.13.13-.09.22-.2.28-.34h.49c-.07.25-.22.44-.44.6s-.5.23-.82.23c-.26,0-.49-.05-.7-.16-.21-.11-.37-.26-.48-.46-.12-.2-.18-.43-.18-.7s.06-.49.17-.69c.11-.2.27-.35.48-.46s.44-.16.71-.16.49.05.69.16c.2.11.36.25.46.44.11.18.16.39.16.63,0,.08,0,.17-.02.26ZM55.58,66.4c-.08-.12-.18-.2-.31-.27-.13-.06-.28-.09-.44-.09-.23,0-.43.07-.59.2s-.26.33-.28.57h1.74c0-.16-.04-.3-.12-.42Z"/>
                    <path d="M60.14,65.72l-1.66,3.75h-.47l.54-1.23-1.11-2.52h.51l.86,2.07.85-2.07h.47Z"/>
                    <path d="M64.81,65.83c.18-.1.39-.15.62-.15s.47.05.66.16c.2.11.36.26.47.46s.17.43.17.69-.06.49-.17.69c-.11.2-.27.36-.47.47-.2.11-.42.17-.66.17s-.44-.05-.62-.15c-.18-.1-.32-.22-.41-.37v1.68h-.46v-3.76h.46v.47c.09-.15.22-.27.4-.37ZM66.14,66.49c-.08-.14-.2-.25-.34-.33-.14-.07-.3-.11-.47-.11s-.32.04-.46.11-.26.19-.34.33c-.09.14-.13.31-.13.5s.04.36.13.51c.09.14.2.25.34.33s.3.11.46.11.33-.04.47-.11c.14-.08.25-.19.34-.33.08-.14.13-.31.13-.51s-.04-.36-.13-.5Z"/>
                    <path d="M68.34,66.3c.11-.2.27-.35.47-.46.2-.11.42-.16.66-.16s.45.05.63.14c.18.1.31.22.4.36v-.47h.46v2.55h-.46v-.47c-.09.15-.23.27-.4.37s-.39.15-.62.15-.46-.06-.66-.17c-.2-.11-.35-.27-.47-.47-.11-.2-.17-.43-.17-.69s.06-.49.17-.69ZM70.37,66.49c-.08-.14-.2-.25-.34-.33-.14-.08-.3-.11-.47-.11s-.33.04-.47.11c-.14.07-.25.18-.34.33-.08.14-.13.31-.13.5s.04.37.13.51c.08.14.2.25.34.33s.3.11.47.11.33-.04.47-.11c.14-.08.25-.19.34-.33.08-.14.13-.31.13-.51s-.04-.36-.13-.5Z"/>
                    <path d="M72.75,65.23c-.06-.06-.09-.12-.09-.2s.03-.15.09-.2.13-.08.22-.08.15.03.21.08c.06.06.09.12.09.2s-.03.15-.09.2c-.06.06-.13.08-.21.08s-.16-.03-.22-.08ZM73.19,65.72v2.55h-.46v-2.55h.46Z"/>
                    <path d="M77.13,65.96c.21.19.31.46.31.81v1.5h-.45v-1.44c0-.25-.07-.45-.21-.58-.14-.14-.32-.2-.56-.2s-.43.07-.57.21c-.14.14-.21.34-.21.61v1.41h-.46v-2.55h.46v.36c.09-.13.21-.23.37-.3.16-.07.33-.11.51-.11.33,0,.61.09.81.28Z"/>
                    <path d="M79.75,66.07v1.5c0,.12.03.21.09.26.06.05.16.08.3.08h.34v.36h-.41c-.25,0-.44-.05-.57-.16-.13-.11-.19-.29-.19-.54v-1.5h-.36v-.35h.36v-.64h.46v.64h.72v.35h-.72Z"/>
                    <path d="M82.03,65.23c-.06-.06-.09-.12-.09-.2s.03-.15.09-.2.13-.08.22-.08.15.03.21.08c.06.06.09.12.09.2s-.03.15-.09.2c-.06.06-.13.08-.21.08s-.16-.03-.22-.08ZM82.47,65.72v2.55h-.46v-2.55h.46Z"/>
                    <path d="M86.41,65.96c.21.19.31.46.31.81v1.5h-.45v-1.44c0-.25-.07-.45-.21-.58-.14-.14-.32-.2-.56-.2s-.43.07-.57.21-.21.34-.21.61v1.41h-.46v-2.55h.46v.36c.09-.13.21-.23.37-.3s.33-.11.51-.11c.33,0,.61.09.81.28Z"/>
                    <path d="M90.23,65.83c.18.1.31.22.4.36v-.47h.46v2.61c0,.23-.05.44-.16.62-.11.18-.26.32-.46.43-.2.1-.43.15-.69.15-.36,0-.66-.08-.9-.24-.24-.16-.38-.37-.43-.65h.45c.05.16.15.28.31.37.16.09.35.14.57.14.25,0,.46-.07.61-.22.16-.15.24-.35.24-.61v-.54c-.09.15-.22.27-.4.37-.18.1-.38.15-.62.15s-.47-.06-.66-.17c-.2-.11-.36-.27-.47-.47-.11-.2-.17-.43-.17-.69s.06-.49.17-.69.27-.35.47-.46c.2-.11.42-.16.66-.16s.45.05.62.14ZM90.5,66.49c-.08-.14-.2-.25-.34-.33-.14-.08-.3-.11-.47-.11s-.33.04-.47.11c-.14.07-.25.18-.34.33-.08.14-.13.31-.13.5s.04.37.13.51c.08.14.2.25.34.33s.3.11.47.11.33-.04.47-.11c.14-.08.25-.19.34-.33.08-.14.13-.31.13-.51s-.04-.36-.13-.5Z"/>
                  </g>
                </g>
                <g id="Text-7" data-name="Text">
                  <g>
                    <path d="M8.16,55.51c.64.67.95,1.57.95,2.71v5.08h-3.28v-4.68c0-.5-.14-.89-.42-1.17-.28-.28-.65-.43-1.12-.43s-.88.14-1.16.43c-.28.29-.42.68-.42,1.17v4.68H-.56v-8.72h3.28v1.24c.29-.39.68-.71,1.17-.96.49-.24,1.06-.37,1.69-.37,1.08,0,1.94.33,2.58,1Z"/>
                    <path d="M10.98,63.01c-.66-.26-1.19-.63-1.57-1.09-.39-.46-.6-.98-.64-1.56h3.18c.04.28.18.5.42.65.23.16.52.23.87.23.27,0,.48-.05.64-.16.16-.1.23-.24.23-.4,0-.22-.13-.38-.39-.48-.26-.1-.68-.22-1.27-.34-.67-.12-1.23-.26-1.67-.42-.45-.16-.83-.41-1.16-.76-.33-.35-.49-.83-.49-1.43,0-.52.15-.99.45-1.41s.75-.75,1.33-1c.59-.25,1.29-.37,2.12-.37,1.23,0,2.19.28,2.9.84.7.56,1.11,1.29,1.22,2.21h-2.96c-.06-.28-.19-.49-.39-.64-.21-.15-.48-.23-.83-.23-.27,0-.47.05-.61.14-.14.09-.21.22-.21.39,0,.21.13.37.39.47.26.11.67.22,1.24.33.68.13,1.25.28,1.7.45.45.17.85.43,1.19.8.34.37.51.87.51,1.5,0,.51-.16.96-.48,1.37s-.77.72-1.36.96-1.28.35-2.07.35c-.85,0-1.61-.13-2.27-.4Z"/>
                    <path d="M26.01,59.56h-6.21c.03.48.18.83.43,1.06s.57.35.96.35c.55,0,.94-.23,1.17-.68h3.5c-.15.6-.43,1.14-.85,1.61-.42.47-.95.84-1.58,1.11-.64.27-1.34.4-2.11.4-.93,0-1.75-.18-2.47-.54-.72-.36-1.28-.88-1.69-1.55-.41-.67-.61-1.47-.61-2.38s.2-1.7.6-2.37c.4-.67.96-1.18,1.68-1.55.72-.36,1.55-.54,2.49-.54s1.75.18,2.46.53c.71.35,1.27.86,1.67,1.51.4.66.6,1.43.6,2.32,0,.24-.02.48-.05.71ZM22.71,58.08c0-.37-.13-.67-.4-.88-.27-.21-.6-.32-1-.32s-.73.1-.99.3c-.26.2-.42.5-.5.89h2.9Z"/>
                    <path d="M31.27,60.71v2.59h-1.42c-2.4,0-3.6-1.1-3.6-3.31v-2.87h-1.16v-2.53h1.16v-2.11h3.3v2.11h1.71v2.53h-1.71v2.92c0,.24.06.41.18.51.12.1.32.16.59.16h.95Z"/>
                  </g>
                  <g>
                    <path d="M.06,65.72l-1.66,3.75h-.47l.54-1.23-1.11-2.52h.51l.86,2.07.85-2.07H.06Z"/>
                    <path d="M4.73,65.83c.18-.1.39-.15.62-.15s.47.05.66.16c.2.11.36.26.47.46s.17.43.17.69-.06.49-.17.69c-.11.2-.27.36-.47.47-.2.11-.42.17-.66.17s-.44-.05-.62-.15c-.18-.1-.32-.22-.41-.37v1.68h-.46v-3.76h.46v.47c.09-.15.22-.27.4-.37ZM6.06,66.49c-.08-.14-.2-.25-.34-.33-.14-.07-.3-.11-.47-.11s-.32.04-.46.11-.26.19-.34.33c-.09.14-.13.31-.13.5s.04.36.13.51c.09.14.2.25.34.33s.3.11.46.11.33-.04.47-.11c.14-.08.25-.19.34-.33.08-.14.13-.31.13-.51s-.04-.36-.13-.5Z"/>
                    <path d="M8.26,66.3c.11-.2.27-.35.47-.46.2-.11.42-.16.66-.16s.45.05.63.14c.18.1.31.22.4.36v-.47h.46v2.55h-.46v-.47c-.09.15-.23.27-.4.37s-.39.15-.62.15-.46-.06-.66-.17c-.2-.11-.35-.27-.47-.47-.11-.2-.17-.43-.17-.69s.06-.49.17-.69ZM10.29,66.49c-.08-.14-.2-.25-.34-.33-.14-.08-.3-.11-.47-.11s-.33.04-.47.11c-.14.07-.25.18-.34.33-.08.14-.13.31-.13.5s.04.37.13.51c.08.14.2.25.34.33s.3.11.47.11.33-.04.47-.11c.14-.08.25-.19.34-.33.08-.14.13-.31.13-.51s-.04-.36-.13-.5Z"/>
                    <path d="M12.67,65.23c-.06-.06-.09-.12-.09-.2s.03-.15.09-.2.13-.08.22-.08.15.03.21.08c.06.06.09.12.09.2s-.03.15-.09.2c-.06.06-.13.08-.21.08s-.16-.03-.22-.08ZM13.11,65.72v2.55h-.46v-2.55h.46Z"/>
                    <path d="M17.05,65.96c.21.19.31.46.31.81v1.5h-.45v-1.44c0-.25-.07-.45-.21-.58-.14-.14-.32-.2-.56-.2s-.43.07-.57.21c-.14.14-.21.34-.21.61v1.41h-.46v-2.55h.46v.36c.09-.13.21-.23.37-.3.16-.07.33-.11.51-.11.33,0,.61.09.81.28Z"/>
                    <path d="M19.66,66.07v1.5c0,.12.03.21.09.26.06.05.16.08.3.08h.34v.36h-.41c-.25,0-.44-.05-.57-.16-.13-.11-.19-.29-.19-.54v-1.5h-.36v-.35h.36v-.64h.46v.64h.72v.35h-.72Z"/>
                    <path d="M21.95,65.23c-.06-.06-.09-.12-.09-.2s.03-.15.09-.2.13-.08.22-.08.15.03.21.08c.06.06.09.12.09.2s-.03.15-.09.2c-.06.06-.13.08-.21.08s-.16-.03-.22-.08ZM22.39,65.72v2.55h-.46v-2.55h.46Z"/>
                    <path d="M26.33,65.96c.21.19.31.46.31.81v1.5h-.45v-1.44c0-.25-.07-.45-.21-.58-.14-.14-.32-.2-.56-.2s-.43.07-.57.21-.21.34-.21.61v1.41h-.46v-2.55h.46v.36c.09-.13.21-.23.37-.3s.33-.11.51-.11c.33,0,.61.09.81.28Z"/>
                    <path d="M30.15,65.83c.18.1.31.22.4.36v-.47h.46v2.61c0,.23-.05.44-.16.62-.11.18-.26.32-.46.43-.2.1-.43.15-.69.15-.36,0-.66-.08-.9-.24-.24-.16-.38-.37-.43-.65h.45c.05.16.15.28.31.37.16.09.35.14.57.14.25,0,.46-.07.61-.22.16-.15.24-.35.24-.61v-.54c-.09.15-.22.27-.4.37-.18.1-.38.15-.62.15s-.47-.06-.66-.17c-.2-.11-.36-.27-.47-.47-.11-.2-.17-.43-.17-.69s.06-.49.17-.69.27-.35.47-.46c.2-.11.42-.16.66-.16s.45.05.62.14ZM30.42,66.49c-.08-.14-.2-.25-.34-.33-.14-.08-.3-.11-.47-.11s-.33.04-.47.11c-.14.07-.25.18-.34.33-.08.14-.13.31-.13.5s.04.37.13.51c.08.14.2.25.34.33s.3.11.47.11.33-.04.47-.11c.14-.08.25-.19.34-.33.08-.14.13-.31.13-.51s-.04-.36-.13-.5Z"/>
                  </g>
                </g>
              </g>
            </g>
            <g>
              <g id="Text-8" data-name="Text">
                <g>
                  <path d="M128.37,88.56c-.88-.61-1.36-1.47-1.42-2.6h3.5c.03.38.16.66.37.84.21.18.49.26.82.26.3,0,.55-.07.75-.21.2-.14.29-.33.29-.58,0-.32-.16-.57-.49-.75-.32-.18-.85-.37-1.57-.59-.77-.24-1.39-.47-1.87-.69-.47-.22-.89-.55-1.24-.98-.35-.43-.53-.99-.53-1.69s.19-1.31.57-1.81c.38-.5.9-.88,1.57-1.14.67-.26,1.43-.39,2.28-.39,1.37,0,2.47.3,3.29.89.82.6,1.26,1.43,1.31,2.51h-3.57c-.01-.33-.12-.58-.33-.75-.21-.17-.47-.25-.8-.25-.25,0-.45.07-.6.2-.16.13-.23.33-.23.57,0,.21.09.39.26.54.17.15.39.28.64.39.26.11.64.25,1.14.41.75.24,1.36.47,1.85.71.49.23.9.56,1.26.98.35.42.53.95.53,1.59s-.18,1.24-.53,1.76c-.35.52-.86.93-1.52,1.23-.66.3-1.45.45-2.35.45-1.37,0-2.5-.3-3.38-.91Z"/>
                  <path d="M145.61,80.64v8.72h-3.3v-1.24c-.28.39-.66.71-1.16.96-.49.24-1.05.37-1.69.37-1.09,0-1.96-.33-2.59-1-.63-.67-.95-1.58-.95-2.73v-5.07h3.27v4.68c0,.5.14.89.43,1.17.28.29.66.43,1.13.43s.86-.14,1.14-.43c.28-.28.42-.68.42-1.17v-4.68h3.3Z"/>
                  <path d="M154.54,81.57c.64.67.95,1.57.95,2.71v5.08h-3.28v-4.68c0-.5-.14-.89-.42-1.17-.28-.28-.65-.43-1.12-.43s-.88.14-1.16.43c-.28.29-.42.68-.42,1.17v4.68h-3.28v-8.72h3.28v1.24c.29-.39.68-.71,1.17-.96.49-.24,1.06-.37,1.69-.37,1.08,0,1.94.33,2.58,1Z"/>
                  <path d="M157.36,89.07c-.66-.26-1.19-.63-1.57-1.09-.39-.46-.6-.98-.64-1.56h3.18c.04.28.18.5.42.65.23.16.52.23.87.23.27,0,.48-.05.64-.16.16-.1.23-.24.23-.4,0-.22-.13-.38-.39-.48-.26-.1-.68-.22-1.27-.34-.67-.12-1.23-.26-1.67-.42-.45-.16-.83-.41-1.16-.76-.33-.35-.49-.83-.49-1.43,0-.52.15-.99.45-1.41s.75-.75,1.33-1c.59-.25,1.29-.37,2.12-.37,1.23,0,2.19.28,2.9.84.7.56,1.11,1.29,1.22,2.21h-2.96c-.06-.28-.19-.49-.39-.64-.21-.15-.48-.23-.83-.23-.27,0-.47.05-.61.14-.14.09-.21.22-.21.39,0,.21.13.37.39.47.26.11.67.22,1.24.33.68.13,1.25.28,1.7.45.45.17.85.43,1.19.8.34.37.51.87.51,1.5,0,.51-.16.96-.48,1.37s-.77.72-1.36.96-1.28.35-2.07.35c-.85,0-1.61-.13-2.27-.4Z"/>
                </g>
              </g>
              <g id="Text-9" data-name="Text">
                <g>
                  <path d="M68.29,88.56c-.88-.61-1.36-1.47-1.42-2.6h3.5c.03.38.16.66.37.84.21.18.49.26.82.26.3,0,.55-.07.75-.21.2-.14.29-.33.29-.58,0-.32-.16-.57-.49-.75-.32-.18-.85-.37-1.57-.59-.77-.24-1.39-.47-1.87-.69-.47-.22-.89-.55-1.24-.98-.35-.43-.53-.99-.53-1.69s.19-1.31.57-1.81c.38-.5.9-.88,1.57-1.14.67-.26,1.43-.39,2.28-.39,1.37,0,2.47.3,3.29.89.82.6,1.26,1.43,1.31,2.51h-3.57c-.01-.33-.12-.58-.33-.75-.21-.17-.47-.25-.8-.25-.25,0-.45.07-.6.2-.16.13-.23.33-.23.57,0,.21.09.39.26.54.17.15.39.28.64.39.26.11.64.25,1.14.41.75.24,1.36.47,1.85.71.49.23.9.56,1.26.98.35.42.53.95.53,1.59s-.18,1.24-.53,1.76c-.35.52-.86.93-1.52,1.23-.66.3-1.45.45-2.35.45-1.37,0-2.5-.3-3.38-.91Z"/>
                  <path d="M85.53,80.64v8.72h-3.3v-1.24c-.28.39-.66.71-1.16.96-.49.24-1.05.37-1.69.37-1.09,0-1.96-.33-2.59-1-.63-.67-.95-1.58-.95-2.73v-5.07h3.27v4.68c0,.5.14.89.43,1.17.28.29.66.43,1.13.43s.86-.14,1.14-.43c.28-.28.42-.68.42-1.17v-4.68h3.3Z"/>
                  <path d="M94.46,81.57c.64.67.95,1.57.95,2.71v5.08h-3.28v-4.68c0-.5-.14-.89-.42-1.17-.28-.28-.65-.43-1.12-.43s-.88.14-1.16.43c-.28.29-.42.68-.42,1.17v4.68h-3.28v-8.72h3.28v1.24c.29-.39.68-.71,1.17-.96.49-.24,1.06-.37,1.69-.37,1.08,0,1.94.33,2.58,1Z"/>
                  <path d="M97.28,89.07c-.66-.26-1.19-.63-1.57-1.09-.39-.46-.6-.98-.64-1.56h3.18c.04.28.18.5.42.65.23.16.52.23.87.23.27,0,.48-.05.64-.16.16-.1.23-.24.23-.4,0-.22-.13-.38-.39-.48-.26-.1-.68-.22-1.27-.34-.67-.12-1.23-.26-1.67-.42-.45-.16-.83-.41-1.16-.76-.33-.35-.49-.83-.49-1.43,0-.52.15-.99.45-1.41s.75-.75,1.33-1c.59-.25,1.29-.37,2.12-.37,1.23,0,2.19.28,2.9.84.7.56,1.11,1.29,1.22,2.21h-2.96c-.06-.28-.19-.49-.39-.64-.21-.15-.48-.23-.83-.23-.27,0-.47.05-.61.14-.14.09-.21.22-.21.39,0,.21.13.37.39.47.26.11.67.22,1.24.33.68.13,1.25.28,1.7.45.45.17.85.43,1.19.8.34.37.51.87.51,1.5,0,.51-.16.96-.48,1.37s-.77.72-1.36.96-1.28.35-2.07.35c-.85,0-1.61-.13-2.27-.4Z"/>
                  <path d="M112.31,85.61h-6.21c.03.48.18.83.43,1.06s.57.35.96.35c.55,0,.94-.23,1.17-.68h3.5c-.15.6-.43,1.14-.85,1.61-.42.47-.95.84-1.58,1.11-.64.27-1.34.4-2.11.4-.93,0-1.75-.18-2.47-.54-.72-.36-1.28-.88-1.69-1.55-.41-.67-.61-1.47-.61-2.38s.2-1.7.6-2.37c.4-.67.96-1.18,1.68-1.55.72-.36,1.55-.54,2.49-.54s1.75.18,2.46.53c.71.35,1.27.86,1.67,1.51.4.66.6,1.43.6,2.32,0,.24-.02.48-.05.71ZM109.01,84.14c0-.37-.13-.67-.4-.88-.27-.21-.6-.32-1-.32s-.73.1-.99.3c-.26.2-.42.5-.5.89h2.9Z"/>
                  <path d="M117.57,86.76v2.59h-1.42c-2.4,0-3.6-1.1-3.6-3.31v-2.87h-1.16v-2.53h1.16v-2.11h3.3v2.11h1.71v2.53h-1.71v2.92c0,.24.06.41.18.51.12.1.32.16.59.16h.95Z"/>
                </g>
              </g>
              <g id="Text-10" data-name="Text">
                <g>
                  <path d="M8.2,88.56c-.88-.61-1.36-1.47-1.42-2.6h3.5c.03.38.16.66.37.84.21.18.49.26.82.26.3,0,.55-.07.75-.21.2-.14.29-.33.29-.58,0-.32-.16-.57-.49-.75-.32-.18-.85-.37-1.57-.59-.77-.24-1.39-.47-1.87-.69-.47-.22-.89-.55-1.24-.98-.35-.43-.53-.99-.53-1.69s.19-1.31.57-1.81c.38-.5.9-.88,1.57-1.14.67-.26,1.43-.39,2.28-.39,1.37,0,2.47.3,3.29.89.82.6,1.26,1.43,1.31,2.51h-3.57c-.01-.33-.12-.58-.33-.75-.21-.17-.47-.25-.8-.25-.25,0-.45.07-.6.2-.16.13-.23.33-.23.57,0,.21.09.39.26.54.17.15.39.28.64.39.26.11.64.25,1.14.41.75.24,1.36.47,1.85.71.49.23.9.56,1.26.98.35.42.53.95.53,1.59s-.18,1.24-.53,1.76c-.35.52-.86.93-1.52,1.23-.66.3-1.45.45-2.35.45-1.37,0-2.5-.3-3.38-.91Z"/>
                  <path d="M25.45,80.64v8.72h-3.3v-1.24c-.28.39-.66.71-1.16.96-.49.24-1.05.37-1.69.37-1.09,0-1.96-.33-2.59-1-.63-.67-.95-1.58-.95-2.73v-5.07h3.27v4.68c0,.5.14.89.43,1.17.28.29.66.43,1.13.43s.86-.14,1.14-.43c.28-.28.42-.68.42-1.17v-4.68h3.3Z"/>
                  <path d="M34.38,81.57c.64.67.95,1.57.95,2.71v5.08h-3.28v-4.68c0-.5-.14-.89-.42-1.17-.28-.28-.65-.43-1.12-.43s-.88.14-1.16.43c-.28.29-.42.68-.42,1.17v4.68h-3.28v-8.72h3.28v1.24c.29-.39.68-.71,1.17-.96.49-.24,1.06-.37,1.69-.37,1.08,0,1.94.33,2.58,1Z"/>
                  <path d="M37.2,89.07c-.66-.26-1.19-.63-1.57-1.09-.39-.46-.6-.98-.64-1.56h3.18c.04.28.18.5.42.65.23.16.52.23.87.23.27,0,.48-.05.64-.16.16-.1.23-.24.23-.4,0-.22-.13-.38-.39-.48-.26-.1-.68-.22-1.27-.34-.67-.12-1.23-.26-1.67-.42-.45-.16-.83-.41-1.16-.76-.33-.35-.49-.83-.49-1.43,0-.52.15-.99.45-1.41s.75-.75,1.33-1c.59-.25,1.29-.37,2.12-.37,1.23,0,2.19.28,2.9.84.7.56,1.11,1.29,1.22,2.21h-2.96c-.06-.28-.19-.49-.39-.64-.21-.15-.48-.23-.83-.23-.27,0-.47.05-.61.14-.14.09-.21.22-.21.39,0,.21.13.37.39.47.26.11.67.22,1.24.33.68.13,1.25.28,1.7.45.45.17.85.43,1.19.8.34.37.51.87.51,1.5,0,.51-.16.96-.48,1.37s-.77.72-1.36.96-1.28.35-2.07.35c-.85,0-1.61-.13-2.27-.4Z"/>
                  <path d="M52.23,85.61h-6.21c.03.48.18.83.43,1.06s.57.35.96.35c.55,0,.94-.23,1.17-.68h3.5c-.15.6-.43,1.14-.85,1.61-.42.47-.95.84-1.58,1.11-.64.27-1.34.4-2.11.4-.93,0-1.75-.18-2.47-.54-.72-.36-1.28-.88-1.69-1.55-.41-.67-.61-1.47-.61-2.38s.2-1.7.6-2.37c.4-.67.96-1.18,1.68-1.55.72-.36,1.55-.54,2.49-.54s1.75.18,2.46.53c.71.35,1.27.86,1.67,1.51.4.66.6,1.43.6,2.32,0,.24-.02.48-.05.71ZM48.93,84.14c0-.37-.13-.67-.4-.88-.27-.21-.6-.32-1-.32s-.73.1-.99.3c-.26.2-.42.5-.5.89h2.9Z"/>
                  <path d="M57.49,86.76v2.59h-1.42c-2.4,0-3.6-1.1-3.6-3.31v-2.87h-1.16v-2.53h1.16v-2.11h3.3v2.11h1.71v2.53h-1.71v2.92c0,.24.06.41.18.51.12.1.32.16.59.16h.95Z"/>
                </g>
              </g>
            </g>
            <g>
              <g id="Text-11" data-name="Text">
                <path d="M154.23,10.44c-.88-.61-1.36-1.47-1.42-2.6h3.5c.03.38.16.66.37.84.21.18.49.26.82.26.3,0,.55-.07.75-.21.2-.14.29-.33.29-.58,0-.32-.16-.57-.49-.75-.32-.18-.85-.37-1.57-.59-.77-.24-1.39-.47-1.87-.69-.47-.22-.89-.55-1.24-.98-.35-.43-.53-.99-.53-1.69s.19-1.31.57-1.81c.38-.5.9-.88,1.57-1.14.67-.26,1.43-.39,2.28-.39,1.37,0,2.47.3,3.29.89.82.6,1.26,1.43,1.31,2.51h-3.57c-.01-.33-.12-.58-.33-.75-.21-.17-.47-.25-.8-.25-.25,0-.45.07-.6.2-.16.13-.23.33-.23.57,0,.21.09.39.26.54.17.15.39.28.64.39.26.11.64.25,1.14.41.75.24,1.36.47,1.85.71.49.23.9.56,1.26.98.35.42.53.95.53,1.59s-.18,1.24-.53,1.76c-.35.52-.86.93-1.52,1.23-.66.3-1.45.45-2.35.45-1.37,0-2.5-.3-3.38-.91Z"/>
                <g>
                  <path d="M154.16,15.83l.85-2.16h.49l-1.08,2.55h-.53l-1.08-2.55h.49l.86,2.16Z"/>
                  <path d="M156.95,14.25c.11-.2.27-.35.47-.46.2-.11.42-.16.66-.16s.45.05.63.14c.18.1.31.22.4.36v-.47h.46v2.55h-.46v-.47c-.09.15-.23.27-.4.37s-.39.15-.62.15-.46-.06-.66-.17c-.2-.11-.35-.27-.47-.47-.11-.2-.17-.43-.17-.69s.06-.49.17-.69ZM158.99,14.44c-.08-.14-.2-.25-.34-.33-.14-.08-.3-.11-.47-.11s-.33.04-.47.11c-.14.07-.25.18-.34.33-.08.14-.13.31-.13.5s.04.37.13.51c.08.14.2.25.34.33s.3.11.47.11.33-.04.47-.11c.14-.08.25-.19.34-.33.08-.14.13-.31.13-.51s-.04-.36-.13-.5Z"/>
                </g>
              </g>
              <g id="Text-12" data-name="Text">
                <g>
                  <path d="M94.15,10.44c-.88-.61-1.36-1.47-1.42-2.6h3.5c.03.38.16.66.37.84.21.18.49.26.82.26.3,0,.55-.07.75-.21.2-.14.29-.33.29-.58,0-.32-.16-.57-.49-.75-.32-.18-.85-.37-1.57-.59-.77-.24-1.39-.47-1.87-.69-.47-.22-.89-.55-1.24-.98-.35-.43-.53-.99-.53-1.69s.19-1.31.57-1.81c.38-.5.9-.88,1.57-1.14.67-.26,1.43-.39,2.28-.39,1.37,0,2.47.3,3.29.89.82.6,1.26,1.43,1.31,2.51h-3.57c-.01-.33-.12-.58-.33-.75-.21-.17-.47-.25-.8-.25-.25,0-.45.07-.6.2-.16.13-.23.33-.23.57,0,.21.09.39.26.54.17.15.39.28.64.39.26.11.64.25,1.14.41.75.24,1.36.47,1.85.71.49.23.9.56,1.26.98.35.42.53.95.53,1.59s-.18,1.24-.53,1.76c-.35.52-.86.93-1.52,1.23-.66.3-1.45.45-2.35.45-1.37,0-2.5-.3-3.38-.91Z"/>
                  <path d="M111.4,2.53v8.72h-3.3v-1.24c-.28.39-.66.71-1.16.96-.49.24-1.05.37-1.69.37-1.09,0-1.96-.33-2.59-1-.63-.67-.95-1.58-.95-2.73V2.53h3.27v4.68c0,.5.14.89.43,1.17.28.29.66.43,1.13.43s.86-.14,1.14-.43c.28-.28.42-.68.42-1.17V2.53h3.3Z"/>
                  <path d="M120.32,3.45c.64.67.95,1.57.95,2.71v5.08h-3.28v-4.68c0-.5-.14-.89-.42-1.17-.28-.28-.65-.43-1.12-.43s-.88.14-1.16.43c-.28.29-.42.68-.42,1.17v4.68h-3.28V2.53h3.28v1.24c.29-.39.68-.71,1.17-.96.49-.24,1.06-.37,1.69-.37,1.08,0,1.94.33,2.58,1Z"/>
                  <path d="M123.15,10.95c-.66-.26-1.19-.63-1.57-1.09-.39-.46-.6-.98-.64-1.56h3.18c.04.28.18.5.42.65.23.16.52.23.87.23.27,0,.48-.05.64-.16.16-.1.23-.24.23-.4,0-.22-.13-.38-.39-.48-.26-.1-.68-.22-1.27-.34-.67-.12-1.23-.26-1.67-.42-.45-.16-.83-.41-1.16-.76-.33-.35-.49-.83-.49-1.43,0-.52.15-.99.45-1.41s.75-.75,1.33-1c.59-.25,1.29-.37,2.12-.37,1.23,0,2.19.28,2.9.84.7.56,1.11,1.29,1.22,2.21h-2.96c-.06-.28-.19-.49-.39-.64-.21-.15-.48-.23-.83-.23-.27,0-.47.05-.61.14-.14.09-.21.22-.21.39,0,.21.13.37.39.47.26.11.67.22,1.24.33.68.13,1.25.28,1.7.45.45.17.85.43,1.19.8.34.37.51.87.51,1.5,0,.51-.16.96-.48,1.37s-.77.72-1.36.96-1.28.35-2.07.35c-.85,0-1.61-.13-2.27-.4Z"/>
                  <path d="M138.17,7.5h-6.21c.03.48.18.83.43,1.06s.57.35.96.35c.55,0,.94-.23,1.17-.68h3.5c-.15.6-.43,1.14-.85,1.61-.42.47-.95.84-1.58,1.11-.64.27-1.34.4-2.11.4-.93,0-1.75-.18-2.47-.54-.72-.36-1.28-.88-1.69-1.55-.41-.67-.61-1.47-.61-2.38s.2-1.7.6-2.37c.4-.67.96-1.18,1.68-1.55.72-.36,1.55-.54,2.49-.54s1.75.18,2.46.53c.71.35,1.27.86,1.67,1.51.4.66.6,1.43.6,2.32,0,.24-.02.48-.05.71ZM134.88,6.02c0-.37-.13-.67-.4-.88-.27-.21-.6-.32-1-.32s-.73.1-.99.3c-.26.2-.42.5-.5.89h2.9Z"/>
                  <path d="M143.43,8.65v2.59h-1.42c-2.4,0-3.6-1.1-3.6-3.31v-2.87h-1.16v-2.53h1.16V.41h3.3v2.11h1.71v2.53h-1.71v2.92c0,.24.06.41.18.51.12.1.32.16.59.16h.95Z"/>
                </g>
                <g>
                  <path d="M94.08,15.83l.85-2.16h.49l-1.08,2.55h-.53l-1.08-2.55h.49l.86,2.16Z"/>
                  <path d="M96.87,14.25c.11-.2.27-.35.47-.46.2-.11.42-.16.66-.16s.45.05.63.14c.18.1.31.22.4.36v-.47h.46v2.55h-.46v-.47c-.09.15-.23.27-.4.37s-.39.15-.62.15-.46-.06-.66-.17c-.2-.11-.35-.27-.47-.47-.11-.2-.17-.43-.17-.69s.06-.49.17-.69ZM98.9,14.44c-.08-.14-.2-.25-.34-.33-.14-.08-.3-.11-.47-.11s-.33.04-.47.11c-.14.07-.25.18-.34.33-.08.14-.13.31-.13.5s.04.37.13.51c.08.14.2.25.34.33s.3.11.47.11.33-.04.47-.11c.14-.08.25-.19.34-.33.08-.14.13-.31.13-.51s-.04-.36-.13-.5Z"/>
                  <path d="M101.72,12.77v3.44h-.46v-3.44h.46Z"/>
                  <path d="M103.96,12.77v3.44h-.46v-3.44h.46Z"/>
                  <path d="M108.24,15.1h-2.2c.02.25.11.45.28.59.17.14.37.21.61.21.2,0,.36-.04.49-.13.13-.09.22-.2.28-.34h.49c-.07.25-.22.44-.44.6s-.5.23-.82.23c-.26,0-.49-.05-.7-.16-.21-.11-.37-.26-.48-.46-.12-.2-.18-.43-.18-.7s.06-.49.17-.69c.11-.2.27-.35.48-.46s.44-.16.71-.16.49.05.69.16c.2.11.36.25.46.44.11.18.16.39.16.63,0,.08,0,.17-.02.26ZM107.66,14.34c-.08-.12-.18-.2-.31-.27-.13-.06-.28-.09-.44-.09-.23,0-.43.07-.59.2s-.26.33-.28.57h1.74c0-.16-.04-.3-.12-.42Z"/>
                  <path d="M112.22,13.67l-1.66,3.75h-.47l.54-1.23-1.11-2.52h.51l.86,2.07.85-2.07h.47Z"/>
                  <path d="M116.89,13.77c.18-.1.39-.15.62-.15s.47.05.66.16c.2.11.36.26.47.46s.17.43.17.69-.06.49-.17.69c-.11.2-.27.36-.47.47-.2.11-.42.17-.66.17s-.44-.05-.62-.15c-.18-.1-.32-.22-.41-.37v1.68h-.46v-3.76h.46v.47c.09-.15.22-.27.4-.37ZM118.23,14.43c-.08-.14-.2-.25-.34-.33-.14-.07-.3-.11-.47-.11s-.32.04-.46.11-.26.19-.34.33c-.09.14-.13.31-.13.5s.04.36.13.51c.09.14.2.25.34.33s.3.11.46.11.33-.04.47-.11c.14-.08.25-.19.34-.33.08-.14.13-.31.13-.51s-.04-.36-.13-.5Z"/>
                  <path d="M120.42,14.25c.11-.2.27-.35.47-.46.2-.11.42-.16.66-.16s.45.05.63.14c.18.1.31.22.4.36v-.47h.46v2.55h-.46v-.47c-.09.15-.23.27-.4.37s-.39.15-.62.15-.46-.06-.66-.17c-.2-.11-.35-.27-.47-.47-.11-.2-.17-.43-.17-.69s.06-.49.17-.69ZM122.45,14.44c-.08-.14-.2-.25-.34-.33-.14-.08-.3-.11-.47-.11s-.33.04-.47.11c-.14.07-.25.18-.34.33-.08.14-.13.31-.13.5s.04.37.13.51c.08.14.2.25.34.33s.3.11.47.11.33-.04.47-.11c.14-.08.25-.19.34-.33.08-.14.13-.31.13-.51s-.04-.36-.13-.5Z"/>
                  <path d="M124.83,13.17c-.06-.06-.09-.12-.09-.2s.03-.15.09-.2.13-.08.22-.08.15.03.21.08c.06.06.09.12.09.2s-.03.15-.09.2c-.06.06-.13.08-.21.08s-.16-.03-.22-.08ZM125.27,13.67v2.55h-.46v-2.55h.46Z"/>
                  <path d="M129.21,13.9c.21.19.31.46.31.81v1.5h-.45v-1.44c0-.25-.07-.45-.21-.58-.14-.14-.32-.2-.56-.2s-.43.07-.57.21c-.14.14-.21.34-.21.61v1.41h-.46v-2.55h.46v.36c.09-.13.21-.23.37-.3.16-.07.33-.11.51-.11.33,0,.61.09.81.28Z"/>
                  <path d="M131.83,14.02v1.5c0,.12.03.21.09.26.06.05.16.08.3.08h.34v.36h-.41c-.25,0-.44-.05-.57-.16-.13-.11-.19-.29-.19-.54v-1.5h-.36v-.35h.36v-.64h.46v.64h.72v.35h-.72Z"/>
                  <path d="M134.11,13.17c-.06-.06-.09-.12-.09-.2s.03-.15.09-.2.13-.08.22-.08.15.03.21.08c.06.06.09.12.09.2s-.03.15-.09.2c-.06.06-.13.08-.21.08s-.16-.03-.22-.08ZM134.56,13.67v2.55h-.46v-2.55h.46Z"/>
                  <path d="M138.49,13.9c.21.19.31.46.31.81v1.5h-.45v-1.44c0-.25-.07-.45-.21-.58-.14-.14-.32-.2-.56-.2s-.43.07-.57.21-.21.34-.21.61v1.41h-.46v-2.55h.46v.36c.09-.13.21-.23.37-.3s.33-.11.51-.11c.33,0,.61.09.81.28Z"/>
                  <path d="M142.31,13.77c.18.1.31.22.4.36v-.47h.46v2.61c0,.23-.05.44-.16.62-.11.18-.26.32-.46.43-.2.1-.43.15-.69.15-.36,0-.66-.08-.9-.24-.24-.16-.38-.37-.43-.65h.45c.05.16.15.28.31.37.16.09.35.14.57.14.25,0,.46-.07.61-.22.16-.15.24-.35.24-.61v-.54c-.09.15-.22.27-.4.37-.18.1-.38.15-.62.15s-.47-.06-.66-.17c-.2-.11-.36-.27-.47-.47-.11-.2-.17-.43-.17-.69s.06-.49.17-.69.27-.35.47-.46c.2-.11.42-.16.66-.16s.45.05.62.14ZM142.58,14.44c-.08-.14-.2-.25-.34-.33-.14-.08-.3-.11-.47-.11s-.33.04-.47.11c-.14.07-.25.18-.34.33-.08.14-.13.31-.13.5s.04.37.13.51c.08.14.2.25.34.33s.3.11.47.11.33-.04.47-.11c.14-.08.25-.19.34-.33.08-.14.13-.31.13-.51s-.04-.36-.13-.5Z"/>
                </g>
              </g>
              <g id="Text-13" data-name="Text">
                <g>
                  <path d="M34.07,10.44c-.88-.61-1.36-1.47-1.42-2.6h3.5c.03.38.16.66.37.84.21.18.49.26.82.26.3,0,.55-.07.75-.21.2-.14.29-.33.29-.58,0-.32-.16-.57-.49-.75-.32-.18-.85-.37-1.57-.59-.77-.24-1.39-.47-1.87-.69-.47-.22-.89-.55-1.24-.98-.35-.43-.53-.99-.53-1.69s.19-1.31.57-1.81c.38-.5.9-.88,1.57-1.14.67-.26,1.43-.39,2.28-.39,1.37,0,2.47.3,3.29.89.82.6,1.26,1.43,1.31,2.51h-3.57c-.01-.33-.12-.58-.33-.75-.21-.17-.47-.25-.8-.25-.25,0-.45.07-.6.2-.16.13-.23.33-.23.57,0,.21.09.39.26.54.17.15.39.28.64.39.26.11.64.25,1.14.41.75.24,1.36.47,1.85.71.49.23.9.56,1.26.98.35.42.53.95.53,1.59s-.18,1.24-.53,1.76c-.35.52-.86.93-1.52,1.23-.66.3-1.45.45-2.35.45-1.37,0-2.5-.3-3.38-.91Z"/>
                  <path d="M51.32,2.53v8.72h-3.3v-1.24c-.28.39-.66.71-1.16.96-.49.24-1.05.37-1.69.37-1.09,0-1.96-.33-2.59-1-.63-.67-.95-1.58-.95-2.73V2.53h3.27v4.68c0,.5.14.89.43,1.17.28.29.66.43,1.13.43s.86-.14,1.14-.43c.28-.28.42-.68.42-1.17V2.53h3.3Z"/>
                  <path d="M60.24,3.45c.64.67.95,1.57.95,2.71v5.08h-3.28v-4.68c0-.5-.14-.89-.42-1.17-.28-.28-.65-.43-1.12-.43s-.88.14-1.16.43c-.28.29-.42.68-.42,1.17v4.68h-3.28V2.53h3.28v1.24c.29-.39.68-.71,1.17-.96.49-.24,1.06-.37,1.69-.37,1.08,0,1.94.33,2.58,1Z"/>
                  <path d="M63.07,10.95c-.66-.26-1.19-.63-1.57-1.09-.39-.46-.6-.98-.64-1.56h3.18c.04.28.18.5.42.65.23.16.52.23.87.23.27,0,.48-.05.64-.16.16-.1.23-.24.23-.4,0-.22-.13-.38-.39-.48-.26-.1-.68-.22-1.27-.34-.67-.12-1.23-.26-1.67-.42-.45-.16-.83-.41-1.16-.76-.33-.35-.49-.83-.49-1.43,0-.52.15-.99.45-1.41s.75-.75,1.33-1c.59-.25,1.29-.37,2.12-.37,1.23,0,2.19.28,2.9.84.7.56,1.11,1.29,1.22,2.21h-2.96c-.06-.28-.19-.49-.39-.64-.21-.15-.48-.23-.83-.23-.27,0-.47.05-.61.14-.14.09-.21.22-.21.39,0,.21.13.37.39.47.26.11.67.22,1.24.33.68.13,1.25.28,1.7.45.45.17.85.43,1.19.8.34.37.51.87.51,1.5,0,.51-.16.96-.48,1.37s-.77.72-1.36.96-1.28.35-2.07.35c-.85,0-1.61-.13-2.27-.4Z"/>
                  <path d="M78.09,7.5h-6.21c.03.48.18.83.43,1.06s.57.35.96.35c.55,0,.94-.23,1.17-.68h3.5c-.15.6-.43,1.14-.85,1.61-.42.47-.95.84-1.58,1.11-.64.27-1.34.4-2.11.4-.93,0-1.75-.18-2.47-.54-.72-.36-1.28-.88-1.69-1.55-.41-.67-.61-1.47-.61-2.38s.2-1.7.6-2.37c.4-.67.96-1.18,1.68-1.55.72-.36,1.55-.54,2.49-.54s1.75.18,2.46.53c.71.35,1.27.86,1.67,1.51.4.66.6,1.43.6,2.32,0,.24-.02.48-.05.71ZM74.8,6.02c0-.37-.13-.67-.4-.88-.27-.21-.6-.32-1-.32s-.73.1-.99.3c-.26.2-.42.5-.5.89h2.9Z"/>
                  <path d="M83.35,8.65v2.59h-1.42c-2.4,0-3.6-1.1-3.6-3.31v-2.87h-1.16v-2.53h1.16V.41h3.3v2.11h1.71v2.53h-1.71v2.92c0,.24.06.41.18.51.12.1.32.16.59.16h.95Z"/>
                </g>
                <g>
                  <path d="M34,15.83l.85-2.16h.49l-1.08,2.55h-.53l-1.08-2.55h.49l.86,2.16Z"/>
                  <path d="M36.79,14.25c.11-.2.27-.35.47-.46.2-.11.42-.16.66-.16s.45.05.63.14c.18.1.31.22.4.36v-.47h.46v2.55h-.46v-.47c-.09.15-.23.27-.4.37s-.39.15-.62.15-.46-.06-.66-.17c-.2-.11-.35-.27-.47-.47-.11-.2-.17-.43-.17-.69s.06-.49.17-.69ZM38.82,14.44c-.08-.14-.2-.25-.34-.33-.14-.08-.3-.11-.47-.11s-.33.04-.47.11c-.14.07-.25.18-.34.33-.08.14-.13.31-.13.5s.04.37.13.51c.08.14.2.25.34.33s.3.11.47.11.33-.04.47-.11c.14-.08.25-.19.34-.33.08-.14.13-.31.13-.51s-.04-.36-.13-.5Z"/>
                  <path d="M41.64,12.77v3.44h-.46v-3.44h.46Z"/>
                  <path d="M43.88,12.77v3.44h-.46v-3.44h.46Z"/>
                  <path d="M48.16,15.1h-2.2c.02.25.11.45.28.59.17.14.37.21.61.21.2,0,.36-.04.49-.13.13-.09.22-.2.28-.34h.49c-.07.25-.22.44-.44.6s-.5.23-.82.23c-.26,0-.49-.05-.7-.16-.21-.11-.37-.26-.48-.46-.12-.2-.18-.43-.18-.7s.06-.49.17-.69c.11-.2.27-.35.48-.46s.44-.16.71-.16.49.05.69.16c.2.11.36.25.46.44.11.18.16.39.16.63,0,.08,0,.17-.02.26ZM47.58,14.34c-.08-.12-.18-.2-.31-.27-.13-.06-.28-.09-.44-.09-.23,0-.43.07-.59.2s-.26.33-.28.57h1.74c0-.16-.04-.3-.12-.42Z"/>
                  <path d="M52.14,13.67l-1.66,3.75h-.47l.54-1.23-1.11-2.52h.51l.86,2.07.85-2.07h.47Z"/>
                  <path d="M56.81,13.77c.18-.1.39-.15.62-.15s.47.05.66.16c.2.11.36.26.47.46s.17.43.17.69-.06.49-.17.69c-.11.2-.27.36-.47.47-.2.11-.42.17-.66.17s-.44-.05-.62-.15c-.18-.1-.32-.22-.41-.37v1.68h-.46v-3.76h.46v.47c.09-.15.22-.27.4-.37ZM58.14,14.43c-.08-.14-.2-.25-.34-.33-.14-.07-.3-.11-.47-.11s-.32.04-.46.11-.26.19-.34.33c-.09.14-.13.31-.13.5s.04.36.13.51c.09.14.2.25.34.33s.3.11.46.11.33-.04.47-.11c.14-.08.25-.19.34-.33.08-.14.13-.31.13-.51s-.04-.36-.13-.5Z"/>
                  <path d="M60.34,14.25c.11-.2.27-.35.47-.46.2-.11.42-.16.66-.16s.45.05.63.14c.18.1.31.22.4.36v-.47h.46v2.55h-.46v-.47c-.09.15-.23.27-.4.37s-.39.15-.62.15-.46-.06-.66-.17c-.2-.11-.35-.27-.47-.47-.11-.2-.17-.43-.17-.69s.06-.49.17-.69ZM62.37,14.44c-.08-.14-.2-.25-.34-.33-.14-.08-.3-.11-.47-.11s-.33.04-.47.11c-.14.07-.25.18-.34.33-.08.14-.13.31-.13.5s.04.37.13.51c.08.14.2.25.34.33s.3.11.47.11.33-.04.47-.11c.14-.08.25-.19.34-.33.08-.14.13-.31.13-.51s-.04-.36-.13-.5Z"/>
                  <path d="M64.75,13.17c-.06-.06-.09-.12-.09-.2s.03-.15.09-.2.13-.08.22-.08.15.03.21.08c.06.06.09.12.09.2s-.03.15-.09.2c-.06.06-.13.08-.21.08s-.16-.03-.22-.08ZM65.19,13.67v2.55h-.46v-2.55h.46Z"/>
                  <path d="M69.13,13.9c.21.19.31.46.31.81v1.5h-.45v-1.44c0-.25-.07-.45-.21-.58-.14-.14-.32-.2-.56-.2s-.43.07-.57.21c-.14.14-.21.34-.21.61v1.41h-.46v-2.55h.46v.36c.09-.13.21-.23.37-.3.16-.07.33-.11.51-.11.33,0,.61.09.81.28Z"/>
                  <path d="M71.75,14.02v1.5c0,.12.03.21.09.26.06.05.16.08.3.08h.34v.36h-.41c-.25,0-.44-.05-.57-.16-.13-.11-.19-.29-.19-.54v-1.5h-.36v-.35h.36v-.64h.46v.64h.72v.35h-.72Z"/>
                  <path d="M74.03,13.17c-.06-.06-.09-.12-.09-.2s.03-.15.09-.2.13-.08.22-.08.15.03.21.08c.06.06.09.12.09.2s-.03.15-.09.2c-.06.06-.13.08-.21.08s-.16-.03-.22-.08ZM74.47,13.67v2.55h-.46v-2.55h.46Z"/>
                  <path d="M78.41,13.9c.21.19.31.46.31.81v1.5h-.45v-1.44c0-.25-.07-.45-.21-.58-.14-.14-.32-.2-.56-.2s-.43.07-.57.21-.21.34-.21.61v1.41h-.46v-2.55h.46v.36c.09-.13.21-.23.37-.3s.33-.11.51-.11c.33,0,.61.09.81.28Z"/>
                  <path d="M82.23,13.77c.18.1.31.22.4.36v-.47h.46v2.61c0,.23-.05.44-.16.62-.11.18-.26.32-.46.43-.2.1-.43.15-.69.15-.36,0-.66-.08-.9-.24-.24-.16-.38-.37-.43-.65h.45c.05.16.15.28.31.37.16.09.35.14.57.14.25,0,.46-.07.61-.22.16-.15.24-.35.24-.61v-.54c-.09.15-.22.27-.4.37-.18.1-.38.15-.62.15s-.47-.06-.66-.17c-.2-.11-.36-.27-.47-.47-.11-.2-.17-.43-.17-.69s.06-.49.17-.69.27-.35.47-.46c.2-.11.42-.16.66-.16s.45.05.62.14ZM82.5,14.44c-.08-.14-.2-.25-.34-.33-.14-.08-.3-.11-.47-.11s-.33.04-.47.11c-.14.07-.25.18-.34.33-.08.14-.13.31-.13.5s.04.37.13.51c.08.14.2.25.34.33s.3.11.47.11.33-.04.47-.11c.14-.08.25-.19.34-.33.08-.14.13-.31.13-.51s-.04-.36-.13-.5Z"/>
                </g>
              </g>
              <g id="Text-14" data-name="Text">
                <g>
                  <path d="M.16,3.45c.64.67.95,1.57.95,2.71v5.08h-3.28v-4.68c0-.5-.14-.89-.42-1.17-.28-.28-.65-.43-1.12-.43s-.88.14-1.16.43c-.28.29-.42.68-.42,1.17v4.68h-3.28V2.53h3.28v1.24c.29-.39.68-.71,1.17-.96.49-.24,1.06-.37,1.69-.37,1.08,0,1.94.33,2.58,1Z"/>
                  <path d="M2.98,10.95c-.66-.26-1.19-.63-1.57-1.09-.39-.46-.6-.98-.64-1.56h3.18c.04.28.18.5.42.65.23.16.52.23.87.23.27,0,.48-.05.64-.16.16-.1.23-.24.23-.4,0-.22-.13-.38-.39-.48-.26-.1-.68-.22-1.27-.34-.67-.12-1.23-.26-1.67-.42-.45-.16-.83-.41-1.16-.76-.33-.35-.49-.83-.49-1.43,0-.52.15-.99.45-1.41s.75-.75,1.33-1c.59-.25,1.29-.37,2.12-.37,1.23,0,2.19.28,2.9.84.7.56,1.11,1.29,1.22,2.21h-2.96c-.06-.28-.19-.49-.39-.64-.21-.15-.48-.23-.83-.23-.27,0-.47.05-.61.14-.14.09-.21.22-.21.39,0,.21.13.37.39.47.26.11.67.22,1.24.33.68.13,1.25.28,1.7.45.45.17.85.43,1.19.8.34.37.51.87.51,1.5,0,.51-.16.96-.48,1.37s-.77.72-1.36.96-1.28.35-2.07.35c-.85,0-1.61-.13-2.27-.4Z"/>
                  <path d="M18.01,7.5h-6.21c.03.48.18.83.43,1.06s.57.35.96.35c.55,0,.94-.23,1.17-.68h3.5c-.15.6-.43,1.14-.85,1.61-.42.47-.95.84-1.58,1.11-.64.27-1.34.4-2.11.4-.93,0-1.75-.18-2.47-.54-.72-.36-1.28-.88-1.69-1.55-.41-.67-.61-1.47-.61-2.38s.2-1.7.6-2.37c.4-.67.96-1.18,1.68-1.55.72-.36,1.55-.54,2.49-.54s1.75.18,2.46.53c.71.35,1.27.86,1.67,1.51.4.66.6,1.43.6,2.32,0,.24-.02.48-.05.71ZM14.71,6.02c0-.37-.13-.67-.4-.88-.27-.21-.6-.32-1-.32s-.73.1-.99.3c-.26.2-.42.5-.5.89h2.9Z"/>
                  <path d="M23.27,8.65v2.59h-1.42c-2.4,0-3.6-1.1-3.6-3.31v-2.87h-1.16v-2.53h1.16V.41h3.3v2.11h1.71v2.53h-1.71v2.92c0,.24.06.41.18.51.12.1.32.16.59.16h.95Z"/>
                </g>
                <g>
                  <path d="M.26,14.25c.11-.2.27-.35.47-.46.2-.11.42-.16.66-.16s.45.05.63.14c.18.1.31.22.4.36v-.47h.46v2.55h-.46v-.47c-.09.15-.23.27-.4.37s-.39.15-.62.15-.46-.06-.66-.17c-.2-.11-.35-.27-.47-.47-.11-.2-.17-.43-.17-.69s.06-.49.17-.69ZM2.29,14.44c-.08-.14-.2-.25-.34-.33-.14-.08-.3-.11-.47-.11s-.33.04-.47.11c-.14.07-.25.18-.34.33-.08.14-.13.31-.13.5s.04.37.13.51c.08.14.2.25.34.33s.3.11.47.11.33-.04.47-.11c.14-.08.25-.19.34-.33.08-.14.13-.31.13-.51s-.04-.36-.13-.5Z"/>
                  <path d="M4.67,13.17c-.06-.06-.09-.12-.09-.2s.03-.15.09-.2.13-.08.22-.08.15.03.21.08c.06.06.09.12.09.2s-.03.15-.09.2c-.06.06-.13.08-.21.08s-.16-.03-.22-.08ZM5.11,13.67v2.55h-.46v-2.55h.46Z"/>
                  <path d="M9.05,13.9c.21.19.31.46.31.81v1.5h-.45v-1.44c0-.25-.07-.45-.21-.58-.14-.14-.32-.2-.56-.2s-.43.07-.57.21c-.14.14-.21.34-.21.61v1.41h-.46v-2.55h.46v.36c.09-.13.21-.23.37-.3.16-.07.33-.11.51-.11.33,0,.61.09.81.28Z"/>
                  <path d="M11.66,14.02v1.5c0,.12.03.21.09.26.06.05.16.08.3.08h.34v.36h-.41c-.25,0-.44-.05-.57-.16-.13-.11-.19-.29-.19-.54v-1.5h-.36v-.35h.36v-.64h.46v.64h.72v.35h-.72Z"/>
                  <path d="M13.95,13.17c-.06-.06-.09-.12-.09-.2s.03-.15.09-.2.13-.08.22-.08.15.03.21.08c.06.06.09.12.09.2s-.03.15-.09.2c-.06.06-.13.08-.21.08s-.16-.03-.22-.08ZM14.39,13.67v2.55h-.46v-2.55h.46Z"/>
                  <path d="M18.33,13.9c.21.19.31.46.31.81v1.5h-.45v-1.44c0-.25-.07-.45-.21-.58-.14-.14-.32-.2-.56-.2s-.43.07-.57.21-.21.34-.21.61v1.41h-.46v-2.55h.46v.36c.09-.13.21-.23.37-.3s.33-.11.51-.11c.33,0,.61.09.81.28Z"/>
                  <path d="M22.15,13.77c.18.1.31.22.4.36v-.47h.46v2.61c0,.23-.05.44-.16.62-.11.18-.26.32-.46.43-.2.1-.43.15-.69.15-.36,0-.66-.08-.9-.24-.24-.16-.38-.37-.43-.65h.45c.05.16.15.28.31.37.16.09.35.14.57.14.25,0,.46-.07.61-.22.16-.15.24-.35.24-.61v-.54c-.09.15-.22.27-.4.37-.18.1-.38.15-.62.15s-.47-.06-.66-.17c-.2-.11-.36-.27-.47-.47-.11-.2-.17-.43-.17-.69s.06-.49.17-.69.27-.35.47-.46c.2-.11.42-.16.66-.16s.45.05.62.14ZM22.42,14.44c-.08-.14-.2-.25-.34-.33-.14-.08-.3-.11-.47-.11s-.33.04-.47.11c-.14.07-.25.18-.34.33-.08.14-.13.31-.13.5s.04.37.13.51c.08.14.2.25.34.33s.3.11.47.11.33-.04.47-.11c.14-.08.25-.19.34-.33.08-.14.13-.31.13-.51s-.04-.36-.13-.5Z"/>
                </g>
              </g>
            </g>
          </g>
        </g>
      </g>
      <g id="Main_Logo" data-name="Main Logo">
        <g>
          <path d="M36.85,58.06l1.55-4.22h.88l-1.96,4.99h-.96l-1.96-4.99h.89l1.56,4.22Z"/>
          <path d="M41.92,54.97c.21-.39.49-.68.85-.9.36-.21.76-.32,1.21-.32s.82.09,1.14.28c.32.19.56.42.72.71v-.91h.84v4.99h-.84v-.93c-.16.29-.41.53-.73.72-.32.19-.7.29-1.13.29s-.84-.11-1.2-.33c-.36-.22-.64-.52-.85-.92-.21-.39-.31-.84-.31-1.35s.1-.96.31-1.34ZM45.61,55.34c-.15-.28-.36-.49-.61-.64-.26-.15-.54-.22-.85-.22s-.59.07-.85.22c-.25.15-.46.36-.61.64-.15.28-.23.61-.23.98s.08.71.23,1c.15.28.35.5.61.65.25.15.54.22.85.22s.59-.07.85-.22c.26-.15.46-.36.61-.65.15-.28.23-.61.23-.99s-.08-.7-.23-.98Z"/>
          <path d="M50.72,52.09v6.73h-.83v-6.73h.83Z"/>
          <path d="M54.78,52.09v6.73h-.83v-6.73h.83Z"/>
          <path d="M62.53,56.64h-3.99c.03.49.2.88.51,1.15.31.28.68.41,1.11.41.36,0,.66-.08.9-.25.24-.17.41-.39.51-.67h.89c-.13.48-.4.87-.8,1.17-.4.3-.9.45-1.49.45-.47,0-.9-.11-1.27-.32-.37-.21-.67-.51-.88-.91-.21-.39-.32-.84-.32-1.36s.1-.97.31-1.36c.21-.39.5-.69.87-.9s.8-.31,1.29-.31.89.1,1.26.31c.36.21.64.49.84.85.2.36.3.77.3,1.22,0,.16,0,.32-.03.5ZM61.5,55.15c-.14-.23-.33-.4-.57-.52-.24-.12-.51-.18-.8-.18-.42,0-.78.13-1.07.4-.29.27-.46.64-.51,1.11h3.15c0-.32-.07-.59-.21-.81Z"/>
          <path d="M69.77,53.84l-3,7.34h-.86l.98-2.4-2.01-4.93h.92l1.57,4.04,1.55-4.04h.86Z"/>
          <path d="M78.23,54.04c.32-.19.7-.29,1.13-.29s.84.11,1.21.32c.36.21.64.51.85.9.21.39.31.83.31,1.34s-.1.95-.31,1.35c-.21.39-.49.7-.85.92-.36.22-.76.33-1.21.33s-.8-.1-1.12-.29c-.32-.19-.57-.43-.74-.71v3.29h-.83v-7.35h.83v.92c.16-.29.41-.52.73-.71ZM80.65,55.33c-.15-.28-.36-.49-.61-.64-.26-.15-.54-.22-.85-.22s-.58.07-.84.22c-.26.15-.46.36-.62.65-.15.28-.23.61-.23.98s.08.71.23.99c.15.28.36.5.62.65.26.15.54.22.84.22s.59-.07.85-.22c.26-.15.46-.36.61-.65.15-.28.23-.61.23-1s-.08-.7-.23-.98Z"/>
          <path d="M84.64,54.97c.21-.39.49-.68.85-.9.36-.21.76-.32,1.21-.32s.82.09,1.14.28c.32.19.56.42.72.71v-.91h.84v4.99h-.84v-.93c-.16.29-.41.53-.73.72-.32.19-.7.29-1.13.29s-.84-.11-1.2-.33c-.36-.22-.64-.52-.85-.92-.21-.39-.31-.84-.31-1.35s.1-.96.31-1.34ZM88.32,55.34c-.15-.28-.36-.49-.61-.64-.26-.15-.54-.22-.85-.22s-.59.07-.85.22c-.25.15-.46.36-.61.64-.15.28-.23.61-.23.98s.08.71.23,1c.15.28.35.5.61.65.25.15.54.22.85.22s.59-.07.85-.22c.26-.15.46-.36.61-.65.15-.28.23-.61.23-.99s-.08-.7-.23-.98Z"/>
          <path d="M92.64,52.86c-.11-.11-.16-.24-.16-.4s.05-.29.16-.4c.11-.11.24-.16.4-.16s.28.05.39.16c.11.11.16.24.16.4s-.05.29-.16.4c-.11.11-.24.16-.39.16s-.29-.05-.4-.16ZM93.44,53.84v4.99h-.83v-4.99h.83Z"/>
          <path d="M100.57,54.3c.38.37.56.9.56,1.59v2.94h-.82v-2.82c0-.5-.12-.88-.37-1.14-.25-.26-.59-.4-1.02-.4s-.78.14-1.04.41c-.26.27-.39.67-.39,1.19v2.76h-.83v-4.99h.83v.71c.16-.25.39-.45.67-.59.28-.14.59-.21.93-.21.61,0,1.1.18,1.47.55Z"/>
          <path d="M105.33,54.52v2.94c0,.24.05.41.15.51.1.1.28.15.54.15h.61v.7h-.75c-.46,0-.81-.11-1.04-.32-.23-.21-.35-.56-.35-1.05v-2.94h-.65v-.68h.65v-1.26h.83v1.26h1.3v.68h-1.3Z"/>
          <path d="M109.48,52.86c-.11-.11-.16-.24-.16-.4s.05-.29.16-.4c.11-.11.24-.16.4-.16s.28.05.39.16c.11.11.16.24.16.4s-.05.29-.16.4c-.11.11-.24.16-.39.16s-.29-.05-.4-.16ZM110.28,53.84v4.99h-.83v-4.99h.83Z"/>
          <path d="M117.41,54.3c.38.37.56.9.56,1.59v2.94h-.82v-2.82c0-.5-.12-.88-.37-1.14-.25-.26-.59-.4-1.02-.4s-.78.14-1.04.41c-.26.27-.39.67-.39,1.19v2.76h-.83v-4.99h.83v.71c.16-.25.39-.45.67-.59.28-.14.59-.21.93-.21.61,0,1.1.18,1.47.55Z"/>
          <path d="M124.34,54.04c.32.19.57.42.72.71v-.91h.84v5.1c0,.46-.1.86-.29,1.21-.19.36-.47.63-.83.83-.36.2-.78.3-1.26.3-.66,0-1.2-.15-1.64-.46-.44-.31-.69-.73-.77-1.26h.82c.09.3.28.55.56.73.29.18.63.28,1.03.28.46,0,.83-.14,1.11-.43.29-.29.43-.69.43-1.2v-1.05c-.16.29-.41.53-.73.73-.32.19-.7.29-1.13.29s-.84-.11-1.21-.33-.64-.52-.85-.92c-.21-.39-.31-.84-.31-1.35s.1-.96.31-1.34c.21-.39.49-.68.85-.9.36-.21.76-.32,1.21-.32s.81.09,1.13.28ZM124.84,55.34c-.15-.28-.36-.49-.61-.64-.26-.15-.54-.22-.85-.22s-.59.07-.85.22c-.25.15-.46.36-.61.64-.15.28-.23.61-.23.98s.08.71.23,1c.15.28.35.5.61.65.25.15.54.22.85.22s.59-.07.85-.22c.26-.15.46-.36.61-.65.15-.28.23-.61.23-.99s-.08-.7-.23-.98Z"/>
        </g>
        <g id="EXTRA_BOLD" data-name="EXTRA BOLD">
          <g>
            <path class="cls-11" d="M43.02,50.56c-2.52,0-4.63-.61-6.25-1.82-.87-.64-1.41-1.41-1.45-1.47-.46-.65-.72-1.28-.86-1.7-.06-.13-.11-.26-.17-.39,1.59-.56,3.17-1.13,4.76-1.69.34.35.68.71,1.02,1.06.33-.19.74-.37,1.02-.2.21.12.14.36.4.59.34.3.77.45,1.32.45.49,0,.89-.12,1.2-.36.29-.23.43-.53.43-.94,0-.54-.25-.94-.76-1.24-.57-.33-1.51-.71-2.79-1.13-1.4-.47-2.54-.92-3.41-1.36-.89-.45-1.67-1.11-2.32-1.97-.66-.88-1-2.03-1-3.43s.36-2.65,1.07-3.66c.71-1.01,1.7-1.79,2.95-2.31,1.23-.51,2.65-.77,4.21-.77,2.52,0,4.57.6,6.09,1.79,1.53,1.2,2.36,2.9,2.47,5.06v.25s-6.92,0-6.92,0v-.23c-.03-.58-.19-1-.51-1.28-.33-.29-.75-.42-1.28-.42-.38,0-.69.11-.92.33-.23.22-.35.52-.35.94,0,.34.13.62.39.87.29.27.66.51,1.1.71.46.21,1.14.48,2.04.79,1.36.47,2.49.93,3.37,1.39.9.47,1.69,1.13,2.35,1.97.67.86,1,1.95,1,3.25s-.33,2.5-.99,3.55c-.66,1.04-1.62,1.88-2.85,2.48-1.23.6-2.69.9-4.35.9Z"/>
            <g class="cls-8">
              <circle class="cls-12" cx="43.13" cy="41.28" r="2.78"/>
            </g>
            <path class="cls-6" d="M42.39,28.45c1.04-.03,3.82.03,5.94,1.74.26.21.79.64,1.29,1.36.66.97,1.02,2.14,1.09,3.52h-6.44c-.02-.64-.22-1.13-.59-1.45-.37-.32-.85-.48-1.44-.48-.44,0-.81.13-1.09.39-.28.26-.42.63-.42,1.12,0,.4.16.75.47,1.04.31.29.7.54,1.16.76.46.21,1.15.48,2.06.8,1.35.46,2.46.92,3.34,1.38.88.45,1.63,1.09,2.27,1.9.63.82.95,1.85.95,3.1s-.32,2.41-.95,3.42c-.63,1.01-1.55,1.8-2.75,2.39-1.2.58-2.62.88-4.25.88-2.48,0-4.52-.59-6.11-1.77-.3-.22-.88-.68-1.42-1.46-.46-.67-.71-1.31-.84-1.76,1.56-.44,3.12-.88,4.69-1.32.78.46,1.46.83,1.99,1.1.71.36,1.03.51,1.48.51.54,0,.99-.14,1.35-.41.35-.27.53-.65.53-1.13,0-.62-.29-1.11-.88-1.45-.58-.34-1.53-.73-2.84-1.15-1.39-.46-2.51-.91-3.37-1.35-.86-.43-1.6-1.07-2.24-1.91-.64-.84-.95-1.93-.95-3.28,0-.5,0-2.03,1.03-3.52.91-1.32,2.1-1.88,2.84-2.22,1.65-.77,3.19-.81,4.11-.76Z"/>
            <g>
              <path d="M34.29,45.17c1.21-.91,2.41-1.83,3.62-2.74.08-.02.16-.05.23-.07.12.06.24.11.36.17.04.03.08.05.13.05.04,0,.08,0,.12,0,.07,0,.13.04.17.09.38.5.76.99,1.14,1.49.08.1.23.12.33.04l.61-.48s.04-.03.06-.03l.33-.13s.06-.03.09-.06l.28-.31c.06-.07.15-.09.24-.07l.19.06c.05.02.11.01.16,0l.39-.17c.09-.04.19-.02.26.06l.33.36c.09.1.26.1.35,0l.77-.92s.02-.02.03-.03l.48-.42s.03-.03.04-.05l.27-.43s.04-.05.07-.07l.36-.24.31-.19c.07-.04.15-.05.22-.01l.3.14s.06.02.1.02h.23c.08,0,.16.04.2.11l1.02,1.73c.06.1.18.14.28.1l.34-.14c.08-.03.16-.02.23.03l.43.33s.02.02.03.02l.1.05s.08.06.1.1l.47.92s.05.07.09.1l.56.32s.01,0,.02.01l.35.24c-.12.5-.35,1.22-.83,1.97-1.65,2.59-4.74,3.12-5.72,3.29-1.07.18-4.95.67-7.96-1.99-1.28-1.13-1.94-2.43-2.27-3.22Z"/>
              <g>
                <polygon class="cls-1" points="46.28 41.62 45.89 42.47 45.29 43.03 44.89 43.66 44.5 44.1 45.84 45.44 45.79 44.97 47.7 46.19 47.15 45.44 46.56 44.64 46.43 44.24 46.39 43.36 45.94 43.91 45.46 44.42 45.68 43.53 46.04 43.13 46.28 41.62"/>
                <path class="cls-1" d="M41.17,44.83l1.73,1.17,1.05-.17c-.15-.06-.49-.22-.76-.59-.22-.29-.29-.59-.31-.75l-.32.2-.27-.2.21-.78-1.33,1.11Z"/>
                <polygon class="cls-1" points="36 45.51 36.55 46.09 37.55 45.39 38.1 44.4 38.03 43.59 36 45.51"/>
                <polygon class="cls-1" points="48.34 44.01 48.73 44.97 49.37 45.56 49.56 45.42 48.95 44.82 48.34 44.01"/>
              </g>
            </g>
          </g>
          <path d="M68.06,33.14v16.96h-5.96v-2.42c-.5.77-1.2,1.39-2.09,1.86-.89.47-1.91.71-3.05.71-1.98,0-3.53-.65-4.67-1.95-1.14-1.3-1.71-3.07-1.71-5.31v-9.86h5.9v9.1c0,.97.26,1.73.77,2.28.51.55,1.19.83,2.04.83s1.55-.28,2.06-.83c.5-.55.76-1.32.76-2.28v-9.1h5.96Z"/>
          <path d="M84.17,34.94c1.15,1.3,1.72,3.06,1.72,5.28v9.89h-5.93v-9.1c0-.97-.25-1.73-.76-2.28-.5-.55-1.18-.83-2.03-.83s-1.58.28-2.09.83c-.5.55-.76,1.32-.76,2.28v9.1h-5.93v-16.96h5.93v2.42c.52-.77,1.23-1.39,2.12-1.86.89-.47,1.9-.71,3.05-.71,1.96,0,3.51.65,4.66,1.95Z"/>
          <path d="M89.27,49.54c-1.2-.51-2.15-1.22-2.84-2.12-.7-.9-1.08-1.91-1.16-3.04h5.75c.08.54.33.97.76,1.27.42.3.95.45,1.57.45.48,0,.87-.1,1.15-.3.28-.2.42-.46.42-.79,0-.42-.23-.74-.7-.94-.46-.2-1.23-.42-2.3-.67-1.21-.24-2.22-.51-3.02-.82-.81-.3-1.51-.8-2.1-1.48-.59-.69-.89-1.61-.89-2.78,0-1.01.27-1.92.82-2.74.54-.82,1.35-1.47,2.4-1.95,1.06-.48,2.33-.73,3.83-.73,2.22,0,3.96.54,5.23,1.63,1.27,1.09,2.01,2.52,2.21,4.29h-5.35c-.1-.54-.34-.96-.71-1.25-.37-.29-.87-.44-1.5-.44-.48,0-.85.09-1.1.27-.25.18-.38.43-.38.76,0,.4.23.71.7.92.46.21,1.21.43,2.24.65,1.23.26,2.25.55,3.07.88.82.32,1.53.84,2.15,1.56.61.72.92,1.69.92,2.92,0,.99-.29,1.87-.86,2.66-.57.79-1.39,1.41-2.45,1.86s-2.3.68-3.73.68c-1.53,0-2.9-.26-4.1-.77Z"/>
          <path d="M116.41,42.81h-11.22c.06.93.32,1.62.77,2.07.45.45,1.03.68,1.74.68.99,0,1.69-.44,2.12-1.33h6.32c-.26,1.17-.77,2.21-1.53,3.13-.76.92-1.71,1.64-2.86,2.16-1.15.52-2.42.79-3.81.79-1.67,0-3.16-.35-4.46-1.06-1.3-.71-2.32-1.71-3.05-3.02-.74-1.31-1.1-2.85-1.1-4.63s.36-3.31,1.09-4.61,1.74-2.3,3.04-3.01c1.3-.71,2.8-1.06,4.49-1.06s3.15.34,4.44,1.03c1.29.69,2.3,1.67,3.02,2.95.73,1.28,1.09,2.79,1.09,4.52,0,.46-.03.93-.09,1.39ZM110.45,39.94c0-.73-.24-1.3-.73-1.71-.48-.41-1.09-.62-1.81-.62s-1.32.2-1.78.59c-.46.39-.77.97-.91,1.74h5.23Z"/>
          <path d="M125.9,45.05v5.05h-2.57c-4.33,0-6.5-2.15-6.5-6.44v-5.59h-2.09v-4.93h2.09v-4.11h5.96v4.11h3.08v4.93h-3.08v5.68c0,.46.11.8.32,1,.21.2.57.3,1.07.3h1.72Z"/>
        </g>
        <g>
          <line class="cls-3" x1="50.38" y1="30.29" x2="114.71" y2="30.29"/>
          <line class="cls-5" x1="63.41" y1="30.29" x2="114.71" y2="30.29"/>
          <line class="cls-4" x1="81.19" y1="30.29" x2="114.71" y2="30.29"/>
          <line class="cls-7" x1="98.8" y1="30.29" x2="114.71" y2="30.29"/>
        </g>
      </g>
    </g>
  </g>
</svg>