<?xml version="1.0" encoding="UTF-8"?>
<svg id="Layer_2" xmlns="http://www.w3.org/2000/svg" version="1.1" viewBox="0 0 928.1 347.1">
  <!-- Generator: Adobe Illustrator 30.2.1, SVG Export Plug-In . SVG Version: 2.1.1 Build 1)  -->
  <defs>
    <style>
      .st0 {
        fill: #d86044;
      }

      .st1 {
        fill: #dcd3c4;
      }

      .st2 {
        fill: #2b2b2b;
      }
    </style>
  </defs>
  <g id="Layer_1-2">
    <g id="TS_-_Main">
      <g id="TS_-_Icon">
        <g>
          <path class="st1" d="M497.4,282h8.1c20.9,0,37.9,17,37.9,37.9v19.4c0,1.6-1.3,2.8-2.8,2.8h-82.6c-1.6,0-2.8-1.3-2.8-2.8v-15c0-23.3,18.9-42.2,42.2-42.2h0Z"/>
          <g>
            <path class="st0" d="M446.1,301h-1c-1.7,0-3.1,1.4-3.1,3.1v34.7c0,1.7,1.4,3.1,3.1,3.1h10.2c1.7.1,3.2-1.3,3.2-3v-11.9c0-13.6,6-26.6,16.4-35.3,15.6-13,38.4-12.1,53.1,2,9,8.7,13.9,20.3,14.1,32.7v12.5c0,1.7,1.5,3.1,3.2,3.1h10.3c1.7,0,3.1-1.5,3.1-3.2v-34.7c0-1.7-1.4-3.1-3.1-3.1h-.9c-1,0-1.9-.5-2.5-1.2l-16.8-22.2-11.8-14.6c-.5-.6-.7-1.2-.7-2v-10.4c0-1.7-1.4-3.1-3.2-3.1h-37.5c-2.5,0-4.5,2-4.5,4.4v9.1c0,.7-.3,1.4-.7,2l-11.7,14.6-16.7,22.2c-.6.8-1.5,1.2-2.5,1.2h0Z"/>
            <path class="st0" d="M534.4,324c0-10.8-5.7-20.5-14.6-27-11-8.2-26.2-8.5-37.6-.9-9.9,6.6-15.4,16.8-16.1,28.2v16.5c0,.8.7,1.5,1.5,1.5h65.3c.8,0,1.5-.7,1.5-1.5v-16.7c0,0,0,0,0,0Z"/>
          </g>
        </g>
      </g>
      <g>
        <path class="st2" d="M28,267.1H0v-20.2h79.9v20.2h-28.2v75.9h-23.8s0-75.9,0-75.9Z"/>
        <path class="st2" d="M61.5,308.8c0-20.7,14.8-36.4,36.8-36.4s36.7,15.7,36.7,36.4-14.5,36.4-36.7,36.4-36.8-15.7-36.8-36.4h0ZM112.9,308.8c0-12.5-5.1-21-14.7-21s-14.5,8.5-14.5,21,5,20.8,14.5,20.8,14.7-8.3,14.7-20.8Z"/>
        <path class="st2" d="M135.7,274.2h21v9.8h.4c4.3-7.1,10.9-11.8,20.8-11.8s15.9,4.7,19.4,12.1h.3c5.4-8.3,12.8-12.1,21.6-12.1,15.6,0,23.4,10.6,23.4,26.1v44.8h-21.9v-40.9c0-7.4-3.1-11.7-9.7-11.7s-10.9,5.8-10.9,14v38.6h-21.9v-40.9c0-7.4-3.1-11.7-9.7-11.7s-10.9,5.8-10.9,14v38.6h-21.9v-68.8h0Z"/>
        <path class="st2" d="M267,334.3h-.3v8.7h-21v-96.1h21.9v35.1h.4c4.3-5.9,10.2-9.8,19.6-9.8,17.9,0,29.4,15.7,29.4,36.4s-11.6,36.5-29.3,36.5-16.5-3.8-20.8-10.9ZM294.9,308.5c0-11.8-4.7-19.6-13.6-19.6s-14.4,8.5-14.4,19.8,5.6,19.2,14.6,19.2,13.3-7.4,13.3-19.4h0Z"/>
        <path class="st2" d="M314.7,308.8c0-20.7,14.8-36.4,36.8-36.4s36.7,15.7,36.7,36.4-14.5,36.4-36.7,36.4-36.8-15.7-36.8-36.4h0ZM366,308.8c0-12.5-5.1-21-14.6-21s-14.5,8.5-14.5,21,5,20.8,14.5,20.8,14.6-8.3,14.6-20.8Z"/>
        <path class="st2" d="M388.8,274.2h21v10.8h.4c4.8-8.2,10.5-11.8,18.8-11.8s3.4.1,4.3.5v18.8h-.5c-13.4-1.9-22,4.7-22,19.6v30.9h-21.9v-68.8h0Z"/>
      </g>
      <g>
        <path class="st2" d="M567.5,314.5h23.9c1.1,9.7,7.4,13.7,18.8,13.7s15.5-2.8,15.5-10.1-7.8-9.3-21-12.5c-16.7-3.9-34.3-9-34.3-29.2s16.7-29.6,38.2-29.6,37,9.4,37.9,29.6h-23.2c-.9-7.4-6.6-11.6-15.5-11.6s-13.8,3.6-13.8,9,7.4,8.3,21.8,11.6c17.9,4.2,34,9.7,34,30.2s-17.2,31.3-39.4,31.3-42.3-11.3-42.9-32.5h0Z"/>
        <path class="st2" d="M655.3,326.6v-37h-9.1v-13.7h9.1v-21.8h21.4v21.8h12.5v13.7h-12.5v32.2c0,5.4,3,6.7,7.7,6.7s4-.1,4.8-.1v16c-1.9.5-6,1.1-12,1.1-12.8,0-21.9-4.2-21.9-19h0Z"/>
        <path class="st2" d="M689.9,321.1v-45.1h21.8v40.6c0,7.5,3.4,11.7,10.3,11.7s12.1-5.6,12.1-13.8v-38.4h21.9v68.8h-21v-8.5h-.4c-5,6.7-11,10.5-20.6,10.5-15.9,0-24.2-10.4-24.2-25.7h0Z"/>
        <path class="st2" d="M756.7,310.4c0-21.5,12.4-36.4,30.1-36.4s15.2,4,19.2,9.8h.4v-35.1h21.9v96.1h-21v-9.3h-.3c-4.2,7.1-11.3,11.4-20.3,11.4-17.6,0-30.1-13.6-30.1-36.5h0ZM806.9,310.4c0-11.6-4.7-19.9-14.2-19.9s-13.8,8.1-13.8,19.6,5.1,19.5,13.6,19.5,14.5-7.9,14.5-19.2Z"/>
        <path class="st2" d="M832,248.7h21.9v17.7h-21.9v-17.7ZM832,276h21.9v68.8h-21.9v-68.8h0Z"/>
        <path class="st2" d="M854.6,310.5c0-20.7,14.8-36.4,36.8-36.4s36.7,15.7,36.7,36.4-14.5,36.4-36.7,36.4-36.8-15.7-36.8-36.4ZM905.9,310.5c0-12.5-5.1-21-14.7-21s-14.5,8.5-14.5,21,5,20.8,14.5,20.8,14.7-8.3,14.7-20.8Z"/>
      </g>
    </g>
  </g>
</svg>