<?xml version="1.0" encoding="UTF-8"?>
<svg id="Layer_2" data-name="Layer 2" xmlns="http://www.w3.org/2000/svg" viewBox="0 0 805.09 100.1">
  <defs>
    <style>
      .cls-1 {
        fill: #2b2b2b;
      }
    </style>
  </defs>
  <g id="Layer_1-2" data-name="Layer 1">
    <g>
      <path class="cls-1" d="M27.95,21.9H0V1.75h79.95v20.16h-28.22v75.92h-23.78V21.9Z"/>
      <path class="cls-1" d="M61.54,63.56c0-20.69,14.78-36.41,36.82-36.41s36.68,15.72,36.68,36.41-14.51,36.41-36.68,36.41-36.82-15.72-36.82-36.41ZM112.87,63.56c0-12.5-5.11-20.96-14.65-20.96s-14.51,8.47-14.51,20.96,4.97,20.83,14.51,20.83,14.65-8.33,14.65-20.83Z"/>
      <path class="cls-1" d="M135.71,29.02h20.96v9.81h.4c4.3-7.12,10.88-11.83,20.83-11.83,9,0,15.86,4.7,19.35,12.09h.27c5.37-8.33,12.76-12.09,21.63-12.09,15.59,0,23.38,10.62,23.38,26.07v44.74h-21.9v-40.85c0-7.39-3.09-11.69-9.67-11.69-6.99,0-10.88,5.78-10.88,13.97v38.56h-21.9v-40.85c0-7.39-3.09-11.69-9.67-11.69s-10.88,5.78-10.88,13.97v38.56h-21.9V29.02Z"/>
      <path class="cls-1" d="M266.98,89.09h-.27v8.73h-20.96V1.75h21.9v35.07h.4c4.3-5.91,10.21-9.81,19.62-9.81,17.87,0,29.43,15.72,29.43,36.41,0,22.84-11.56,36.55-29.29,36.55-9.14,0-16.53-3.76-20.83-10.88ZM294.93,63.29c0-11.83-4.7-19.62-13.57-19.62-9.67,0-14.38,8.46-14.38,19.75s5.64,19.21,14.65,19.21,13.3-7.39,13.3-19.35Z"/>
      <path class="cls-1" d="M314.67,63.56c0-20.69,14.78-36.41,36.82-36.41s36.68,15.72,36.68,36.41-14.51,36.41-36.68,36.41-36.82-15.72-36.82-36.41ZM366,63.56c0-12.5-5.11-20.96-14.65-20.96s-14.51,8.47-14.51,20.96,4.97,20.83,14.51,20.83,14.65-8.33,14.65-20.83Z"/>
      <path class="cls-1" d="M388.84,29.02h20.96v10.75h.4c4.84-8.2,10.48-11.83,18.81-11.83,2.02,0,3.36.13,4.3.54v18.81h-.54c-13.44-1.88-22.04,4.7-22.04,19.62v30.9h-21.9V29.02Z"/>
      <path class="cls-1" d="M444.47,67.59h23.92c1.07,9.67,7.39,13.71,18.81,13.71,7.79,0,15.45-2.82,15.45-10.08,0-7.66-7.79-9.27-20.96-12.5-16.66-3.9-34.26-9-34.26-29.16S464.08,0,485.58,0s36.95,9.41,37.89,29.56h-23.25c-.94-7.39-6.58-11.56-15.45-11.56-8.33,0-13.84,3.63-13.84,9,0,6.72,7.39,8.33,21.77,11.56,17.87,4.17,34,9.67,34,30.23s-17.2,31.31-39.37,31.31c-25.53,0-42.33-11.29-42.86-32.52Z"/>
      <path class="cls-1" d="M532.34,79.68v-36.95h-9.14v-13.71h9.14V7.26h21.36v21.77h12.5v13.71h-12.5v32.25c0,5.38,2.96,6.72,7.66,6.72,1.88,0,4.03-.13,4.84-.13v15.99c-1.88.54-6.05,1.08-11.96,1.08-12.77,0-21.9-4.17-21.9-18.95Z"/>
      <path class="cls-1" d="M566.87,74.17V29.02h21.77v40.58c0,7.52,3.36,11.69,10.35,11.69,7.52,0,12.09-5.64,12.09-13.84V29.02h21.9v68.8h-20.96v-8.46h-.4c-4.97,6.72-11.02,10.48-20.56,10.48-15.86,0-24.19-10.35-24.19-25.66Z"/>
      <path class="cls-1" d="M633.65,63.42c0-21.5,12.36-36.41,30.1-36.41,9.67,0,15.18,4.03,19.21,9.81h.4V1.75h21.9v96.07h-20.96v-9.27h-.27c-4.17,7.12-11.29,11.42-20.29,11.42-17.6,0-30.1-13.57-30.1-36.55ZM683.9,63.42c0-11.56-4.7-19.89-14.24-19.89-8.73,0-13.84,8.06-13.84,19.62s5.11,19.48,13.57,19.48c9.14,0,14.51-7.93,14.51-19.21Z"/>
      <path class="cls-1" d="M709.02,1.75h21.9v17.74h-21.9V1.75ZM709.02,29.02h21.9v68.8h-21.9V29.02Z"/>
      <path class="cls-1" d="M731.59,63.56c0-20.69,14.78-36.41,36.82-36.41s36.68,15.72,36.68,36.41-14.51,36.41-36.68,36.41-36.82-15.72-36.82-36.41ZM782.92,63.56c0-12.5-5.11-20.96-14.65-20.96s-14.51,8.47-14.51,20.96,4.97,20.83,14.51,20.83,14.65-8.33,14.65-20.83Z"/>
    </g>
  </g>
</svg>