<?xml version="1.0" encoding="UTF-8"?>
<svg id="Layer_2" xmlns="http://www.w3.org/2000/svg" version="1.1" viewBox="0 0 805.1 100.1">
  <!-- Generator: Adobe Illustrator 30.2.1, SVG Export Plug-In . SVG Version: 2.1.1 Build 1)  -->
  <defs>
    <style>
      .st0 {
        fill: #d86044;
      }
    </style>
  </defs>
  <g id="Layer_1-2">
    <g>
      <path class="st0" d="M28,21.9H0V1.8h79.9v20.2h-28.2v75.9h-23.8s0-75.9,0-75.9Z"/>
      <path class="st0" d="M61.5,63.6c0-20.7,14.8-36.4,36.8-36.4s36.7,15.7,36.7,36.4-14.5,36.4-36.7,36.4-36.8-15.7-36.8-36.4ZM112.9,63.6c0-12.5-5.1-21-14.7-21s-14.5,8.5-14.5,21,5,20.8,14.5,20.8,14.7-8.3,14.7-20.8Z"/>
      <path class="st0" d="M135.7,29h21v9.8h.4c4.3-7.1,10.9-11.8,20.8-11.8s15.9,4.7,19.4,12.1h.3c5.4-8.3,12.8-12.1,21.6-12.1,15.6,0,23.4,10.6,23.4,26.1v44.7h-21.9v-40.8c0-7.4-3.1-11.7-9.7-11.7s-10.9,5.8-10.9,14v38.6h-21.9v-40.8c0-7.4-3.1-11.7-9.7-11.7s-10.9,5.8-10.9,14v38.6h-21.9V29h0Z"/>
      <path class="st0" d="M267,89.1h-.3v8.7h-21V1.8h21.9v35.1h.4c4.3-5.9,10.2-9.8,19.6-9.8,17.9,0,29.4,15.7,29.4,36.4s-11.6,36.6-29.3,36.6-16.5-3.8-20.8-10.9ZM294.9,63.3c0-11.8-4.7-19.6-13.6-19.6s-14.4,8.5-14.4,19.8,5.6,19.2,14.6,19.2,13.3-7.4,13.3-19.3h0Z"/>
      <path class="st0" d="M314.7,63.6c0-20.7,14.8-36.4,36.8-36.4s36.7,15.7,36.7,36.4-14.5,36.4-36.7,36.4-36.8-15.7-36.8-36.4ZM366,63.6c0-12.5-5.1-21-14.6-21s-14.5,8.5-14.5,21,5,20.8,14.5,20.8,14.6-8.3,14.6-20.8Z"/>
      <path class="st0" d="M388.8,29h21v10.8h.4c4.8-8.2,10.5-11.8,18.8-11.8s3.4.1,4.3.5v18.8h-.5c-13.4-1.9-22,4.7-22,19.6v30.9h-21.9V29h0Z"/>
      <path class="st0" d="M444.5,67.6h23.9c1.1,9.7,7.4,13.7,18.8,13.7s15.5-2.8,15.5-10.1-7.8-9.3-21-12.5c-16.7-3.9-34.3-9-34.3-29.2S464.1,0,485.6,0s36.9,9.4,37.9,29.6h-23.2c-.9-7.4-6.6-11.6-15.5-11.6s-13.8,3.6-13.8,9,7.4,8.3,21.8,11.6c17.9,4.2,34,9.7,34,30.2s-17.2,31.3-39.4,31.3-42.3-11.3-42.9-32.5h0Z"/>
      <path class="st0" d="M532.3,79.7v-37h-9.1v-13.7h9.1V7.3h21.4v21.8h12.5v13.7h-12.5v32.3c0,5.4,3,6.7,7.7,6.7s4-.1,4.8-.1v16c-1.9.5-6,1.1-12,1.1-12.8,0-21.9-4.2-21.9-18.9h0Z"/>
      <path class="st0" d="M566.9,74.2V29h21.8v40.6c0,7.5,3.4,11.7,10.3,11.7s12.1-5.6,12.1-13.8V29h21.9v68.8h-21v-8.5h-.4c-5,6.7-11,10.5-20.6,10.5-15.9,0-24.2-10.3-24.2-25.7h0Z"/>
      <path class="st0" d="M633.7,63.4c0-21.5,12.4-36.4,30.1-36.4s15.2,4,19.2,9.8h.4V1.8h21.9v96.1h-21v-9.3h-.3c-4.2,7.1-11.3,11.4-20.3,11.4-17.6,0-30.1-13.6-30.1-36.5h0ZM683.9,63.4c0-11.6-4.7-19.9-14.2-19.9s-13.8,8.1-13.8,19.6,5.1,19.5,13.6,19.5,14.5-7.9,14.5-19.2Z"/>
      <path class="st0" d="M709,1.8h21.9v17.7h-21.9V1.8ZM709,29h21.9v68.8h-21.9V29Z"/>
      <path class="st0" d="M731.6,63.6c0-20.7,14.8-36.4,36.8-36.4s36.7,15.7,36.7,36.4-14.5,36.4-36.7,36.4-36.8-15.7-36.8-36.4ZM782.9,63.6c0-12.5-5.1-21-14.7-21s-14.5,8.5-14.5,21,5,20.8,14.5,20.8,14.7-8.3,14.7-20.8Z"/>
    </g>
  </g>
</svg>