<?xml version="1.0" encoding="UTF-8"?>
<svg id="Layer_2" data-name="Layer 2" xmlns="http://www.w3.org/2000/svg" viewBox="0 0 317.03 257.22">
  <defs>
    <style>
      .cls-1 {
        fill: #d86044;
      }

      .cls-2 {
        fill: #dcd3c4;
      }
    </style>
  </defs>
  <g id="Layer_1-2" data-name="Layer 1">
    <g id="TS_-_Icon" data-name="TS - Icon">
      <g>
        <path class="cls-2" d="M77.91,93.87h159.63c20.91,0,37.88,16.97,37.88,37.88v122.63c0,1.57-1.27,2.84-2.84,2.84H38.52c-1.57,0-2.84-1.27-2.84-2.84v-118.27c0-23.31,18.93-42.24,42.24-42.24Z"/>
        <g>
          <path class="cls-1" d="M11.25,145.51h-2.72c-4.71-.02-8.53,3.8-8.53,8.5v94.28c0,4.67,3.76,8.47,8.43,8.51l27.8.25c4.72.04,8.58-3.77,8.59-8.49l.06-32.28c.12-37.08,16.24-72.39,44.56-95.92,42.42-35.24,104.21-32.99,144.14,5.39,24.47,23.52,37.81,55.12,38.38,88.88l.1,33.87c.01,4.71,3.86,8.52,8.57,8.48l27.95-.21c4.68-.03,8.45-3.83,8.45-8.51v-94.27c0-4.71-3.82-8.52-8.53-8.51h-2.48c-2.67.01-5.19-1.24-6.8-3.37l-45.63-60.29-31.99-39.65c-1.22-1.51-1.88-3.39-1.89-5.33l-.04-28.32c0-4.69-3.81-8.5-8.51-8.5L109.32,0c-6.72,0-12.17,5.44-12.18,12.15l-.04,24.74c0,1.93-.66,3.81-1.88,5.32l-31.82,39.59-45.34,60.32c-1.61,2.14-4.14,3.4-6.82,3.4Z"/>
          <path class="cls-1" d="M250.98,207.75c-.18-29.22-15.59-55.56-39.55-73.38-29.91-22.26-71.18-23.24-102.19-2.55-26.94,17.97-41.83,45.75-43.67,76.57-.01.22-.02.44-.02.67l.06,44.18c0,2.17,1.87,3.93,4.17,3.93l177.3-.12c2.31,0,4.18-1.78,4.17-3.96l-.28-45.34Z"/>
        </g>
      </g>
    </g>
  </g>
</svg>