<?xml version="1.0" encoding="UTF-8"?>
<svg id="Layer_2" xmlns="http://www.w3.org/2000/svg" version="1.1" viewBox="0 0 317 257.2">
  <!-- Generator: Adobe Illustrator 30.2.1, SVG Export Plug-In . SVG Version: 2.1.1 Build 1)  -->
  <defs>
    <style>
      .st0 {
        fill: #4a4a4a;
      }
    </style>
  </defs>
  <g id="Layer_1-2">
    <g id="TS_-_Icon">
      <g>
        <path class="st0" d="M11.2,145.5h-2.7c-4.7,0-8.5,3.8-8.5,8.5v94.3c0,4.7,3.8,8.5,8.4,8.5l27.8.2c4.7,0,8.6-3.8,8.6-8.5v-32.3c.2-37.1,16.3-72.4,44.6-95.9,42.4-35.2,104.2-33,144.1,5.4,24.5,23.5,37.8,55.1,38.4,88.9v33.9c.1,4.7,4,8.5,8.7,8.5l28-.2c4.7,0,8.5-3.8,8.5-8.5v-94.3c0-4.7-3.8-8.5-8.5-8.5h-2.5c-2.7,0-5.2-1.2-6.8-3.4l-45.6-60.3-32-39.7c-1.2-1.5-1.9-3.4-1.9-5.3V8.5c0-4.7-3.8-8.5-8.5-8.5h-101.8c-6.7,0-12.2,5.4-12.2,12.1v24.7c0,1.9-.7,3.8-1.9,5.3l-31.8,39.6-45.3,60.3c-1.6,2.1-4.1,3.4-6.8,3.4h0Z"/>
        <path class="st0" d="M251,207.8c-.2-29.2-15.6-55.6-39.6-73.4-29.9-22.3-71.2-23.2-102.2-2.6-26.9,18-41.8,45.8-43.7,76.6,0,.2,0,.4,0,.7v44.2c0,2.2,1.9,3.9,4.2,3.9h177.3c2.3-.1,4.2-1.9,4.2-4.1l-.3-45.3h0Z"/>
      </g>
    </g>
  </g>
</svg>